<?xml version="1.0" encoding="UTF-8"?>
<!-- Created with Inkscape (http://www.inkscape.org/) -->
<svg width="299.74mm" height="197.1mm" version="1.1" viewBox="0 0 299.74 197.1" xmlns="http://www.w3.org/2000/svg" xmlns:cc="http://creativecommons.org/ns#" xmlns:dc="http://purl.org/dc/elements/1.1/" xmlns:rdf="http://www.w3.org/1999/02/22-rdf-syntax-ns#" xmlns:xlink="http://www.w3.org/1999/xlink"><defs><filter id="filter1248" x="-.012141" y="-.011862" width="1.0243" height="1.0237" color-interpolation-filters="sRGB"><feGaussianBlur stdDeviation="1.8442188"/></filter></defs><metadata><rdf:RDF><cc:Work rdf:about=""><dc:format>image/svg+xml</dc:format><dc:type rdf:resource="http://purl.org/dc/dcmitype/StillImage"/><dc:title/></cc:Work></rdf:RDF></metadata><g transform="translate(49.256 31.65)"><g fill="#666" aria-label="Ω"><path transform="matrix(.26458 0 0 .25241 0 5.724)" d="m375.51 96.941c-4.022 0-7.9807 0.10433-11.883 0.30078-106.07 5.015-170.39 77.009-170.39 159.12 0 83.424 45.711 129.71 122.85 151.42l1.1426 14.07h-63.752c-18.178 0-28.759-6.641-35.426-35.211h-14.285l7.0703 83.434h132.11l-3.998-78.863c-48.569-11.999-80.568-74.852-80.568-135.99 0-75.394 36.518-129.56 101.74-136.85v0.10352c4.9547-0.62408 10.082-0.96094 15.395-0.96094 74.853 0 117.14 56.57 117.14 137.71 0 61.14-31.997 123.99-80.566 135.99l-4 78.863h132.11l7.0703-83.434h-14.285c-6.6671 28.57-17.248 35.211-35.426 35.211h-63.752l1.1426-14.07c77.139-21.713 122.85-67.996 122.85-151.42 0-85.139-69.14-159.42-182.28-159.42z" fill="#a6bad6" fill-opacity=".24444" filter="url(#filter1248)" stroke="#6882cd" stroke-width="5.669"/></g></g></svg>
