<?xml version="1.0" encoding="UTF-8"?>
<!-- Created with Inkscape (http://www.inkscape.org/) -->
<svg width="299.74mm" height="197.1mm" version="1.1" viewBox="0 0 299.74 197.1" xmlns="http://www.w3.org/2000/svg" xmlns:cc="http://creativecommons.org/ns#" xmlns:dc="http://purl.org/dc/elements/1.1/" xmlns:rdf="http://www.w3.org/1999/02/22-rdf-syntax-ns#" xmlns:xlink="http://www.w3.org/1999/xlink"><defs><clipPath id="clipPath2704"><ellipse cx="124.13" cy="109.14" rx="16.114" ry="15.102" fill="#d4aa00"/></clipPath><radialGradient id="radialGradient1615" cx="101.25" cy="110.42" r="149.91" gradientTransform="matrix(.99998 0 0 .99998 49.256 31.65)" gradientUnits="userSpaceOnUse"><stop stop-color="#f9f9f9" offset="0"/><stop stop-color="#fff" stop-opacity=".98824" offset=".17223"/><stop offset="1"/></radialGradient><mask id="mask1611" maskUnits="userSpaceOnUse"><circle cx="150.5" cy="142.07" r="149.91" fill="url(#radialGradient1615)"/></mask><filter id="filter1721" x="-.019357" y="-.027732" width="1.0387" height="1.0555" color-interpolation-filters="sRGB"><feGaussianBlur stdDeviation="2.6487796"/></filter><clipPath id="clipPath2494"><ellipse cx="150.92" cy="260.83" rx="387.83" ry="99.023"/></clipPath><filter id="filter2870" x="-.02224" y="-.18046" width="1.0445" height="1.3609" color-interpolation-filters="sRGB"><feGaussianBlur stdDeviation="7.1878507"/></filter></defs><metadata><rdf:RDF><cc:Work rdf:about=""><dc:format>image/svg+xml</dc:format><dc:type rdf:resource="http://purl.org/dc/dcmitype/StillImage"/><dc:title/></cc:Work></rdf:RDF></metadata><rect x="-130.42" y="-97.9" width="562.49" height="335.94" fill="#050505" fill-opacity=".98889"/><path d="m-11.555-21.348v229.23h328.41v-229.23zm161 78.862v1e-3c16.918 0.05327 34.099 6.1771 43.952 20.462 12.153 17.564 7.2896 44.563-11.025 56.03-4.1653 2.9487-9.0329 4.9014-13.769 6.4962 5.9837-0.76773 13.741 2.172 18.374-2.6696 1.768-2.917-0.23257-5.7341 5.008-3.9987h8.816v26.701h-103.7v-26.366h12.789c-0.98755 4.8233 2.4684 7.0147 7.6052 6.3014 3.6925 0.17308 8.3335 0.0377 11.239-0.0155-17.595-4.3975-32.223-21.014-31.382-39.639-0.39012-21.198 18.036-38.608 38.11-41.965 4.5288-0.89108 9.2456-1.3518 13.983-1.3369z" fill="#2f479b" fill-opacity=".56111" filter="url(#filter1721)" mask="url(#mask1611)"/><ellipse cx="174.56" cy="162.91" rx="12.906" ry="12.095" fill="#a90c03"/><ellipse cx="174.56" cy="162.91" rx="12.906" ry="12.095" fill="#a90c03"/><g stroke-width=".26458"><path d="m158.87 131.11a2.2864 2.9577 0 0 0-2.2861 2.958 2.2864 2.9577 0 0 0 0.53432 1.8996 2.2864 2.9577 0 0 0-0.25838 1.3637 2.2864 2.9577 0 0 0 0.13798 1.001 2.0893 2.7027 0 0 0-0.57155 1.8546 2.0893 2.7027 0 0 0 0.18035 1.0945 2.3258 3.0085 0 0 0-0.33795 1.557 2.3258 3.0085 0 0 0 0.31213 1.5001 2.2469 2.9067 0 0 0-0.35192 1.5596 2.2469 2.9067 0 0 0 0.13126 0.96736 2.2075 2.8556 0 0 0-0.48575 1.7864 2.2075 2.8556 0 0 0 0.46355 1.7456 2.0499 2.6516 0 0 0-0.22686 1.2118 2.0499 2.6516 0 0 0 0.25631 1.2831 2.2469 2.9067 0 0 0-0.41444 1.6748 2.2469 2.9067 0 0 0 2.2474 2.9062 2.2469 2.9067 0 0 0 2.2469-2.9062 2.2469 2.9067 0 0 0-0.45939-1.7549 2.0499 2.6516 0 0 0 0.22272-1.203 2.0499 2.6516 0 0 0-0.29712-1.3679 2.2075 2.8556 0 0 0 0.37621-1.5895 2.2075 2.8556 0 0 0-0.10594-0.8692 2.2469 2.9067 0 0 0 0.5395-1.8846 2.2469 2.9067 0 0 0-0.24236-1.3059 2.3258 3.0085 0 0 0 0.43926-1.7539 2.3258 3.0085 0 0 0-0.43719-1.7513 2.0893 2.7027 0 0 0 0.12195-0.90018 2.0893 2.7027 0 0 0-0.0419-0.53794 2.2864 2.9577 0 0 0 0.8697-2.3177 2.2864 2.9577 0 0 0-0.53432-1.8996 2.2864 2.9577 0 0 0 0.25838-1.3637 2.2864 2.9577 0 0 0-2.2867-2.958z" fill="#f3a80d"/><path d="m141.01 129.03a3.1033 2.7239 76.831 0 0-2.5812 3.085 3.1033 2.7239 76.831 0 0 0.38293 1.4221 3.1033 2.7239 76.831 0 0-0.53795 1.9818 3.1033 2.7239 76.831 0 0 1.1663 2.4169 2.8358 2.4891 76.831 0 0-0.0207 0.56171 2.8358 2.4891 76.831 0 0 0.1943 0.93894 3.157 2.7709 76.831 0 0-0.42994 1.8267 3.157 2.7709 76.831 0 0 0.62115 1.8288 3.0498 2.677 76.831 0 0-0.22013 1.3622 3.0498 2.677 76.831 0 0 0.74775 1.9658 2.9964 2.63 76.831 0 0-0.0801 0.9064 2.9964 2.63 76.831 0 0 0.53588 1.6578 2.7823 2.4421 76.831 0 0-0.28268 1.4273 2.7823 2.4421 76.831 0 0 0.33228 1.2542 3.0498 2.677 76.831 0 0-0.45629 1.8304 3.0498 2.677 76.831 0 0 2.849 3.0318 3.0498 2.677 76.831 0 0 2.5368-3.0318 3.0498 2.677 76.831 0 0-0.58599-1.7472 2.7823 2.4421 76.831 0 0 0.23823-1.3374 2.7823 2.4421 76.831 0 0-0.33745-1.265 2.9964 2.63 76.831 0 0 0.46199-1.82 2.9964 2.63 76.831 0 0-0.67852-1.8629 3.0498 2.677 76.831 0 0 0.10542-1.0092 3.0498 2.677 76.831 0 0-0.50487-1.6267 3.157 2.7709 76.831 0 0 0.29299-1.5642 3.157 2.7709 76.831 0 0-0.48936-1.6242 2.8358 2.4891 76.831 0 0 0.15761-1.1415 2.8358 2.4891 76.831 0 0-0.78443-1.9352 3.1033 2.7239 76.831 0 0 0.1111-1.0433 3.1033 2.7239 76.831 0 0-0.38292-1.4221 3.1033 2.7239 76.831 0 0 0.53847-1.9818 3.1033 2.7239 76.831 0 0-2.8995-3.085z" fill="#a90c03"/><path d="m158.25 130.83a2.7408 2.6815 5.0964 0 0-2.7299 2.682 2.7408 2.6815 5.0964 0 0 0.64751 1.7224 2.7408 2.6815 5.0964 0 0-0.30488 1.2371 2.7408 2.6815 5.0964 0 0 0.16898 0.9069 2.5045 2.4504 5.0964 0 0-0.67851 1.6826 2.5045 2.4504 5.0964 0 0 0.22065 0.99271 2.7881 2.7278 5.0964 0 0-0.39996 1.4118 2.7881 2.7278 5.0964 0 0 0.3793 1.3601 2.6934 2.6353 5.0964 0 0-0.41547 1.4144 2.6934 2.6353 5.0964 0 0 0.16019 0.87746 2.6463 2.589 5.0964 0 0-0.57567 1.6195 2.6463 2.589 5.0964 0 0 0.56223 1.5828 2.4573 2.4041 5.0964 0 0-0.2682 1.0992 2.4573 2.4041 5.0964 0 0 0.31159 1.1627 2.6934 2.6353 5.0964 0 0-0.48989 1.5193 2.6934 2.6353 5.0964 0 0 2.7032 2.636 2.6934 2.6353 5.0964 0 0 2.6831-2.636 2.6934 2.6353 5.0964 0 0-0.55708-1.5911 2.4573 2.4041 5.0964 0 0 0-5.3e-4 2.4573 2.4041 5.0964 0 0 0.26252-1.0904 2.4573 2.4041 5.0964 0 0-0.36017-1.2407 2.6463 2.589 5.0964 0 0 0.44441-1.4412 2.6463 2.589 5.0964 0 0-0.13022-0.78858 2.6934 2.6353 5.0964 0 0 0.63975-1.7084 2.6934 2.6353 5.0964 0 0-0.29506-1.1844 2.7881 2.7278 5.0964 0 0 0.52038-1.5901 2.7881 2.7278 5.0964 0 0-0.53019-1.588 2.5045 2.4504 5.0964 0 0 0.14314-0.81647 2.5045 2.4504 5.0964 0 0-0.0522-0.48834 2.7408 2.6815 5.0964 0 0 1.034-2.1011 2.7408 2.6815 5.0964 0 0-0.64751-1.7229 2.7408 2.6815 5.0964 0 0 0.3049-1.2366 2.7408 2.6815 5.0964 0 0-2.7506-2.682z" fill="#a90c03"/><path d="m142.47 131.16a2.8593 2.6262 43.782 0 0-2.5073 2.7397 2.8593 2.6262 43.782 0 0 0.41753 1.2635 2.8593 2.6262 43.782 0 0-0.49093 1.7606 2.8593 2.6262 43.782 0 0 1.2247 2.1471 2.6129 2.3998 43.782 0 0-7e-3 0.49868 2.6129 2.3998 43.782 0 0 0.21703 0.83406 2.9088 2.6715 43.782 0 0-0.38602 1.6226 2.9088 2.6715 43.782 0 0 0.66508 1.6247 2.8101 2.5809 43.782 0 0-0.18758 1.2102 2.8101 2.5809 43.782 0 0 0.7953 1.7456 2.7609 2.5356 43.782 0 0-0.0584 0.80562 2.7609 2.5356 43.782 0 0 0.57567 1.4728 2.5636 2.3545 43.782 0 0-0.24804 1.2676 2.5636 2.3545 43.782 0 0 0.36224 1.1141 2.8101 2.5809 43.782 0 0-0.41238 1.6262 2.8101 2.5809 43.782 0 0 2.9223 2.6929 2.8101 2.5809 43.782 0 0 2.4639-2.6929 2.8101 2.5809 43.782 0 0-0.62838-1.5518 2.5636 2.3545 43.782 0 0 0.20619-1.1885 2.5636 2.3545 43.782 0 0-0.36793-1.1234 2.7609 2.5356 43.782 0 0 0.41807-1.6169 2.7609 2.5356 43.782 0 0-0.72294-1.6552 2.8101 2.5809 43.782 0 0 0.0806-0.89605 2.8101 2.5809 43.782 0 0-0.54413-1.4454 2.9088 2.6715 43.782 0 0 0.25579-1.3896 2.9088 2.6715 43.782 0 0-0.52863-1.4423 2.6129 2.3998 43.782 0 0 0.13023-1.0144 2.6129 2.3998 43.782 0 0-0.83094-1.7187 2.8593 2.6262 43.782 0 0 0.0863-0.92706 2.8593 2.6262 43.782 0 0-0.41754-1.2635 2.8593 2.6262 43.782 0 0 0.49093-1.7606 2.8593 2.6262 43.782 0 0-2.9734-2.7397z" fill="#f3a80d"/><path d="m155.12 131.01a2.1184 2.7403 0 0 0-2.1187 2.7402 2.1184 2.7403 0 0 0 0.49506 1.7606 2.1184 2.7403 0 0 0-0.23926 1.2635 2.1184 2.7403 0 0 0 0.12764 0.92707 1.9358 2.5041 0 0 0-0.52916 1.7187 1.9358 2.5041 0 0 0 0.16691 1.0144 2.1549 2.7876 0 0 0-0.31316 1.4423 2.1549 2.7876 0 0 0 0.28887 1.3901 2.0818 2.6932 0 0 0-0.32556 1.4448 2.0818 2.6932 0 0 0 0.12143 0.89659 2.0453 2.6458 0 0 0-0.4501 1.6546 2.0453 2.6458 0 0 0 0.42941 1.6169 1.8992 2.4568 0 0 0-0.21032 1.1234 1.8992 2.4568 0 0 0 0.23771 1.188 2.0818 2.6932 0 0 0-0.38343 1.5523 2.0818 2.6932 0 0 0 2.0815 2.6929 2.0818 2.6932 0 0 0 2.082-2.6929 2.0818 2.6932 0 0 0-0.42581-1.6262 1.8992 2.4568 0 0 0 0-5.3e-4 1.8992 2.4568 0 0 0 0.2067-1.1136 1.8992 2.4568 0 0 0-0.27493-1.2676 2.0453 2.6458 0 0 0 0.34779-1.4728 2.0453 2.6458 0 0 0-0.0982-0.80562 2.0818 2.6932 0 0 0 0.50021-1.7456 2.0818 2.6932 0 0 0-0.22479-1.2102 2.1549 2.7876 0 0 0 0.40722-1.6247 2.1549 2.7876 0 0 0-0.40513-1.6226 1.9358 2.5041 0 0 0 0.11317-0.83404 1.9358 2.5041 0 0 0-0.0387-0.49868 2.1184 2.7403 0 0 0 0.80562-2.1471 2.1184 2.7403 0 0 0-0.49506-1.7606 2.1184 2.7403 0 0 0 0.23926-1.2635 2.1184 2.7403 0 0 0-2.1182-2.7402z" fill="#f3a80d"/><path d="m144.79 128.7a2.7403 3.0847 0 0 0-2.7402 3.085 2.7403 3.0847 0 0 0 0.30953 1.4221 2.7403 3.0847 0 0 0-0.64026 1.9818 2.7403 3.0847 0 0 0 1.0423 2.4174 2.5041 2.8188 0 0 0-0.0501 0.5612 2.5041 2.8188 0 0 0 0.14572 0.93894 2.7876 3.1379 0 0 0-0.524 1.8267 2.7876 3.1379 0 0 0 0.5271 1.8288 2.6932 3.0316 0 0 0-0.29094 1.3622 2.6932 3.0316 0 0 0 0.64698 1.9652 2.6458 2.9784 0 0 0-0.12712 0.9069 2.6458 2.9784 0 0 0 0.45061 1.6578 2.4568 2.7657 0 0 0-0.35605 1.4273 2.4568 2.7657 0 0 0 0.26717 1.2542 2.6932 3.0316 0 0 0-0.55085 1.8304 2.6932 3.0316 0 0 0 2.6934 3.0318 2.6932 3.0316 0 0 0 2.6929-3.0318 2.6932 3.0316 0 0 0-0.49556-1.7467 2.4568 2.7657 0 0 0 0.30696-1.3379 2.4568 2.7657 0 0 0-0.27283-1.2645 2.6458 2.9784 0 0 0 0.55604-1.8206 2.6458 2.9784 0 0 0-0.58186-1.8629 2.6932 3.0316 0 0 0 0.15658-1.0092 2.6932 3.0316 0 0 0-0.42063-1.6262 2.7876 3.1379 0 0 0 0.37361-1.5648 2.7876 3.1379 0 0 0-0.40565-1.6242 2.5041 2.8188 0 0 0 0.21652-1.1415 2.5041 2.8188 0 0 0-0.68471-1.9347 2.7403 3.0847 0 0 0 0.16484-1.0438 2.7403 3.0847 0 0 0-0.30953-1.4226 2.7403 3.0847 0 0 0 0.64026-1.9813 2.7403 3.0847 0 0 0-2.7397-3.085z" fill="#a90c03"/><path d="m152.54 128.27a3.1033 2.7239 76.831 0 0-2.5812 3.085 3.1033 2.7239 76.831 0 0 0.74257 1.9818 3.1033 2.7239 76.831 0 0-0.23667 1.4221 3.1033 2.7239 76.831 0 0 0.2191 1.0434 2.8358 2.4891 76.831 0 0-0.58496 1.9352 2.8358 2.4891 76.831 0 0 0.27543 1.1415 3.157 2.7709 76.831 0 0-0.32194 1.6242 3.157 2.7709 76.831 0 0 0.45423 1.5642 3.0498 2.677 76.831 0 0-0.33691 1.6267 3.0498 2.677 76.831 0 0 0.20877 1.0092 2.9964 2.63 76.831 0 0-0.48628 1.8629 2.9964 2.63 76.831 0 0 0.65008 1.8206 2.7823 2.4421 76.831 0 0-0.20722 1.2645 2.7823 2.4421 76.831 0 0 0.3762 1.3379 3.0498 2.677 76.831 0 0-0.40618 1.7466 3.0498 2.677 76.831 0 0 2.849 3.0318 3.0498 2.677 76.831 0 0 2.5368-3.0318 3.0498 2.677 76.831 0 0-0.64492-1.8304 2.7823 2.4421 76.831 0 0 0.20257-1.2542 2.7823 2.4421 76.831 0 0-0.42941-1.4273 2.9964 2.63 76.831 0 0 0.36483-1.6578 2.9964 2.63 76.831 0 0-0.17363-0.9069 3.0498 2.677 76.831 0 0 0.54569-1.9652 3.0498 2.677 76.831 0 0-0.3612-1.3622 3.157 2.7709 76.831 0 0 0.43253-1.8288 3.157 2.7709 76.831 0 0-0.61753-1.8262 2.8358 2.4891 76.831 0 0 0.0971-0.93947 2.8358 2.4891 76.831 0 0-0.0791-0.5617 3.1033 2.7239 76.831 0 0 0.91778-2.4169 3.1033 2.7239 76.831 0 0-0.74257-1.9818 3.1033 2.7239 76.831 0 0 0.23615-1.4221 3.1033 2.7239 76.831 0 0-2.899-3.085z" fill="#a90c03"/><path d="m161.4 137.85c-0.0592 0.11208-0.12366 0.22146-0.19585 0.32607a6.1473 6.1473 0 0 0 0.14314-0.0336 2.2864 2.9577 0 0 0 0.0527-0.29249z" fill="#ffe200"/></g><circle cx="133.73" cy="95.25" r="19.466" fill="#f3a80d"/><path d="m148.04 129.69a3.2845 2.7403 0 0 0-3.2846 2.7404 3.2845 2.7403 0 0 0 0.37104 1.2635 3.2845 2.7403 0 0 0-0.7674 1.7606 3.2845 2.7403 0 0 0 1.2495 2.1472 3.0014 2.5041 0 0 0-0.0605 0.49868 3.0014 2.5041 0 0 0 0.17518 0.83405 3.3411 2.7876 0 0 0-0.62839 1.6226 3.3411 2.7876 0 0 0 0.63149 1.6247 3.2279 2.6931 0 0 0-0.3483 1.2103 3.2279 2.6931 0 0 0 0.77514 1.7456 3.1712 2.6458 0 0 0-0.15193 0.80564 3.1712 2.6458 0 0 0 0.5395 1.4723 2.9447 2.4568 0 0 0-0.42633 1.2681 2.9447 2.4568 0 0 0 0.32039 1.1136 3.2279 2.6931 0 0 0-0.66043 1.6268 3.2279 2.6931 0 0 0 3.2282 2.6929 3.2279 2.6931 0 0 0 3.2277-2.6929 3.2279 2.6931 0 0 0-0.59479-1.5524 2.9447 2.4568 0 0 0 0.36845-1.188 2.9447 2.4568 0 0 0-0.32659-1.1234 3.1712 2.6458 0 0 0 0.66611-1.617 3.1712 2.6458 0 0 0-0.69764-1.6547 3.2279 2.6931 0 0 0 0.18811-0.89659 3.2279 2.6931 0 0 0-0.50488-1.4454 3.3411 2.7876 0 0 0 0.44803-1.3896 3.3411 2.7876 0 0 0-0.48576-1.4428 3.0014 2.5041 0 0 0 0.25942-1.0139 3.0014 2.5041 0 0 0-0.82114-1.7182 3.2845 2.7403 0 0 0 0.19844-0.9276 3.2845 2.7403 0 0 0-0.37156-1.264 3.2845 2.7403 0 0 0 0.76792-1.7601 3.2845 2.7403 0 0 0-3.2846-2.7404z" fill="#f3a80d"/><g transform="translate(49.256,31.65)" fill="#ffe200"><path transform="scale(.26458)" d="m390.36 365.2a11.729 10.295 76.831 0 0-9.3047 7.5781 12.414 10.357 0 0 0-7.6758-2.2207 12.414 10.357 0 0 0-4.2266 0.63281 10.357 11.659 0 0 0-8.0781-4.3828 10.357 11.659 0 0 0-7.6602 3.8301 11.729 10.295 76.831 0 0-6.627-2.5801 11.729 10.295 76.831 0 0-9.7559 11.66 11.729 10.295 76.831 0 0 1.4473 5.375 11.729 10.295 76.831 0 0-2.0332 7.4902 11.729 10.295 76.831 0 0 0.11523 1.1777c5.19-1.5262 9.7805-4.9325 12.938-9.2832 3.4823-2.9662 7.941-5.3123 12.393-3.3887 3.8713-0.0922 8.8244-0.16138 11.033-3.9805 4.644 2.1418 9.9445 4.0992 15.133 3.5 3.7886-1.3479 4.9004 4.9336 7.1543 6.8555 2.5748 3.4872 6.7232 4.8252 10.707 5.3496 2.9114 0.90856 6.3382-0.49063 8.459 2.3008 2.8651 1.6568 6.1182 1.7719 9.3106 1.4531a8.6415 11.179 0 0 0-0.0391-0.20312 10.359 10.135 5.0964 0 0 0.01-0.19727 10.359 10.135 5.0964 0 0-1.332-4.9277 8.6415 11.179 0 0 0 0.61914-4.1445 8.6415 11.179 0 0 0-1.7148-6.6621 10.359 10.135 5.0964 0 0-9.2637-5.5879 10.359 10.135 5.0964 0 0-7.0703 2.7559 8.0066 10.357 0 0 0-3.6973-1.9395 11.729 10.295 76.831 0 0-10.84-10.461z"/><path transform="scale(.26458)" d="m390.36 365.2c-3.5917 4e-3 -6.8172 2.1021-8.5234 5.5449 0.59558 0.36248 1.1709 0.75266 1.6992 1.1934 2.7238 2.272 4.4081 5.5902 4.4082 8.9766-9.5e-4 2.5665-1.119 5.0069-2.7774 7.0644 0.62283 1.4105 1.2763 2.8382 1.2774 4.3633 2e-5 5e-3 2e-5 0.0104 0 0.0156-5e-3 1.0227-0.34405 2.0023-0.63477 2.9883 1.5992 1.7941 2.7376 3.9538 2.9473 6.2559 0.0889 0.0775 0.18012 0.15241 0.27343 0.22461-0.1825 0.44778-0.27667 0.92662-0.27734 1.4102 0 2.0711 1.6789 3.75 3.75 3.75s3.75-1.6789 3.75-3.75c-2e-3 -0.40944-0.0702-0.81586-0.20312-1.2031-0.54832-1.5116 1.7134-1.3363 3.7128-3.1738 2.3702-2.2074 3.6479-5.5722 3.4688-9.1348-0.14136-2.7393-1.135-5.3911-2.8066-7.4902 0.68184-1.66 0.98799-3.5036 0.89257-5.375-0.33149-6.4391-5.2371-11.659-10.957-11.66zm-29.285 1.6074c-5.7205-1.8e-4 -10.358 5.2204-10.357 11.66 1e-3 1.8714 0.40242 3.715 1.1699 5.375-1.5632 2.0992-2.4199 4.751-2.4199 7.4902 4e-3 3.5632 1.4551 6.9288 3.9395 9.1367 1.1982 1.0583 3.511 1.6752 5.168 1.6953 0.25519-3e-3 0.51008-0.0183 0.76367-0.0469 0.22133 1.5693 1.1998 2.9296 2.6172 3.6387 0.13868-0.21968 0.28115-0.43727 0.43165-0.65039-0.26373-0.90698-0.57147-1.8136-0.57618-2.7539v-8e-3c4.6e-4 -0.40169 0.0921-0.79624 0.14063-1.1953-2.718-2.29-4.6266-5.4158-4.6289-8.8066-1e-3 -2.5672 1.11-5.0054 2.7676-7.0644-0.62283-1.4105-1.2762-2.8382-1.2773-4.3633 1.4e-4 -3.3864 1.6844-6.7046 4.4082-8.9766 1.2806-1.0682 2.7842-1.9021 4.4004-2.4961-1.8474-1.7012-4.1601-2.6319-6.5469-2.6348z"/><path transform="scale(.26458)" d="m403.32 376.42c8e-3 0.11018 0.0256 0.21978 0.0312 0.33007a2.039 2.039 0 0 0 2e-3 2e-3c0.0914 1.7917-0.21478 3.5625-0.75586 5.2363 1.5109 2.2564 2.5268 4.892 2.668 7.627a2.039 2.039 0 0 1 2e-3 4e-3c0.18288 3.6372-1.0801 7.2341-3.3691 9.8379 0.0725 0.47204 0.17478 0.9401 0.19922 1.416a2.039 2.039 0 0 1 0 6e-3c0.0543 1.1052-0.1324 2.1928-0.33984 3.2676 0.12881 0.21251 0.2493 0.43013 0.36914 0.64844a6.0714 6.0714 0 0 0 2.9316-1.166 5.8929 5.8929 0 0 0 1.0156 2.623 4.8214 4.8214 0 0 0-0.71485 2.5156 4.8214 4.8214 0 0 0 0.99414 2.9238 8.1446 10.536 0 0 0-0.57031-1.1992 7.3164 9.4643 0 0 0 0.42773-3.1523 7.3164 9.4643 0 0 0-0.14648-1.8848 8.0066 10.357 0 0 0 3.0449-8.1152 8.0066 10.357 0 0 0-1.8711-6.6543 8.0066 10.357 0 0 0 0.90429-4.7754 8.0066 10.357 0 0 0-4.8223-9.4902zm-54.531 0.32617a10.807 9.9258 43.782 0 0-5.9414 9.6992 10.807 9.9258 43.782 0 0 1.5781 4.7754 10.807 9.9258 43.782 0 0-1.8555 6.6543 10.807 9.9258 43.782 0 0 0.0977 0.71485 4.4643 4.4643 0 0 0 0.0117 0 4.4643 4.4643 0 0 0 2.7949-0.98633 5.1786 8.3791 0 0 0 1.4668 2.4062 4.1071 4.1071 0 0 0-0.33203 1.6152 4.1071 4.1071 0 0 0 4.1074 4.1074 4.1071 4.1071 0 0 0 0.36719-0.0195 3.0357 3.0357 0 0 0-0.36719 1.4473 3.0357 3.0357 0 0 0 0.0664 0.62305c0.26-0.66365 0.55822-1.3114 0.90039-1.9316-0.26209-1.0699-0.50283-2.1536-0.50586-3.2598a2.039 2.039 0 0 1 0-6e-3c0-0.48094 0.0795-0.95558 0.12891-1.4336-2.42-2.5759-3.8749-6.1622-3.8789-9.8223a2.039 2.039 0 0 0 0-2e-3c-1e-5 -2.7216 0.87983-5.3612 2.2734-7.6328-0.62627-1.666-1.0223-3.4333-1.0234-5.2305a2.039 2.039 0 0 0 0-2e-3c-4e-5 -0.57439 0.0447-1.147 0.11133-1.7168z"/><path transform="scale(.26458)" d="m373.38 372.34c-2.8617-4.7e-4 -5.6939 0.99532-7.6406 2.6191-1.9467 1.6238-2.998 3.8034-2.998 5.957 9.4e-4 1.3143 0.37799 2.6285 1.1289 3.832 0.44262 0.70371 0.33881 1.6202-0.25 2.207-1.5541 1.5494-2.3701 3.4771-2.3691 5.3887 2e-3 2.4716 1.4148 4.9851 3.9199 6.6367 2.9339 1.8434 2.3379 3.5206 3.3359 4.4414 1.0067 1.024 2.3824 1.601 3.8184 1.6016 0.043-7.9e-4 0.0859-2e-3 0.1289-4e-3 -0.75889 0.60968-1.2006 1.5304-1.2012 2.5039-3.1e-4 1.7756 1.4392 3.2152 3.2148 3.2148 1.533 4e-5 2.8527-1.0825 3.1524-2.5859 2.006-0.3963 3.4526-2.1545 3.4551-4.1992-6.9e-4 -2.0244-1.4179-3.7723-3.3984-4.1914 2e-3 -0.0319 3e-3 -0.0638 4e-3 -0.0957 2.2e-4 -0.65844-0.12095-1.3113-0.35742-1.9258 1.9112-1.4502 3.0347-3.7103 3.0371-6.1094-1e-3 -1.7176-0.57809-3.3853-1.6387-4.7363 0.92132-0.22556 1.828-0.50734 2.7148-0.84374 0.0717 0.0806 0.14398 0.16066 0.2168 0.24023 1.5475-1.5465 2.3626-3.4685 2.3633-5.375-1.1e-4 -2.1536-1.0513-4.3332-2.998-5.957-1.9468-1.6238-4.7769-2.6196-7.6387-2.6191zm-6.0762 25.479c-3e-3 6e-3 -5e-3 0.013-8e-3 0.0195-5e-3 -5e-3 -0.0104-9e-3 -0.0156-0.0137 8e-3 -2e-3 0.0156-4e-3 0.0234-6e-3z"/><path transform="scale(.26458)" d="m346.79 368.05a11.729 10.295 76.831 0 0-9.7559 11.66 11.729 10.295 76.831 0 0 1.4473 5.375 11.729 10.295 76.831 0 0-2.0332 7.4902 11.729 10.295 76.831 0 0 0.13867 1.2969 23.234 23.234 0 0 0 1.6504-0.13086 4.4643 4.4643 0 0 0-0.0176 0.38086 4.4643 4.4643 0 0 0 2.8691 4.1699c-0.0109-0.0967-0.0326-0.19211-0.041-0.28907a1.5308 1.5308 0 0 0 0-2e-3c-0.20475-2.4102 0.48147-4.771 1.707-6.7832-0.75591-1.4633-1.291-3.0336-1.4297-4.6445a1.5308 1.5308 0 0 0 0-2e-3c-0.26398-3.1077 0.75784-6.2456 2.8066-8.4844 1.3236-1.4463 3.0615-2.4896 4.9629-3.0527 0.48349-2.0481 1.3849-3.981 2.6543-5.5938a11.729 10.295 76.831 0 0-4.959-1.3906zm65.18 6.7871a10.359 10.135 5.0964 0 0-5.8691 1.7891c0.32308 0.31791 0.62996 0.65645 0.91211 1.0215 1.7192 2.2242 2.6641 5.2386 2.6641 8.2598-7.4e-4 1.6081-0.31187 3.1959-0.82227 4.6816 1.1125 2 1.7891 4.3443 1.7891 6.748a1.5308 1.5308 0 0 0 0 2e-3c-3e-3 3.1897-1.1113 6.324-3.0098 8.5762 0.0494 0.47285 0.11134 0.94532 0.11132 1.4219a1.5308 1.5308 0 0 1 0 4e-3c-3e-3 1.0047-0.18338 1.9938-0.40429 2.9629 0.45862 0.92619 0.82257 1.9187 1.0801 2.9473a4.8214 4.8214 0 0 0 1.7617 0.33594 4.8214 4.8214 0 0 0 4.8223-4.8223 4.8214 4.8214 0 0 0-0.23438-1.4629 5.8929 5.8929 0 0 0 0.35547-0.33398 7.5 7.5 0 0 0 0.23633 0.0117 7.5 7.5 0 0 0 4.5586-1.5645 9.466 9.2613 5.0964 0 0-0.16797-1.3144 10.359 10.135 5.0964 0 0 3.9082-7.9414 10.359 10.135 5.0964 0 0-2.4473-6.5117 10.359 10.135 5.0964 0 0 1.1524-4.6738 10.359 10.135 5.0964 0 0-10.396-10.137z"/></g><g transform="translate(49.256,31.65)"><path d="m64.738 76.549c0.68077 3.7928 2.165 7.4511 3.8403 10.864-0.55226 1.5793 0.3944 3.3667 1.8632 4.0577 0.1876 1.1873 1.4587 1.8729 2.1785 2.4604-0.17906 1.0126 1.1684 1.5303 0.66149 2.4435-0.22481 1.4346 1.0603 2.851 2.5461 2.8066 0.53806 2.1148 2.8059 3.6156 5.0158 3.3173 1.1099 0.99614 2.7716 1.3438 4.2058 0.89571 2.3839 1.1622 5.5314 0.24882 6.9135-1.9676 1.1163-0.71229 2.1871-1.7924 3.5694-1.1117 0.98657-0.0937 2.3915 0.10382 2.8075-1.078 0.33058-0.28233 1.1956 0.58946 1.7737 0.52905 0.97678 0.21719 2.029 0.83485 3.0026 0.1675 0.74108 0.55949 1.2478 1.1179 1.5823 1.939 0.6474 0.73679 1.4533 1.5631 2.5654 1.3931 0.76685 0.58177 1.766-0.16615 2.374 0.66081 1.2383 0.82353 2.9081 0.52536 4.1117 0.0858 1.3278 1.0713 3.2724 0.40427 4.2524-0.61178 1.3027 0.30853 2.0793-0.92625 3.2504-1.1424 1.0282-0.39735 1.2112-1.647 2.2773-1.9298 0.99884-0.53744 1.3997-1.7435 1.7288-2.6166 1.574-0.36461 2.5632-1.7129 3.4256-2.8704 0.72636-0.4082 0.97506-1.2982 1.0809-1.99 1.4324-0.75654 2.3763-2.3013 2.3751-3.8917 1.5888-0.7422 2.0442-2.6265 1.7314-4.1598 0.61569-3.0721 1.6576-6.0449 2.9937-8.8876-24.093-7.83e-4 -48.185-0.0019-72.278-0.0026 0.0502 0.21328 0.1004 0.42657 0.1506 0.63986z" fill="#f3a80d"/><path transform="scale(.26458)" d="m380.26 131.09a134.29 134.29 0 0 0-134.29 134.29 134.29 134.29 0 0 0 16.777 64.732 10.733 10.733 0 0 0-0.87305 4.2383 10.733 10.733 0 0 0 7.207 10.125 10.733 10.733 0 0 0 8.7715 8.9004 6.8185 6.8185 0 0 0-0.32227 2.0625 6.8185 6.8185 0 0 0 3.8691 6.1367 7.5761 7.5761 0 0 0-1.4688 4.4688 7.5761 7.5761 0 0 0 7.5762 7.5762 7.5761 7.5761 0 0 0 1.5801-0.17578 15.342 15.342 0 0 0 15.15 12.992 15.342 15.342 0 0 0 2.6699-0.23632 14.332 14.332 0 0 0 10.209 4.2773 14.332 14.332 0 0 0 4.9492-0.89258 18.435 18.435 0 0 0 8.498 2.0918 18.435 18.435 0 0 0 15.758-8.9102 45.714 45.714 0 0 0 7.9688-5.7695 20.961 20.961 0 0 0 3.2949 0.28516 20.961 20.961 0 0 0 2.0586-0.10547 3.8512 3.8512 0 0 0 2.4238 0.86328 3.8512 3.8512 0 0 0 2.3281-0.78711 3.8512 3.8512 0 0 0 1.7129 0.4082 3.8512 3.8512 0 0 0 3.8516-3.8516 3.8512 3.8512 0 0 0-0.0488-0.58594 20.961 20.961 0 0 0 1.1602-0.88281 20.961 20.961 0 0 0 10.084 4.0176 6.6923 6.6923 0 0 0 3.957 1.3027 6.6923 6.6923 0 0 0 4.5059-1.7539 49.643 49.643 0 0 0 6.3984 5.6758 3.8512 3.8512 0 0 0-0.0449 0.56054 3.8512 3.8512 0 0 0 2.0918 3.4238 6.6923 6.6923 0 0 0 5.9883 3.7109 6.6923 6.6923 0 0 0 1.3047-0.13477 5.9346 5.9346 0 0 0 3.4942 1.1445 5.9346 5.9346 0 0 0 2.8711-0.74805 13.006 13.006 0 0 0 9.6289 4.2832 13.006 13.006 0 0 0 7.6074-2.4766 49.643 49.643 0 0 0 0.0781-4e-3 9.0282 9.0282 0 0 0 6.584 2.8594 9.0282 9.0282 0 0 0 8.0801-5.0273 6.124 6.124 0 0 0 2.9043 0.73437 6.124 6.124 0 0 0 5.1738-2.8594 11.68 11.68 0 0 0 9.5527-7.1992 11.68 11.68 0 0 0 8.4434-11.217 11.68 11.68 0 0 0-4e-3 -0.0937 17.483 17.483 0 0 0 12.797-10.506 6.6799 6.6799 0 0 0 4.1719-6.1875 6.6799 6.6799 0 0 0-0.17578-1.4863 15.162 15.162 0 0 0 9.2832-13.959 15.162 15.162 0 0 0-0.0449-1.1289 10.787 10.787 0 0 0 6.8301-10.033 10.787 10.787 0 0 0-0.61914-3.5664 134.29 134.29 0 0 0 12.529-56.293 134.29 134.29 0 0 0-134.29-134.29z" fill="#a90c03"/><path transform="scale(.26458)" d="m418.96 131.56c-0.26105 0.0522-0.52953 0.11498-0.75782 0.25195-0.20419 0.1225-0.31537 0.36104-0.50585 0.50391-0.15058 0.11293-0.35349 0.14097-0.50391 0.2539-0.1906 0.14284-0.29307 0.39744-0.50586 0.50391-0.31045 0.15526-0.69947 0.0987-1.0098 0.2539-0.21293 0.10649-0.2927 0.39744-0.50585 0.50391-0.15054 0.0753-0.35349-0.0753-0.50391 0-0.21294 0.10648-0.31537 0.36299-0.50586 0.50586-0.4413 0.331-0.75438 0.24924-1.2637 0.50391-0.76895 0.38507 0.4636 0.20096-0.75586 0.50586-0.16343 0.0408-0.33729 0-0.50586 0-0.0839 0-0.17674-0.0374-0.25195 0-1.1558 0.57786 1.0714-0.10388-0.75782 0.50586-0.20326 0.0678-0.84838-0.0807-1.0098 0-0.10621 0.0532-0.1409 0.21453-0.25391 0.25195-0.22726 0.0758-0.53066-0.0758-0.75781 0-0.17851 0.0595-0.32551 0.19246-0.50391 0.25195-0.0797 0.0265-0.16767 0-0.25195 0-0.25255 0.0842-0.50534 0.1697-0.75781 0.25391-0.10659 0.0532-0.14733 0.19874-0.25391 0.25195-0.31045 0.15523-0.83099-0.51804-1.0098 0.25195-0.21289 0.10649-0.29111 0.39939-0.5039 0.50586-0.0752 0.0378-0.17869-0.0374-0.25391 0-0.76894 0.38508 0.46165 0.19902-0.75781 0.50391-0.16343 0.0408-0.34063-0.0408-0.50391 0-0.36521 0.0913-0.6405 0.43205-1.0098 0.50586-0.24764 0.0495-0.50799-0.0355-0.75781 0-0.3436 0.0491-0.67301 0.16774-1.0098 0.25195-0.33672 0-0.67836-0.0476-1.0117 0-0.26351 0.0376-0.50534 0.1697-0.75781 0.25391-0.53968 0.17988-1.2127 0.42462-1.7676 0.5039-0.25002 0.0355-0.50603-0.0355-0.75586 0-0.3436 0.0491-0.66665 0.21367-1.0117 0.25196-0.83667 0.093-1.6888-0.093-2.5254 0-0.61633 0.0685-2.0773 0.62337-2.5254 0.75781-0.33245 0.0997-0.67717 0.1542-1.0098 0.25391-0.50994 0.15297-1.0057 0.35091-1.5156 0.5039-0.33241 0.0997-0.68473 0.13202-1.0098 0.25391-0.35246 0.13219-0.66393 0.3556-1.0098 0.50391-0.48937 0.20973-1.0394 0.26774-1.5156 0.50586-0.27148 0.13573-0.46981 0.4079-0.75781 0.5039-0.23958 0.0799-0.52348-0.0938-0.75781 0-0.22125 0.0884-0.31342 0.36299-0.50391 0.50586-1.0207 0.76544-0.12017 0.0394-0.75781 0.25195-0.35713 0.11906-0.6526 0.38681-1.0098 0.50586-0.0797 0.0265-0.17415-0.0264-0.2539 0-0.91559 0.30518-0.17992 0.11865-0.75781 0.50391-0.31325 0.20883-0.69645 0.29704-1.0098 0.50586-0.099 0.0661-0.13894 0.21453-0.25195 0.25195-1.1148 0.37159 0.13987-0.64377-1.0098 0.50586-0.15059 0.0753-0.34613-0.0532-0.50586 0-0.11293 0.0376-0.16774 0.16775-0.25195 0.25195-0.16836 0.16837-0.30774 0.37381-0.50586 0.50586-0.14009 0.0934-0.34418-0.0532-0.50391 0-0.17855 0.0595-0.32323 0.20638-0.50586 0.25196-0.16333 0.0408-0.33552 0-0.5039 0-0.0842 0-0.17862-0.0378-0.25391 0-0.10651 0.0532-0.13645 0.22323-0.25195 0.25195-0.32667 0.0817-0.67305 0-1.0098 0h-10.102c-0.4209 0-0.84486-0.0419-1.2637 0-0.42711 0.0427-0.83425 0.21501-1.2617 0.25391-0.50301 0.0457-1.0126-0.0457-1.5156 0-0.42748 0.0389-0.84137 0.17515-1.2637 0.25195-0.50379 0.0916-1.0116 0.15153-1.5137 0.25195-1.3232 0.26463-0.93887 0.36164-2.5254 0.50586-0.41917 0.0381-0.84487-0.0419-1.2637 0-0.53435 0.0534-1.711 0.36526-2.2734 0.50586-0.33671 0.0842-0.66617 0.20286-1.0098 0.25195-0.25 0.0355-0.50871-0.0415-0.75782 0-0.70563 0.11762-1.5658 0.6402-2.2715 0.75782-0.4982 0.083-1.0256-0.1225-1.5156 0-0.43978 0.10994-0.81915 0.41501-1.2637 0.5039-0.41272 0.0825-0.84339-0.0465-1.2617 0-3e-3 3.7e-4 -2.0052 0.50171-2.0215 0.50586-0.41901 0.0931-0.85452 0.11623-1.2617 0.25196-0.35715 0.11904-0.6526 0.38681-1.0098 0.50585-0.40719 0.13577-0.84465 0.15887-1.2637 0.25196-0.9513 0.21141-0.9239 0.22462-1.7676 0.50586-0.25254 0.0842-0.51312 0.14711-0.75781 0.25195-0.34602 0.14828-0.6478 0.40245-1.0098 0.50586-1.1519 0.32916-0.38345-0.42735-1.5156 0.25195-0.20415 0.12251-0.27804 0.43057-0.50391 0.50586-0.31942 0.10647-0.675 0-1.0117 0-0.25254 0.0842-0.51118 0.14711-0.75586 0.25196-3.0992 1.3282 0.76669-0.25835-1.7695 1.0098-0.70711 0.35355-1.5644 0.40428-2.2715 0.75781-1.2359 0.618-0.32411 0.3051-1.2637 1.0098-0.1506 0.11293-0.34248 0.15711-0.50391 0.25391-0.26026 0.15615-0.48633 0.36814-0.75781 0.5039-0.2381 0.11906-0.5197 0.13291-0.75781 0.25195-0.10647 0.0533-0.15287 0.18792-0.25195 0.25391-0.31323 0.20883-0.71057 0.27804-1.0117 0.50391-0.24643 0.18481-1.0284 1.147-1.2617 1.2637-0.1506 0.0753-0.34614-0.0532-0.50586 0-0.11293 0.0376-0.14987 0.19065-0.25196 0.25195-0.3228 0.19369-0.71579 0.27066-1.0098 0.50586-0.32866 0.26293-0.15803 0.94725-0.75781 1.0098-0.30117 0.22588-0.70862 0.27999-1.0098 0.50586-0.19047 0.14284-0.29288 0.39743-0.50586 0.5039-0.15059 0.0753-0.35528-0.0753-0.50586 0-0.21295 0.10648-0.31799 0.35714-0.5039 0.50586-0.23701 0.18959-0.5208 0.31433-0.75782 0.50391-0.18592 0.14874-0.31541 0.36299-0.50586 0.50586-0.15059 0.11297-0.35333 0.13902-0.5039 0.25195-0.19047 0.14288-0.31537 0.36303-0.50586 0.50586-0.64686 0.48505-0.63384 0.063-1.5156 0.50391-0.0305 0.0153-0.95046 0.96731-1.0098 1.0117-0.48562 0.36422-1.2402 0.31038-1.5156 1.0098-0.56001 0.44801 0.052 0.20189-0.75586 1.0098-0.1331 0.13311-0.37274 0.11884-0.50586 0.25195-1.2906 1.2906 1.0587-0.35066-0.75781 1.0117-0.1506 0.11293-0.37274 0.11884-0.50586 0.25195-0.13311 0.13309-0.13902 0.35333-0.25195 0.50391-0.14256 0.19009-1.0716 1.1211-1.2617 1.2637-0.30117 0.22589-0.71057 0.27999-1.0117 0.50586-0.19046 0.14285-0.29973 0.38141-0.5039 0.50391-0.22827 0.13697-0.52957 0.11498-0.75782 0.25195-0.20415 0.12249-0.28479 0.41745-0.50586 0.50586-0.23447 0.0938-0.52333-0.0938-0.75781 0-1.1903 0.47612 0.14479 0.52688-1.0098 0.75781-0.24764 0.0495-0.52333-0.0938-0.75782 0-0.22103 0.0884-0.31345 0.36299-0.5039 0.50586-0.1506 0.11293-0.35529 0.13902-0.50586 0.25195-0.19048 0.14285-0.29974 0.38141-0.50391 0.50391-0.22826 0.13693-0.51067 0.155-0.75781 0.25391-0.17475 0.0699-0.34444 0.15516-0.50586 0.25195-2.461 1.4766 0.0866-0.0645-1.0098 0.75781-0.2428 0.18211-0.50526 0.33752-0.75781 0.50586-0.16836 0.0842-0.35528 0.13902-0.50586 0.25195-0.0592 0.0444-0.97915 0.99465-1.0098 1.0098-0.31045 0.15526-0.72733 0.0502-1.0098 0.25195-0.3425 0.24464-0.46021 0.71412-0.75781 1.0117-0.1331 0.13312-0.34924 0.14753-0.50586 0.25195-0.3502 0.23347-0.65956 0.52436-1.0098 0.75782-0.40841 0.27227-0.86904 0.46331-1.2617 0.75781-0.28571 0.21429-0.47211 0.54351-0.75781 0.75781-0.39268 0.2945-0.871 0.46136-1.2637 0.75586-0.28572 0.21429-0.4672 0.55024-0.75781 0.75781-0.30634 0.21882-0.70344 0.28707-1.0098 0.50586-0.29062 0.20759-0.47892 0.53471-0.75781 0.75782-0.35288 0.2823-0.48729 0.3543-0.51758 0.33203-0.17002 0.22116-0.28776 0.38203-0.74414 0.92968-0.30485 0.36582-0.67305 0.67501-1.0098 1.0117-0.16834 0.16835-0.31537 0.36104-0.50585 0.50391-0.1506 0.11293-0.37275 0.11884-0.50586 0.25195-0.21463 0.21462-0.2669 0.56821-0.50391 0.75781-0.20786 0.16627-0.54484 0.0942-0.75781 0.25391-0.15062 0.11293-0.11884 0.37079-0.25196 0.50391-0.9474 0.94739-0.46655 0.15997-1.2637 0.75781-0.19047 0.14284-0.31342 0.36303-0.5039 0.50586-0.44132 0.331-0.75437 0.24924-1.2637 0.50391-0.27147 0.13574-0.47601 0.39311-0.75781 0.50586-0.1563 0.0625-0.34758-0.0625-0.5039 0-0.2818 0.11271-0.48633 0.37013-0.75782 0.50585-0.2381 0.11906-0.51067 0.15305-0.75781 0.25196-0.17474 0.0699-0.32728 0.19246-0.50586 0.25195-0.32927 0.10976-0.69931 0.0967-1.0098 0.25195-0.21295 0.10648-0.31538 0.363-0.50586 0.50586-0.1506 0.11297-0.35333 0.13902-0.50391 0.25196-0.19046 0.14285-0.30169 0.38336-0.50586 0.50586-0.22827 0.13693-0.5197 0.13289-0.75781 0.25195-1.1558 0.57787 1.0714-0.10389-0.75781 0.50586-0.0799 0.0264-0.16775 0-0.25196 0-0.25253 0.0842-0.50526 0.16774-0.75781 0.25195-0.10643 0.0532-0.13902 0.21416-0.25195 0.25195-0.31945 0.10647-0.6831-0.0817-1.0098 0-0.36522 0.0913-0.6465 0.41455-1.0117 0.50586-0.16332 0.0408-0.34055-0.0408-0.5039 0-0.18262 0.0457-0.33749 0.16775-0.50586 0.25196-0.16836 0-0.33784-0.0276-0.50391 0-0.34236 0.0571-0.675 0.1697-1.0117 0.2539-0.16836 0.0842-0.32128 0.20638-0.5039 0.25196-0.16333 0.0408-0.33752 0-0.50586 0h-2.5254c-0.25254 0-0.51283-0.0613-0.75782 0-0.1826 0.0457-0.32128 0.20625-0.5039 0.25195-0.16334 0.0408-0.33752 0-0.50586 0h-2.0195c-0.14095 0-1.1481 0.0385-1.2637 0-0.11293-0.0376-0.13902-0.21454-0.25195-0.25195-0.034-0.0113-0.2219-7e-3 -0.36523-8e-3 -1.5759 3.1544-0.65718 7.0686-0.29688 10.248-2.4219 2.6748 2.1084 7.8156-2.8242 7.832-2.2655 1.1076-3.6376 2.8017-6.2969 1.4062-5.5471-0.49068-10.326 4.4743-10.615 9.7129-6.2532 3.6609-8.6575 12.367-5.2031 18.715-3.0452 3.8499-0.92293 9.4187 2.6211 11.814-5.4982 3.3078-8.017 11.822-3.5195 17.215-1.3823 4.5459 1.8839 8.9218 4.6152 11.633-0.70855 4.672 1.9761 8.9671 5.8164 11.219 0.32197 2.0508 2.0881 3.5627 4.1641 3.5644 0.67663-7.1e-4 1.3432-0.16416 1.9434-0.47656 0.60836 0.28242 1.2707 0.42968 1.9414 0.43164 1.2914-2e-3 2.5235-0.54221 3.4004-1.4902 0.47479 0.38351 0.98172 0.72395 1.5234 1.0059-0.70911 1.0178-1.2952 2.1159-1.7461 3.2715-2.3153 0.81144-3.8663 2.9958-3.8691 5.4492 3e-3 2.0415 1.0823 3.9301 2.8398 4.9688-0.9097 1.0498-1.411 2.3921-1.4121 3.7812-1e-5 3.1929 2.5884 5.7813 5.7812 5.7813 0.73754-7.6e-4 1.4681-0.14263 2.1523-0.41797 0.82962 1.3148 2.2754 2.1126 3.8301 2.1133 0.50691-1e-3 1.01-0.0879 1.4883-0.25586 1.0614 2.1261 3.2331 3.4698 5.6094 3.4707 2.8224-2e-3 5.2956-1.8897 6.043-4.6113 0.38415 0.21355 0.81633 0.3258 1.2558 0.32618 1.4305 3.1e-4 2.5902-1.1594 2.5898-2.5898-2.2e-4 -0.488-0.13834-0.966-0.39844-1.3789 0.34716-0.35972 0.67697-0.73579 0.98828-1.127 0.91418 0.49637 1.8937 0.87169 2.9102 1.127-0.96773 1.3614-1.4885 2.9899-1.4902 4.6602 3e-3 3.1929 1.89 6.0831 4.8125 7.3691-0.0934 0.46292-0.14056 0.93399-0.14062 1.4062 3e-3 3.1824 2.1203 5.9753 5.1836 6.8379-0.087 0.24728-0.13187 0.5074-0.13281 0.76953-7.5e-4 1.295 1.0487 2.3454 2.3438 2.3457 0.95588-4e-5 1.816-0.58041 2.1738-1.4668 1.0996 0.94521 2.5012 1.4655 3.9512 1.4668 1.947-2e-3 3.7747-0.93876 4.9141-2.5176 1.0283 1.6073 2.8048 2.5798 4.7129 2.5801 2.8764-3e-5 5.2842-2.1807 5.5684-5.043 0.50437 0.11114 1.0187 0.17069 1.5352 0.17773 0.2623 1.0409 1.198 1.7707 2.2715 1.7715 1.295 7.5e-4 2.3454-1.0487 2.3457-2.3438-5.4e-4 -0.2788-0.0508-0.55526-0.14844-0.81641 2.0288-1.4232 3.2382-3.7445 3.2422-6.2227-2e-3 -0.24075-0.016-0.48125-0.041-0.7207 0.0104 7.4e-4 0.0208 1e-3 0.0312 2e-3 1.1492-7.7e-4 2.1284-0.83442 2.3125-1.9688 0.84628 0.54129 1.8294 0.82993 2.834 0.83204 1.3714-1.7e-4 2.689-0.53391 3.6738-1.4883 0.85909 0.80852 1.9322 1.3535 3.0918 1.5703-0.42094 0.64559-0.71707 1.3644-0.87305 2.1191-0.29559-0.12959-0.61475-0.19675-0.9375-0.19727-1.2943 3.4e-4 -2.3434 1.0495-2.3438 2.3438-7.4e-4 1.295 1.0487 2.3454 2.3438 2.3457 0.53178-3.5e-4 1.0476-0.18149 1.4629-0.51367 0.48242 0.96688 1.2105 1.79 2.1113 2.3867-0.0724 0.22869-0.1093 0.46715-0.10937 0.70703 3.4e-4 1.2943 1.0495 2.3434 2.3438 2.3438 0.87681-5.3e-4 1.68-0.4903 2.082-1.2695 0.56089 1.2865 1.4384 2.4099 2.5508 3.2656-0.10327 0.26666-0.15689 0.54997-0.1582 0.83593-7.5e-4 1.295 1.0487 2.3454 2.3438 2.3457 0.59722-1e-3 1.1714-0.23039 1.6055-0.64063 0.43618 0.63678 1.1578 1.0181 1.9297 1.0195 1.2958 7.5e-4 2.3464-1.0499 2.3457-2.3457-5e-4 -0.0163-1e-3 -0.0325-2e-3 -0.0488 1.1287-0.4411 2.1473-1.1237 2.9844-2 1.071 0.83815 2.3727 1.3288 3.7305 1.4062 0.42752 0.37792 0.97821 0.58695 1.5488 0.58789 0.65095-1e-3 1.2722-0.27276 1.7148-0.75 0.41153 0.32202 0.91885 0.49731 1.4414 0.49805 1.295 7.5e-4 2.3454-1.0487 2.3457-2.3438-1e-3 -0.39963-0.10494-0.79226-0.30078-1.1406 0.51012-0.44427 0.80347-1.0872 0.80468-1.7637-1.3e-4 -0.53426-0.18273-1.0524-0.51757-1.4688 6e-3 -0.0891 0.0109-0.1783 0.0137-0.26757-2e-3 -0.34611-0.0305-0.69156-0.0859-1.0332 4.1707-0.7162 7.219-4.3327 7.2188-8.5644-2e-3 -1.6144-0.45385-3.1963-1.3047-4.5684 0.3555 0.20619 0.75895 0.31531 1.1699 0.31641 1.295 7.5e-4 2.3454-1.0487 2.3457-2.3438 7.5e-4 -1.2958-1.0499-2.3465-2.3457-2.3457-0.0822 8.8e-4 -0.16439 6e-3 -0.24609 0.0156 0.20745-0.78539 0.31442-1.5939 0.31836-2.4062-5e-3 -4.8028-3.557-8.8636-8.3164-9.5078 1.8207-0.74134 3.0119-2.5107 3.0137-4.4766-2e-3 -1.389-0.60114-2.7101-1.6445-3.627 0.0897-0.94317 0.10404-1.8832 0.0274-2.8027 1.7192-1.3613 1.4987-4.4331 3.3106-4.5625 0.0412 0.81402 0.17224 1.621 0.39062 2.4063-1.0319 0.64757-1.6589 1.7798-1.6602 2.998-5.5e-4 1.958 1.5869 3.5455 3.5449 3.5449 0.76101-2e-3 1.5013-0.24814 2.1113-0.70312 1.9177 1.4544 4.2572 2.2443 6.6641 2.25 0.0365-1e-3 0.0729-2e-3 0.10937-4e-3 0.15933 1.6557 1.5495 2.92 3.2129 2.9219 0.28706-5e-4 0.57278-0.0393 0.84961-0.11524 1.2696 1.6472 3.2308 2.6131 5.3106 2.6152 1.4028-3e-3 2.7695-0.44449 3.9082-1.2637 0.84802 0.80907 1.9744 1.2614 3.1465 1.2637 2.5248-2.2e-4 4.5712-2.0475 4.5703-4.5723-2e-3 -0.31386-0.0357-0.62671-0.10156-0.93359 0.60975 0.5532 1.4033 0.86016 2.2266 0.86133 1.8344 8.6e-4 3.322-1.4859 3.3223-3.3203-2e-3 -1.5161-1.0309-2.8382-2.5-3.2129 0.32208-0.51228 0.61361-1.0432 0.87305-1.5898 3.5482-0.75707 6.0857-3.8895 6.0898-7.5176-3e-3 -1.0421-0.21764-2.0727-0.63085-3.0293 0.40753-0.50882 0.62998-1.1411 0.63085-1.793 4e-4 -1.5872-1.2858-2.8743-2.873-2.875-0.17833 1e-3 -0.35619 0.0187-0.53125 0.0527 0.0214-0.13962 0.0325-0.28063 0.0332-0.42188 4e-4 -1.5872-1.2858-2.8743-2.873-2.875-0.60497 1e-3 -1.1941 0.19327-1.6836 0.54883 8e-3 -0.0557 0.0115-0.11178 0.0117-0.16797-2.2e-4 -0.16841-0.0341-0.33508-0.0996-0.49023 1.4082-0.53602 2.3391-1.8858 2.3398-3.3926-2e-3 -0.86401-0.31111-1.6992-0.87304-2.3555 0.99021-0.4406 1.629-1.422 1.6309-2.5059-8.4e-4 -1.4996-1.2038-2.7216-2.7031-2.7461-0.11457-0.196-0.22551-0.39389-0.35937-0.57813 7e-3 -7e-3 0.011-0.0147 0.0176-0.0215 0.2438 0.10442 0.50627 0.15824 0.77149 0.1582 1.082 9e-5 1.9591-0.87703 1.959-1.959-8.3e-4 -0.16752-0.0231-0.33425-0.0664-0.49609 1.0191-0.61692 1.6425-1.7208 1.6445-2.9121-2e-3 -0.70417-0.22148-1.3905-0.62891-1.9648 0.28401-0.34492 0.43935-0.77781 0.43945-1.2246-1e-3 -1.0015-0.76955-1.835-1.7676-1.918-0.36559-0.44456-0.91075-0.70245-1.4863-0.70312-0.0883 1e-3 -0.17638 8e-3 -0.26367 0.0215 1.4251-2.4504 0.51093-5.0512-1.0098-7.0644 0.69703-0.4618 1.1164-1.242 1.1172-2.0781-8.7e-4 -0.43614-0.11602-0.86443-0.33399-1.2422 0.0792 8e-3 0.15868 0.0129 0.23828 0.0137 1.3787 3.5e-4 2.4964-1.1174 2.4961-2.4961-1e-3 -0.88536-0.47193-1.7037-1.2363-2.1504 0.19454-1.0646 0.24088-2.1408 0.12109-3.1113 1.5586-0.82555 1.2356-5.4966 2.6992-2.4004-0.0274 0.5752 0.0269 1.1167 0.13086 1.6348-0.69756 0.75615-1.0858 1.7466-1.0879 2.7754 8e-4 2.244 1.8032 4.0715 4.0469 4.1035 0.55776 0.48889 1.2739 0.75884 2.0156 0.75976 1.0298-7.4e-4 1.9903-0.51879 2.5566-1.3789 0.62889 0.10622 1.2511 0.16025 1.8457 0.14844 1.2357 1.9422 3.9312 1.5776 4.709 3.3418-0.1319-0.0198-0.26505-0.0303-0.39844-0.0312-1.5521 3.3e-4 -2.8102 1.2585-2.8105 2.8106 1e-3 1.2692 0.85288 2.38 2.0781 2.7109-0.0725 0.43974-0.13292 0.88239-0.15234 1.3262-0.59252 0.77075-0.91447 1.7153-0.91602 2.6875 2e-3 2.0754 1.4473 3.8701 3.4746 4.3144-0.24628 0.31967-0.38016 0.7117-0.38086 1.1152 2e-4 0.47339 0.18358 0.92833 0.51172 1.2695-0.92711 0.83673-1.4571 2.0265-1.459 3.2754 2e-3 0.90278 0.27983 1.7834 0.79687 2.5234-0.27342 0.52755-0.41673 1.1128-0.41797 1.707 2e-3 1.0462 0.44344 2.0434 1.2168 2.748-1.1944 1.0816-1.8767 2.6172-1.8789 4.2285 5.7e-4 0.0189 1e-3 0.0377 2e-3 0.0566-1.1698 0.39204-1.959 1.4869-1.9609 2.7207-4e-4 1.588 1.287 2.8754 2.875 2.875 0.49131-1e-3 0.97413-0.12826 1.4023-0.36914-0.68242 0.82156-1.0562 1.8558-1.0566 2.9238 2e-3 2.42 1.8871 4.4204 4.3027 4.5664-0.9997 0.57318-1.6171 1.6367-1.6191 2.7891 4.5e-4 1.7786 1.4421 3.2202 3.2207 3.2207 0.22659-9.7e-4 0.45245-0.0258 0.67383-0.0742 0.10335 0.24749 0.20388 0.47871 0.29101 0.66211-1.245-0.20087-2.2577 0.0629-3.1641 0.54102-0.40838-0.12083-0.83193-0.18265-1.2578-0.1836-1.8785 2e-3 -3.555 1.1793-4.1953 2.9453-0.14877-0.0489-0.30434-0.0739-0.46093-0.0742-0.82035 5.2e-4 -1.4849 0.66598-1.4844 1.4863 5e-4 0.1118 0.0136 0.22318 0.0391 0.33203-1.3143 0.14171-2.311 1.2504-2.3125 2.5723 2e-3 0.54326 0.17497 1.0721 0.49414 1.5117-0.16567 0.56762-0.34033 1.0853-0.58593 1.4844-1.412 0.59198-2.5165 1.4954-3.3574 2.5762-0.43265-0.2997-0.94634-0.46048-1.4727-0.46094-1.4303 1.8e-4 -2.5897 1.1596-2.5898 2.5898 4.3e-4 0.84502 0.41304 1.6367 1.1055 2.1211-0.48131 0.6641-0.74101 1.463-0.74218 2.2832 2e-3 1.6217 1.0078 3.0729 2.5254 3.6445 0.25168 0.62939 0.5677 1.2238 0.93554 1.7832-7e-3 -4e-5 -0.013-4e-5 -0.0195 0-0.87266-3e-5 -1.5801 0.70741-1.5801 1.5801-7e-5 0.46625 0.2058 0.90873 0.5625 1.209-1.6072 0.10719-2.9913 1.1728-3.5059 2.6992-1.7579 0.30146-3.1004 1.7358-3.2852 3.5098-0.53621 6e-3 -0.96785 0.44227-0.96875 0.97852 4.7e-4 0.1761 0.0484 0.34881 0.13867 0.5-0.68401 0.1313-1.1788 0.72929-1.1797 1.4258 0 0.50628 0.2634 0.9761 0.69532 1.2402 0.0103 0.81772 0.30363 1.6066 0.83007 2.2324-0.65264 0.39423-1.0518 1.1008-1.0527 1.8633 1e-3 0.22972 0.0388 0.45779 0.11133 0.67578-0.26736 0.19635-0.42543 0.50813-0.42578 0.83984 2.2e-4 0.57592 0.46705 1.0428 1.043 1.043 0.34713-1.5e-4 0.67145-0.17293 0.86523-0.46094 0.17689 0.0495 0.35933 0.0764 0.54297 0.0801 0.03 0.14169 0.0619 0.28298 0.0957 0.42383-0.20044 0.35172-0.3061 0.74947-0.30664 1.1543v8e-3c-0.1201-0.0472-0.24791-0.0717-0.37695-0.0723-0.57592 2.2e-4 -1.0428 0.46705-1.043 1.043 3e-5 0.15985 0.0368 0.31755 0.10742 0.46094-0.35018-0.19878-0.74577-0.30373-1.1484-0.30469-0.67497 9.7e-4 -1.3166 0.29365-1.7598 0.80274-0.60481-0.55536-1.3957-0.86405-2.2168-0.86524-0.73835-3.9e-4 -1.4553 0.248-2.0352 0.70508-0.28921-0.289-0.68099-0.45189-1.0898-0.45312-0.85548-2.1e-4 -1.549 0.69334-1.5488 1.5488 1e-5 0.13519 0.0177 0.2698 0.0527 0.40039-0.53921 0.37726-1.0135 0.83968-1.4043 1.3692-0.37132-0.64512-1.0584-1.0434-1.8027-1.0449-0.39952-2.1e-4 -0.79069 0.11436-1.127 0.33008-0.0428-0.0162-0.0857-0.0318-0.1289-0.0469-0.61174-0.56639-1.4144-0.88158-2.248-0.88282-1.3142 8.3e-4 -2.5039 0.77762-3.0332 1.9805-0.10752 0.096-0.21112 0.19638-0.31055 0.30078-0.61498-1.4499-2.0364-2.3924-3.6113-2.3945-0.0293 1e-3 -0.0586 2e-3 -0.0879 4e-3 -0.40195-0.37501-0.93075-0.58429-1.4805-0.58594-1.2038 6e-5 -2.1796 0.97591-2.1797 2.1797-6.2e-4 0.26486 0.047 0.52762 0.14062 0.77539-0.21212 0.49089-0.32178 1.0199-0.32227 1.5547 8.6e-4 1.8353 1.2723 3.4255 3.0625 3.8301 0.18202 0.87999 0.95686 1.5113 1.8555 1.5117 0.46647-4.8e-4 0.9164-0.17293 1.2637-0.48437 0.0451 1.3615 1.1612 2.4422 2.5234 2.4434 0.1982-2e-3 0.39551-0.0265 0.58789-0.0742 0.37434 1.1007 1.4077 1.8412 2.5703 1.8418 1.4507-2e-3 2.6435-1.1445 2.709-2.5938 0.28007-0.20357 0.53975-0.43381 0.77539-0.6875-9e-3 0.0719-0.0137 0.14431-0.0137 0.21679-2.4e-4 0.95937 0.77696 1.7374 1.7363 1.7383 0.59367-4.2e-4 1.1461-0.30386 1.4648-0.80469 0.68815 0.31637 1.4294 0.50119 2.1856 0.54492 0.79733 0.96297 1.9822 1.5207 3.2324 1.5215 0.60583-2e-3 1.2042-0.13414 1.7539-0.38867 0.16145 0.38781 0.41164 0.73233 0.73046 1.0059-1.604 0.57615-2.6743 2.0964-2.6758 3.8008 9.8e-4 1.6089 0.95598 3.064 2.4316 3.7051-0.22797 0.41189-0.3476 0.87493-0.34765 1.3457 1.5e-4 1.5349 1.2444 2.7791 2.7793 2.7793 0.0894-2.6e-4 0.17866-5e-3 0.26758-0.0137-0.21067 0.51386-0.31946 1.0638-0.32031 1.6191 2e-3 2.0003 1.3871 3.7334 3.3379 4.1758 0.3079 0.84927 1.1142 1.4152 2.0176 1.416 1.1866 1.2e-4 2.1486-0.96184 2.1484-2.1484-3.5e-4 -0.18259-0.024-0.3644-0.0703-0.54102 0.61288-0.66475 0.99983-1.5063 1.1055-2.4043 0.7334-0.50598 1.172-1.3395 1.1738-2.2305-7e-4 -0.85824-0.40695-1.6657-1.0957-2.1777 0.34-0.29548 0.65128-0.62245 0.92969-0.97656 0.15689 0.041 0.31832 0.062 0.48046 0.0625 1.0648 2.7e-4 1.928-0.86296 1.9277-1.9277-7.4e-4 -0.68022-0.36-1.3097-0.94531-1.6562 0.0388-0.29076 0.0597-0.58363 0.0625-0.87696-1e-3 -0.0326-2e-3 -0.0651-4e-3 -0.0977 0.41266-0.1692 0.74946-0.48308 0.94726-0.88282 0.0734 6e-3 0.14703 0.0104 0.22071 0.0117 1.7621 8e-4 3.1911-1.4273 3.1914-3.1894-1.4e-4 -0.50309-0.11926-0.99901-0.34765-1.4473 0.31059-0.41153 0.59001-0.84568 0.83594-1.2988 0.57046 0.33031 1.2178 0.50477 1.877 0.50586 1.1828-2e-3 2.2957-0.56051 3.0039-1.5078 0.51455 0.30455 1.1013 0.46573 1.6992 0.4668 1.7281 4.3e-4 3.1726-1.3146 3.334-3.0352 0.75418-0.0385 1.4383-0.45403 1.8203-1.1055 0.15395 0.0224 0.30927 0.0341 0.46484 0.0351 1.866-2.4e-4 3.3787-1.5129 3.3789-3.3789-1e-3 -0.23509-0.0265-0.46942-0.0762-0.69921 2.2774-0.28113 3.9886-2.215 3.9902-4.5098-3.7e-4 -0.24537-0.0206-0.49031-0.0605-0.73242 0.53551-0.0976 1.0607-0.25361 1.5742-0.44141 0.2714 0.10896 0.56105 0.1653 0.85351 0.16602 1.1732-2.2e-4 2.1592-0.88116 2.291-2.0469 0.7115-0.64006 1.3255-1.3836 1.7949-2.2246 0.32367 0.27091 0.73221 0.41954 1.1543 0.41993 0.9945-1.1e-4 1.8007-0.80629 1.8008-1.8008-1.4e-4 -0.0378-1e-3 -0.0756-4e-3 -0.11328 1.1542-0.14253 2.0217-1.1222 2.0234-2.2852-2.4e-4 -0.14752-0.0146-0.29469-0.043-0.43946 0.74095-0.68416 1.4512-1.2693 2.1523-1.5078 1.0073 0.88967 2.1458 1.4735 3.3379 1.8184-0.40377 0.98707-0.66739 2.0258-0.7832 3.0859-0.90617 0.92028-1.4147 2.1596-1.416 3.4512 2e-3 1.4255 0.62066 2.7805 1.6973 3.7148-0.0771 0.292-0.1171 0.59254-0.11914 0.89453 3.9e-4 1.9886 1.613 3.6003 3.6016 3.5996 0.6665-9.5e-4 1.3196-0.18689 1.8867-0.53711 0.88436 0.50894 1.8329 0.89716 2.8203 1.1543-0.12065 0.19351-0.23147 0.39299-0.33203 0.59766-0.19139-0.0536-0.38913-0.0812-0.58789-0.082-1.221 2.3e-4 -2.2107 0.98996-2.2109 2.2109 2.3e-4 1.221 0.98997 2.2107 2.2109 2.2109 6e-3 2e-5 0.0117 2e-5 0.0176 0 0.2343 1.1593 0.76754 2.2373 1.5469 3.127-0.0434 0.0306-0.0864 0.0618-0.1289 0.0937-1.5551 0.0429-2.7938 1.3154-2.7949 2.8711 2e-3 0.59282 0.18648 1.1706 0.52929 1.6543 0.0324 1.0582 0.37768 2.0832 0.99219 2.9453-0.22946 0.0996-0.44485 0.22901-0.64062 0.38476-0.35371-0.26416-0.78314-0.4073-1.2246-0.4082-1.1343-6.4e-4 -2.0542 0.91845-2.0547 2.0527 4.3e-4 1.1343 0.92041 2.0534 2.0547 2.0527 0.17604-3.5e-4 0.3513-0.0233 0.52148-0.0684 0.50555 0.89929 1.4566 1.4562 2.4883 1.457 0.45534-3.3e-4 0.904-0.10948 1.3086-0.31836 0.20156 0.20447 0.47655 0.31981 0.76367 0.32031 0.59387-4e-4 1.0749-0.4823 1.0742-1.0762-8.4e-4 -0.34327-0.16559-0.6655-0.44336-0.86719 0.10105-0.29488 0.15317-0.6043 0.15429-0.91601-2e-3 -0.0966-8e-3 -0.1931-0.0195-0.28906 0.58804 0.59963 1.3926 0.93749 2.2324 0.9375 1.727 8e-5 3.127-1.4 3.127-3.127-1e-3 -0.31954-0.0512-0.63703-0.14844-0.9414 0.25425-0.53314 0.41857-1.1046 0.48633-1.6914 0.54713-0.48502 0.86062-1.181 0.86133-1.9121-1e-3 -0.64232-0.2437-1.2607-0.67969-1.7324 1.4958-0.85138 2.6121-2.2393 3.123-3.8828 0.27847 0.10206 0.57256 0.15493 0.86914 0.15625 1.4131-1e-5 2.5586-1.1455 2.5586-2.5586-1.6e-4 -1.0976-0.70032-2.0728-1.7402-2.4238 0.18904-0.36316 0.28817-0.76638 0.28906-1.1758-1e-3 -0.61265-0.22237-1.2045-0.62305-1.668 2.2322-0.61533 3.7788-2.6455 3.7793-4.9609-1e-3 -1.8524-0.99776-3.5613-2.6094-4.4746 0.17883-0.35508 0.27245-0.74696 0.27344-1.1445-1e-3 -0.96159-0.54138-1.8413-1.3984-2.2774-1.0643-2.9461-3.2912-5.3263-6.1602-6.584 1.2347-0.89635 2.3555-1.5156 3.4082 0.17187 0.63587 0.68659 1.3735 1.0778 2.1543 1.3262 0.36587 1.6631 1.8381 2.8487 3.541 2.8516 0.28229-1e-3 0.56349-0.0353 0.83789-0.10156 0.57895 2.0747 2.4691 3.5097 4.623 3.5098 1.2656 5e-5 2.48-0.49975 3.3789-1.3906 2.5426 0.46565 5.2497 0.0441 7.5273-1.1777 0.68012 0.5069 1.5053 0.7815 2.3535 0.78321 1.2095-2e-3 2.3516-0.55734 3.0996-1.5078 1.1287-0.33829 2.0475-1.1626 2.5058-2.248 0.0364 3e-3 0.0729 5e-3 0.10938 6e-3 0.65981-1e-3 1.2948-0.27329 1.7773-0.76172 0.57546 0.20589 1.1818 0.31223 1.793 0.31445 2.5153-1e-3 4.694-1.7453 5.2461-4.1992 0.7567-0.54006 1.2062-1.4122 1.207-2.3418-1e-3 -0.23791-0.0322-0.47474-0.0918-0.70507 0.85799-0.1004 1.5083-0.82177 1.5195-1.6856 3.265-2.617 4.3017-7.7557 1.873-11.311 2.9677-4.6339 0.53792-10.631-2.3086-14.1 0.8603-1.9337 0.86054-3.9479 0.30274-5.8144 1.5479-4.7559 2.3407-9.7251 2.3496-14.727-0.0175-3.7974-0.48698-7.5792-1.3984-11.266 2.3234-2.0656 6.1117-2.2158 7.6816-5.5586 3.358-4.6582 0.72037-11.127-2.9922-14.111 1.7718-4.0908-1.1094-8.2434-3.4316-10.939 0.26797-8.336-9.2025-14.831-16.869-11.514-1.3442-3.1591-6.8929-3.0989-5.5137-7.0469-0.25739-2.677-2.5206-4.5091-0.54102-7.0625-0.33521-2.7588 0.85834-3.273 3.2891-3.6426 1.9808-0.7508 3.4198-2.1496 4.3359-3.8438-0.0552-0.0352-0.10494-0.0811-0.16601-0.10547-0.15625-0.0625-0.36369 0.0934-0.50391 0-0.15647-0.10441-0.12086-0.37079-0.2539-0.5039-0.13319-0.13312-0.33572-0.1697-0.50391-0.25391-1.831-0.91553 0.3991 0.26738-0.75781-0.50391-0.0471-0.0314-0.99465-0.4896-1.0098-0.50585-0.0593-0.0595 0.0378-0.17667 0-0.25196-0.1934-0.38678-0.45016-0.19828-0.75781-0.50586-0.13304-0.13309-0.11891-0.37079-0.25195-0.5039-0.0593-0.0595-0.1787 0.0374-0.25391 0-0.27145-0.13574-0.4974-0.34969-0.75781-0.50586-0.1615-0.0968-0.34744-0.14753-0.50391-0.25196-0.1982-0.13206-0.30781-0.3738-0.50586-0.50585-0.15662-0.10443-0.34743-0.14753-0.5039-0.25196-0.22987-0.15326-0.53407-0.6459-0.75782-0.75781-0.0752-0.0374-0.18398 0.0467-0.2539 0-0.28237-0.18824-0.735-0.73488-1.0098-1.0098-0.0843-0.0842-0.15293-0.18791-0.25195-0.2539-0.15662-0.10443-0.32747-0.19247-0.50586-0.25196-0.0797-0.0264-0.19262 0.0595-0.25195 0-0.13304-0.13308-0.11892-0.37274-0.25196-0.50586-0.0593-0.0595-0.18203 0.0467-0.25195 0-0.19816-0.13207-0.30781-0.37184-0.50586-0.5039-0.0699-0.0467-0.19261 0.0595-0.25195 0-0.13304-0.1331-0.12087-0.37275-0.25391-0.50586-0.18822-0.18822-0.74074 0.45913-0.75586-0.25195-0.0593-0.0595 0.0752-0.21454 0-0.25196-0.15054-0.0753-0.34598 0.0532-0.50586 0-0.22579-0.0753-0.30781-0.3738-0.50586-0.50586-0.15658-0.10442-0.37086-0.11883-0.5039-0.25195-0.13304-0.13309-0.11892-0.37274-0.25196-0.50586-0.13319-0.13311-0.34938-0.14752-0.50586-0.25195-0.099-0.0661-0.14537-0.19874-0.25195-0.25195-0.0752-0.0374-0.18398 0.0467-0.25391 0-0.19816-0.13207-0.33571-0.33752-0.5039-0.50586-0.33672-0.33672-0.67301-0.67305-1.0098-1.0098-0.0843-0.0842-0.15488-0.18792-0.2539-0.25391-0.15663-0.10439-0.34744-0.14752-0.50391-0.25195-0.19816-0.13208-0.29307-0.39744-0.50586-0.50391-0.0752-0.0374-0.19261 0.0595-0.25195 0-0.13304-0.1331-0.11892-0.37274-0.25195-0.50586-0.13316-0.13307-0.34939-0.14752-0.50586-0.25195-0.32149-0.21434-0.69871-0.77833-1.0098-1.0117-0.15058-0.11297-0.34939-0.14752-0.50586-0.25195-0.29136-0.19426-0.46641-0.56354-0.75781-0.75781-0.15659-0.10443-0.33572-0.16775-0.50391-0.25196-0.0843-0.0842-0.15488-0.18596-0.2539-0.25195-0.15659-0.10443-0.37087-0.12079-0.50391-0.2539-0.0597-0.0595 0.0593-0.19247 0-0.25196-0.13319-0.13311-0.34939-0.14752-0.50586-0.25195-0.22987-0.15326-0.53406-0.6459-0.75781-0.75781-0.0752-0.0378-0.17674 0.0374-0.25196 0-0.1062-0.0533-0.15293-0.18597-0.25195-0.25196-0.15658-0.10443-0.37282-0.12079-0.50586-0.2539-0.13304-0.1331-0.11891-0.37079-0.25195-0.50391-0.0593-0.0595-0.17221 0.0265-0.25195 0-0.17855-0.0595-0.34939-0.14948-0.50586-0.25391-0.22991-0.15326-0.53407-0.6459-0.75782-0.75781-0.0752-0.0378-0.16767 0-0.25195 0-0.16834-0.16836-0.33729-0.33556-0.50586-0.5039-0.22148-0.14763-0.66786 0.3684-0.75781-0.25196-0.0593-0.0595 0.0597-0.19441 0-0.2539-0.0593-0.0595-0.16767 0-0.25195 0 0-0.0842 0.0593-0.19247 0-0.25196-0.13319-0.13311-0.37087-0.11884-0.50391-0.25195-0.0593-0.0595 0.0593-0.19442 0-0.25391-0.13315-0.13307-0.32747-0.19246-0.50586-0.25195-0.0797-0.0265-0.19261 0.0595-0.25195 0-0.13304-0.1331-0.12087-0.37274-0.25391-0.50586-0.0593-0.0595-0.17674 0.0374-0.25195 0-1.1557-0.57787 1.0714 0.10585-0.75781-0.5039-0.0797-0.0265-0.17675 0.0374-0.25196 0-0.10658-0.0532-0.14537-0.19874-0.25195-0.25196-0.0752-0.0378-0.19457 0.0595-0.25391 0-0.0593-0.0595 0.0593-0.19441 0-0.2539-0.13315-0.13312-0.34743-0.14753-0.5039-0.25196-0.1982-0.13207-0.27985-0.43057-0.50586-0.50586-0.15961-0.0532-0.36369 0.0934-0.50391 0-0.15647-0.10441-0.12087-0.37079-0.25391-0.5039-0.0593-0.0595-0.1722 0.0264-0.25195 0-0.17851-0.0595-0.33572-0.1697-0.50391-0.25391-0.16834-0.0842-0.35543-0.13902-0.50585-0.25195-0.19061-0.14285-0.31538-0.36104-0.50586-0.50391-0.39013-0.29258-1.0931-0.47745-1.5137-0.75781-0.099-0.066-0.15488-0.18792-0.2539-0.25391-0.15659-0.10443-0.35348-0.13902-0.50391-0.25195-0.1906-0.14284-0.30176-0.38337-0.50586-0.50586-0.22828-0.13697-0.5197-0.1329-0.75781-0.25195-0.27145-0.13574-0.47586-0.3912-0.75781-0.50391-0.15621-0.0625-0.34781 0.0625-0.50391 0-0.88286-0.35314-0.60112-0.51482-1.2637-1.0117-0.15054-0.11293-0.34252-0.15516-0.50391-0.25195-0.26029-0.15614-0.4974-0.34973-0.75781-0.50586-0.36601-0.21962-1.1206-0.59784-1.5156-0.75586-0.24715-0.0989-0.51971-0.13485-0.75782-0.25391-0.58144-0.29065 0.10934-0.29643-0.50586-0.75781-0.21293-0.15976-0.51063-0.15304-0.75781-0.25195-0.87333-0.3493-0.17524-0.13194-1.0098-0.75781-0.50336-0.37751-0.788-0.16569-1.2617-0.75782-0.1663-0.20786-0.0637-0.56959-0.25196-0.75781-0.18825-0.18826-0.5197-0.1329-0.75781-0.25195-0.10658-0.0533-0.15488-0.18597-0.2539-0.25196-0.15663-0.10442-0.34253-0.15699-0.50391-0.2539-0.52052-0.31231-0.9727-0.73828-1.5156-1.0098-0.23811-0.11905-0.5197-0.1329-0.75781-0.25195-0.27148-0.13574-0.50534-0.33752-0.75781-0.50586-0.25251-0.16836-0.52462-0.3096-0.75781-0.50391-0.45729-0.38106-0.8408-0.84277-1.2617-1.2637-0.1683-0.16836-0.363-0.31342-0.50586-0.5039-0.11301-0.15059-0.13895-0.35529-0.25195-0.50586-0.21427-0.28572-0.55977-0.46067-0.75782-0.75782-0.10431-0.15663-0.11891-0.37083-0.25195-0.5039-0.0593-0.0595-0.18399 0.0467-0.25391 0-0.29714-0.19811-0.50338-0.50527-0.75586-0.75781-0.33671-0.33673-0.67496-0.67501-1.0117-1.0117-0.0843-0.0842-0.18052-0.15675-0.25195-0.25196-0.18194-0.24281-0.34976-0.49755-0.50586-0.75781-0.0967-0.16141-0.11891-0.37079-0.25195-0.50391-0.13315-0.13311-0.41962-0.0855-0.50391-0.2539-0.113-0.22588 0.11301-0.53195 0-0.75781-0.0842-0.16834-0.37282-0.11884-0.50586-0.25196-0.13304-0.1331-0.14763-0.34728-0.25195-0.5039-0.0658-0.0991-0.20061-0.14744-0.25391-0.25391-0.13492-0.27033 0.21928-0.53855-0.25195-1.0098-0.13315-0.13311-0.33572-0.16774-0.5039-0.25195 0-0.16835 0.10091-0.37119 0-0.50586-0.18214-0.24282-0.60172-0.24365-0.75782-0.5039-0.13001-0.21655 0.0416-0.50871 0-0.75782-0.0438-0.26258-0.16962-0.50526-0.2539-0.75781-0.16834-0.50507-0.37465-0.99911-0.50391-1.5156-0.10394-0.41641-0.11627-0.85647-0.25195-1.2637-0.11902-0.35714-0.38681-0.65263-0.50586-1.0098-0.13569-0.4072-0.15898-0.84271-0.25196-1.2617-0.0752-0.33882-0.21082-0.66538-0.2539-1.0098-0.0419-0.33412 0-0.675 0-1.0117v-1.5137c0-0.48904-0.0152-0.97939-0.0234-1.4688-4.4946-1.756-9.9794-0.84676-13.484 2.5566-1.267-2.6674-2.7864-5.117-4.1836-7.6504-0.13916 0.0781-0.33004-0.0358-0.49023-4e-3zm-54.268 79.381c1.1078 2.5796 4.5756 4.7177 4.9707 6.9707-2.4623 2.2507-1.4039 8.0574-5.7188 7.3125-2.1004-0.0747-5.568 1.9002-6.5879 1.0801 0.59117-3.4029-0.50625-7.2789-0.0801-10.375 2.7215-1.0221 5.4693-4.1053 7.416-4.9883zm76.764 4.584c0.0562-0.0155 0.12229-0.016 0.20117 0 0.18032 0.0366 0.42357 0.16003 0.74414 0.39063-0.24642 3.0017 1.5284 6.8672 1.4297 9.1328-3.7145 1.3123-1.4442-2.536-1.9629-4.5762 0.30942-1.1337-1.2552-4.7152-0.41211-4.9473zm-38.861 8.2031c0.0874 9.7e-4 0.13178 0.0764 0.10352 0.27929 0.70031 2.8592-1.9777 1.6727-1.2441 0.3125 0.22989 0.0745 0.87844-0.59472 1.1406-0.59179zm-63.092 21.857c5.0104 6.0827-6.2353 2.137 0 0zm-21.348 80.74c0.0588 0.0164 0.11679 0.035 0.17578 0.0508-0.0246 0.0216-0.0487 0.0438-0.0723 0.0664-0.0341-0.0394-0.0686-0.0785-0.10352-0.11719z" fill="#f3a80d"/></g><g transform="translate(49.256,31.65)" fill="#fff"><path d="m66.951 49.642a3.2072 3.2072 0 0 0-3.2039 3.1311 4.1427 4.1427 0 0 0-1.8076 3.4168 4.1427 4.1427 0 0 0 4.1429 4.1429 4.1427 4.1427 0 0 0 4.1424-4.1429 4.1427 4.1427 0 0 0-0.43718-1.849 3.2072 3.2072 0 0 0 0.37052-1.4919 3.2072 3.2072 0 0 0-3.207-3.207z"/><circle cx="81.985" cy="40.288" r="4.4768"/><circle cx="130.63" cy="59.397" r="5.4122"/><circle cx="132.78" cy="72.577" r="3.7919"/></g><g transform="translate(49.256,31.65)"><path transform="scale(.26458)" d="m417.08 130.88c-10.168 2.9946-25.085 4.7213-40.797 4.7226-14.676-3e-3 -28.705-1.5117-38.805-4.1738-0.25342 0.81395-0.38377 1.6612-0.38672 2.5137 3e-3 1.4546 0.3767 2.8844 1.0859 4.1543-1.1102 1.3575-1.7174 3.0569-1.7188 4.8106 3e-3 1.5934 0.5068 3.1456 1.4394 4.4375-0.017 0.0644-0.0293 0.12947-0.0488 0.19336-0.93907 0.20486-1.797 0.68173-2.4668 1.3711-0.86066-2.9946-3.599-5.0583-6.7148-5.0605-0.9532 3e-3 -1.8957 0.20126-2.7695 0.58203-1.8883-2.0727-4.5613-3.2557-7.3652-3.2598-4.0157 2.9e-4 -7.6403 2.4067-9.1992 6.1074-0.25132-0.023-0.5035-0.0354-0.75586-0.0371-4.6791 4e-3 -8.5662 3.6098-8.9219 8.2754-1.8426-2.8223-4.985-4.5242-8.3555-4.5254-4.4191 2e-3 -8.3108 2.9095-9.5664 7.1465-0.0421 0.0283-0.0851 0.0553-0.12695 0.084-0.98872-0.41046-2.0486-0.62217-3.1191-0.62304-4.5024 1.1e-4 -8.1522 3.65-8.1524 8.1523 1e-3 1.5367 0.43641 3.0418 1.2559 4.3418-2.9841 0.36319-5.6389 2.0693-7.209 4.6328-1.7374 1.3484-3.2111 3.0457-4.3438 4.9492-3.2316 1.7028-5.2554 5.0542-5.2578 8.707 3e-3 2.6392 1.0659 5.1667 2.9492 7.0156-0.0467 0.0678-0.0875 0.13858-0.13282 0.20704-2.0186 1.6107-3.1945 4.0524-3.1953 6.6348 3e-3 1.2549 0.28355 2.4936 0.82227 3.627 0.0582 0.63789 0.15559 1.2708 0.27734 1.8965-0.75074 0.89321-1.1623 2.0226-1.1621 3.1894 6.9e-4 1.4414 0.62884 2.811 1.7207 3.752-1.2364 0.37832-2.2271 1.3091-2.6816 2.5195-0.23627-0.0327-0.47438-0.0503-0.71289-0.0527-2.0756 1e-3 -3.9816 1.1463-4.957 2.9785-1.2587-0.78742-2.7126-1.2069-4.1973-1.2109-4.3935-7e-5 -7.9552 3.5616-7.9551 7.9551 3e-3 0.28068 0.0204 0.56102 0.0527 0.83984-4.2724 2.044-6.9934 6.3576-6.998 11.094 3e-3 2.4113 0.71409 4.7686 2.0449 6.7793-1.2194 1.1105-1.9154 2.6827-1.918 4.332 2.5e-4 2.5849 1.6909 4.8655 4.1641 5.6172-0.0803 0.31006-0.12167 0.62893-0.12305 0.94922 3.8e-4 0.70627 0.19498 1.3988 0.5625 2.002-3.8132 1.3407-6.3664 4.9404-6.3711 8.9824 4e-3 2.3941 0.90799 4.6991 2.5332 6.457-0.29501 0.86878-0.44673 1.7798-0.44922 2.6973 4.8e-4 3.4191 2.0589 6.5018 5.2168 7.8125-0.27715 0.90581-0.41866 1.8477-0.41992 2.7949 4.1e-4 5.3002 4.2975 9.5964 9.5977 9.5957 1.7946-2e-3 3.5525-0.50778 5.0742-1.459 1.2355 2.4434 3.7405 3.9841 6.4785 3.9844 1.5873-2e-3 3.1302-0.52404 4.3926-1.4863-0.1055 0.57413-0.15975 1.1565-0.16211 1.7402 7.3e-4 5.4392 4.4104 9.848 9.8496 9.8477 0.63223-3e-3 1.2627-0.066 1.8828-0.18946 0.42813 0.30478 0.86356 0.59877 1.3086 0.87891 0.3913 4.8168 4.4135 8.5271 9.2461 8.5293 2.9049-5e-3 5.6399-1.3694 7.3906-3.6875 1.124 0.67463 2.4098 1.0323 3.7207 1.0352 1.996-3e-3 3.9026-0.82855 5.2715-2.2812 0.96914 3.6504 4.272 6.1926 8.0488 6.1953 1.6574-2e-3 3.2765-0.49866 4.6504-1.4258 0.16571 0.0558 0.32968 0.11863 0.49609 0.17188 2.4886 3.9245 6.8119 6.3032 11.459 6.3047 4.365-5e-3 8.4611-2.1093 11.008-5.6543 1.3757 0.56279 2.8476 0.85332 4.334 0.85547 5.7366-7e-3 10.589-4.2444 11.369-9.9277 6.2345-0.64873 10.973-5.8998 10.98-12.168-4e-3 -0.99457-0.12941-1.9849-0.37304-2.9492 1.9027-1.4428 3.0212-3.6922 3.0234-6.0801-2e-3 -0.47392-0.0474-0.94667-0.13671-1.4121 1.1834 1.0379 2.7033 1.6112 4.2773 1.6133 2.227-3e-3 4.2972-1.1464 5.4863-3.0293 0.51632-0.0911 1.0304-0.19542 1.541-0.31445 0.98537 0.77292 2.2008 1.1943 3.4531 1.1973 2.7227-3e-3 5.0514-1.9576 5.5254-4.6387 0.79478 0.30861 1.6396 0.46817 2.4922 0.47071 3.8342 6.3e-4 6.9429-3.1072 6.9434-6.9414-1e-3 -0.41271-0.039-0.8245-0.11329-1.2305 1.9704 0.17526 3.7314-3.4326 2.891-4.5791-0.77712-2.9368-0.6422-4.0803 1.4859-6.1377 1.8688-1.2239 2.9952-3.3071 2.9961-5.541-2e-3 -1.9156-0.83205-3.7368-2.2773-4.9941 1.0411-0.8501 1.6455-2.1227 1.6465-3.4668-3e-3 -2.222-1.6334-4.1064-3.832-4.4277-0.0403-0.0991-0.0856-0.19623-0.12695-0.29492 0.0909-0.32226 0.13758-0.6554 0.13867-0.99024-1.3e-4 -0.84633-0.29113-1.6669-0.82422-2.3242 0.1176 0.01 0.23551 0.0159 0.35352 0.0176 2.7714 5.3e-4 5.0181-2.2462 5.0176-5.0176-2e-3 -0.90257-0.24775-1.7878-0.71093-2.5625 1.5326-0.89895 2.4754-2.5416 2.4785-4.3184-2e-3 -1.7119-0.87674-3.3045-2.3203-4.2246-0.16383-0.97085-0.41536-1.9292-0.78125-2.8555 1.9503 0.0439 5.4115-2.757 6.0859-1.5664-0.0341 1.0364 0.0435 2.0561 0.21289 3.0527-0.31513 0.72958-0.47796 1.5158-0.47852 2.3106 3e-3 1.8078 0.84321 3.5121 2.2754 4.6152-0.0405 0.26965-0.062 0.5418-0.0645 0.81446-2.9e-4 3.2243 2.6136 5.8382 5.8379 5.8379 0.82849-3e-3 1.6468-0.18322 2.4004-0.52735 0.51329 1.8411 2.1902 3.1148 4.1016 3.1152 0.71063-1e-3 1.4096-0.18076 2.0332-0.52149-0.39642 0.61787-0.60786 1.3362-0.60938 2.0703 2e-3 1.3263 0.68701 2.5581 1.8125 3.2598-1.7021 1.113-2.7281 3.0093-2.7285 5.043 1e-3 2.89 2.0542 5.3721 4.8926 5.916 0.0786 0.16977 0.14743 0.34409 0.23047 0.51172-0.2939 0.67339-0.44614 1.4-0.44726 2.1348-1.6e-4 2.9589 2.3985 5.3576 5.3574 5.3574 0.41256-2e-3 0.82348-0.052 1.2246-0.14843 0.0566 0.041 0.1187 0.0749 0.17578 0.11523-1.725 0.14215-3.0526 1.5836-3.0527 3.3144 2e-3 1.1658 0.61396 2.2454 1.6133 2.8457-1e-3 5e-3 -2e-3 9e-3 -4e-3 0.0137-3.3233 0.45635-5.8008 3.294-5.8047 6.6484 3e-3 3.3605 2.4882 6.202 5.8184 6.6523 0.0305 0.0983 0.06 0.19705 0.0918 0.29492-1.4704 1.0981-2.3374 2.8249-2.3398 4.6602 3.5e-4 2.3334 1.3929 4.4415 3.5391 5.3574-1.1586 0.29182-2.2135 0.8997-3.0469 1.7559-0.4459-0.11171-0.90361-0.16941-1.3633-0.17188-2.4313 4e-3 -4.596 1.5403-5.4023 3.834-0.26396-0.0556-0.53298-0.0838-0.80274-0.084-2.1574-1e-5 -3.9063 1.7489-3.9062 3.9062 2.2e-4 0.73297 0.20665 1.4511 0.59571 2.0723-3.771 0.53636-6.5743 3.7633-6.5781 7.5723 3e-3 3.3199 2.1452 6.2596 5.3047 7.2793-1.3489 1.0882-2.1336 2.7278-2.1348 4.4609 3e-3 1.8811 0.92726 3.6413 2.4746 4.7109-1.4123 1.0805-2.2412 2.7569-2.2422 4.5352 2e-3 1.5537 0.63679 3.0395 1.7578 4.1152-0.0507-3e-3 -0.10153-6e-3 -0.15235-8e-3 -2.4652 7.7e-4 -4.4632 1.9996-4.4629 4.4648 7.7e-4 2.4645 1.9984 4.4621 4.4629 4.4629 2.4652 3.1e-4 4.4641-1.9977 4.4648-4.4629-2e-3 -0.16651-0.0129-0.33278-0.0332-0.49805 0.862 0.55528 1.8652 0.85151 2.8906 0.85352 2.9581 1.5e-4 5.3565-2.3974 5.3574-5.3555-1e-3 -0.67844-0.13095-1.3505-0.38281-1.9805 0.33834 0.0491 0.67961 0.0752 1.0215 0.0781 0.95304-8.8e-4 1.8973-0.18179 2.7832-0.53321 1.2827 1.524 3.1721 2.4051 5.1641 2.4082 2.9926-1e-3 5.6285-1.9692 6.4805-4.8379 0.31895-0.15963 0.63515-0.32732 0.94726-0.50976 2.9497-1.3991 5.2854-4.1017 7.1934-6.4531 1.4634 2.2369 3.9559 3.5852 6.6289 3.5859 3.0602-4e-3 5.8443-1.7705 7.1523-4.5371 2.9157-0.50282 5.5116-2.1451 7.2148-4.5644 1.2655 2.8694 4.1042 4.7226 7.2402 4.7266 0.91677-3e-3 1.8261-0.16474 2.6875-0.47851 1.5556 3.0079 4.6586 4.8973 8.0449 4.8984 3.6561-3.2e-4 6.9538-2.198 8.3613-5.5723 0.91534 0.25812 1.8615 0.39084 2.8125 0.39453 4.3993-5e-3 8.3301-2.7491 9.8516-6.877 2.9754-0.70252 5.0785-3.3569 5.082-6.4141-3e-3 -1.6607-0.63204-3.2592-1.7617-4.4766 1.141-1.5587 1.7579-3.4394 1.7617-5.3711 2.2e-4 -3.0148-1.4888-5.835-3.9785-7.5352-0.0746-0.2091-0.15222-0.41804-0.23242-0.625 0.768-1.2261 1.1767-2.6431 1.1797-4.0898-1.7e-4 -4.2715-3.4629-7.7342-7.7344-7.7344-0.552 4e-3 -1.102 0.0666-1.6406 0.1875 1.3457-2.0865 1.9156-4.5634 1.7734-7.0117 1.3599-0.9631 2.1692-2.525 2.1719-4.1914 1.8e-4 -2.8424-2.3041-5.1467-5.1465-5.1465-0.60878 1e-3 -1.2125 0.11022-1.7832 0.32227-0.16218-0.11707-0.3164-0.24314-0.48633-0.35156 0.65289-2.4602 4.7526-2.2125 6.9434-3.9316 0.79969 0.48344 1.7159 0.74002 2.6504 0.74219 2.465-9.3e-4 4.5832-1.7497 5.0508-4.1699 0.0208 1e-3 0.0417 3e-3 0.0625 4e-3 4.412 5.8e-4 7.9889-3.5762 7.9883-7.9883-4e-3 -3.4174-2.1822-6.4535-5.418-7.5527 0.89112-1.1916 1.374-2.639 1.377-4.127-3e-3 -2.7112-1.591-5.1702-4.0606-6.2891 0.0933-0.55053 0.14225-1.1077 0.14649-1.666-1.4e-4 -5.7709-4.6783-10.449-10.449-10.449-1.7921 5e-3 -3.553 0.47002-5.1133 1.3516-1.6742-2.8245-4.3709-4.8967-7.5312-5.7871-1e-3 -0.026-2e-3 -0.0521-4e-3 -0.0781 0.49003-0.91218 0.747-1.9313 0.74805-2.9668-2e-3 -1.8234-0.79586-3.5561-2.1758-4.748 1.2435-1.6528 1.9178-3.6641 1.9219-5.7324-4e-3 -0.38407-0.0303-0.76757-0.0801-1.1484 0.27824-0.34364 0.54561-0.69393 0.80078-1.0527 0.1696 0.0137 0.33963 0.0215 0.50977 0.0234 4.063 8.5e-4 7.3572-3.2925 7.3574-7.3555-6.7e-4 -2.432-1.2033-4.7064-3.2129-6.0762 1.1014-1.5432 1.6946-3.3912 1.6973-5.2871-4e-3 -3.7697-2.3261-7.1487-5.8438-8.5039 0.0224-0.23764 0.0341-0.47615 0.0351-0.71484-4.9e-4 -4.4113-3.577-7.9869-7.9883-7.9863-0.80238 3e-3 -1.5997 0.12668-2.3652 0.36719-1.9196-2.4617-4.8666-3.9014-7.9883-3.9023-1.7487 4e-3 -3.4665 0.46129-4.9863 1.3262 0.72291-1.418 1.1016-2.9864 1.1055-4.5781-6.7e-4 -4.8151-3.3896-8.9649-8.1074-9.9277-1.1832-3.0896-4.1486-5.13-7.457-5.1309-0.38322 3e-3 -0.76572 0.0338-1.1445 0.0918-1.5581-2.7089-4.4433-4.3805-7.5684-4.3848-2.7902 4e-3 -5.4111 1.339-7.0547 3.5938-2.0427-2.0559-4.8206-3.2129-7.7188-3.2148-4.0296 3e-3 -7.7282 2.2306-9.6152 5.791-0.61977-3.6421-2.2876-6.8543-4.6172-9.4844-0.17631-1.1162-0.54157-2.1941-1.0801-3.1875zm-0.58984 33.244c2.508 6.1403 9.1131 10.288 15.738 9.8105 1.4292 1.7418-3.5329 1.1944-4.6582 2.5215-3.6343 1.7293-6.723 4.5885-8.7129 8.0879-2.3887-6.5356-7.2108-12.141-13.316-15.479 4.1412-0.42593 7.5699-3.1416 10.949-4.9414zm-51.555 42.943 0.39063 0.81054c1.6601 3.7208 4.9478 6.9989 7.459 9.6348-3.0046 2.2884-3.6471 7.0762-5.0332 9.5273-4.4647-0.31238-9.9698 1.7525-13.266 2.8613 1.8597-4.7878 0.64435-10.763 0.41406-15.066 3.932-1.6799 7.4326-4.3726 10.035-7.7676zm79.812 5.3945c-1.2462 4.9702 1.1592 11.525 2.373 14.996-2.4839-0.89507-6.4632 0.0144-8.1543-0.34961 1.433-4.1627 1.2046-8.862-0.62695-12.865 2.2015-0.18826 4.5464-1.0094 6.4082-1.7812zm16.816 26.217 0.66797 0.18946c3.8854 1.0122 8.0299 1.013 11.912-0.0137 0.1629 3.5669-5.1818 2.4194-7.1094 4.8125-1.5919 0.51748-4.0006 4.5972-3.6387 0.86718-0.30992-2.0296-0.93598-4.0089-1.832-5.8555zm-122.08 8.2774c0.0668-9e-3 0.12355-8e-3 0.16406 8e-3 0.10803 0.0422 0.094 0.18682-0.19141 0.50586-1.3569 0.14822-0.44-0.44728 0.0274-0.51367zm132.21 35.4c1.8912 0.68348 4.7882 0.62139 1.7793 2.3828-2.3337 2.2488-4.1944 4.9854-5.4316 7.9805-3.5743-1.0622 1.1611-3.3784 1.3574-5.4434 1.134-1.2041 1.0448-4.7492 2.2949-4.9199zm-35.883 11.621c1.5835 1.3851 3.3892 2.5341 5.4043 3.3516-1.3499-0.54433-2.7253-0.8838-4.1035-1.0586-0.68813-0.78778-1.5575-1.3964-2.5332-1.7734 0.42939-0.12529 0.84292-0.29962 1.2324-0.51953z" fill="#ffe200"/><path transform="scale(.26458)" d="m377.8 123.98c-3.6834 9.8e-4 -7.1266 1.828-9.1934 4.877-3.1264-2.4981-7.0079-3.8615-11.01-3.8672-5.6191-2e-5 -10.616 2.6299-13.854 6.7168a16.92 16.92 0 0 0-11.4-4.4434 16.92 16.92 0 0 0-16.92 16.92 16.92 16.92 0 0 0 0.23242 2.7656c-6.4188 1.6873-11.661 6.6133-13.6 13.203-2.8499-2.1672-6.3298-3.3441-9.9102-3.3516-9.0734 4.6e-4 -16.428 7.3563-16.428 16.43 3e-3 0.10744 7e-3 0.21488 0.0117 0.32226-0.48865-0.05-0.9795-0.0755-1.4707-0.0762-8.0896 4e-4 -14.647 6.5588-14.646 14.648 4e-3 2.1972 0.50299 4.3654 1.459 6.3438-2.5503 2.6328-3.9788 6.1529-3.9844 9.8184 6e-3 3.0053 0.96922 5.9306 2.75 8.3516-1.7703 2.0228-2.7473 4.6186-2.75 7.3066 2e-3 0.59677 0.0512 1.1924 0.14844 1.7812-1.0517-0.1689-2.1146-0.25834-3.1797-0.26758-11.716 1.7e-4 -21.214 9.4986-21.213 21.215 3e-3 4.8448 1.6639 9.5427 4.707 13.312-3.3646 4.0699-5.207 9.1843-5.2109 14.465-4e-5 12.553 10.176 22.729 22.729 22.729 2.5138-9e-3 5.0086-0.43578 7.3828-1.2617 1.863 11.775 12.01 20.448 23.932 20.455 4.2502-0.011 8.4229-1.1392 12.1-3.2715 6.6623 5.9945 15.303 9.3177 24.266 9.332 19.63-0.0213 35.7-15.618 36.309-35.238 2.7888 0.92004 5.7059 1.392 8.6426 1.3984 3.8628 1e-5 7.5404-0.79013 10.883-2.2148l-0.0234-0.0566c-6.0609-14.521 8.9648-23.613 8.9648-23.613s-4.1662-14.647 2.6524-18.309l0.18945 0.10156c4.3864-2.3813 7.1292-6.9699 7.1328-11.971-5e-3 -2.4298-0.65904-4.814-1.8945-6.9062 4.214-0.65782 8.215-2.2947 11.682-4.7793-0.46086 1.4944-0.69523 3.0494-0.69531 4.6133-4.6e-4 8.648 7.0102 15.659 15.658 15.658 2.1974-7e-3 4.3689-0.47584 6.373-1.377-2.8113 3.3609-4.3522 7.6027-4.3535 11.984 9e-3 7.278 4.2427 13.889 10.85 16.941-3.0856 3.5734-4.7851 8.1362-4.7891 12.857 0.0104 8.8903 5.9745 16.672 14.557 18.992-0.97509 1.0466-1.8114 2.2144-2.4883 3.4746-2.341-1.1502-4.9132-1.752-7.5215-1.7598-9.4851-6.8e-4 -17.174 7.6887-17.174 17.174 3.9e-4 9.4844 7.6895 17.173 17.174 17.172 6.5274-9e-3 12.485-3.7174 15.375-9.5703 2.1512 0.97641 4.4853 1.4844 6.8477 1.4902 6.6235-4e-3 12.616-3.9296 15.266-10 4.0774 5.6362 10.608 8.9781 17.564 8.9883 11.994 2.6e-4 21.718-9.7225 21.719-21.717-5e-3 -8.0344-4.445-15.41-11.543-19.174 2.1947-1.9146 3.4562-4.6833 3.4609-7.5957-4e-3 -3.7902-2.129-7.2593-5.5039-8.9844 0.2752-1.2784 0.42241-2.5811 0.43945-3.8887 9.5943-1.4867 16.674-9.7424 16.682-19.451 6.8e-4 -10.879-8.8182-19.699-19.697-19.699-2.4933 3e-3 -4.9635 0.47841-7.2793 1.4023 1.1363-2.6802 1.7221-5.5615 1.7227-8.4727-9e-3 -4.4351-1.3756-8.7611-3.916-12.396 5.9189-4.0409 9.4632-10.742 9.4727-17.908 2.6e-4 -11.995-9.7237-21.719-21.719-21.719-2.1433 7e-3 -4.2738 0.33041-6.3223 0.96093 0.16676-0.9849 0.25428-1.9816 0.26172-2.9805-1.8e-4 -10.321-8.3668-18.687-18.688-18.688-2.3026 2e-3 -4.5714 0.43715-6.7012 1.2578a8.0812 8.0812 0 0 0 1.3965-4.541 8.0812 8.0812 0 0 0-8.0801-8.082 8.0812 8.0812 0 0 0-4.4062 1.3086 13.637 13.637 0 0 0-11-5.6016 13.637 13.637 0 0 0-9.0293 3.4414c-2.7881-1.5449-5.9914-2.4313-9.4043-2.4316-0.86633 1e-3 -1.7224 0.0802-2.5723 0.19531a22.223 22.223 0 0 0-11.066-2.9727 22.223 22.223 0 0 0-3.8555 0.33985c-1.8359-1.3287-4.086-2.1047-6.498-2.1074zm39.529 35.643c0.90575 7.0493 6.9026 12.331 14.01 12.34 0.62682-6e-3 1.2525-0.0536 1.873-0.14258 1.1551 1.8237 2.6175 3.4334 4.3223 4.7578-0.46505-0.0416-0.93156-0.0651-1.3984-0.0703-8.7317 0.0101-16.186 6.3086-17.654 14.916-1.1581-9.5972-7.3098-17.864-16.17-21.73 0.49209-0.77716 0.92692-1.5718 1.3027-2.3809 5.4502-0.51817 10.43-3.3099 13.715-7.6895zm35.441 20.523c-0.4717 1.7796-0.71519 3.612-0.72461 5.4531 4e-3 0.20712 0.0114 0.41417 0.0215 0.62109-1.1541-2.2279-2.763-4.1888-4.7226-5.7559 0.55576 0.053 1.1136 0.081 1.6719 0.084 1.2617-7e-3 2.5194-0.14185 3.7539-0.40234zm1.2852 14.516c0.53582 1.1648 1.1737 2.2798 1.9062 3.332-1.0422 0.7054-2.0212 1.5001-2.9258 2.375 0.64717-1.8344 0.99152-3.762 1.0195-5.707zm-35.529 3.0801c0.5555 2.9605 1.8479 5.7333 3.7578 8.0625-0.0124-6.6e-4 -0.0247-9.5e-4 -0.0371-2e-3 -2.3009 6e-3 -4.5722 0.5186-6.6523 1.502 1.5583-2.9795 2.5522-6.2215 2.9316-9.5625zm-53.127 4.9727c1.8256 5.9427 5.6267 11.083 10.773 14.57-3.7174 2.5373-5.9435 6.7454-5.9492 11.246 3e-3 0.21044 0.0108 0.42078 0.0234 0.63086-0.84722-0.0813-1.6977-0.12371-2.5488-0.12696-6.6083 0.0122-12.996 2.3798-18.016 6.6777 2.5202-3.9577 3.8634-8.5502 3.873-13.242-5e-3 -2.9663-0.54248-5.9076-1.5879-8.6836 5.7429-1.8107 10.558-5.7804 13.432-11.072zm82.684 5.0644c-1.0467 2.5812-1.5871 5.3396-1.5918 8.125-2.6e-4 11.994 9.7225 21.718 21.717 21.719 3.0624-9e-3 6.0883-0.66634 8.8789-1.9277-0.81829 2.1472-1.2546 4.4211-1.2891 6.7188-8.9372 1.3897-15.78 8.6872-16.592 17.695-0.53213-0.28265-1.077-0.54074-1.6328-0.77344 2.6286-3.3 4.0631-7.3924 4.0703-11.611 9e-4 -10.322-8.3672-18.69-18.689-18.689-2.885 3e-3 -5.7302 0.67441-8.3125 1.9609 2.1088-2.7326 3.2554-6.0854 3.2617-9.5371-7e-3 -3.287-1.0485-6.4883-2.9766-9.1504 0.4022 0.0338 0.80542 0.0539 1.209 0.0606 4.4114-8e-3 8.6651-1.6423 11.947-4.5898zm-103.6 33.822c-1.7712 2.7108-3.0549 5.7104-3.793 8.8633-2.703-1.5267-5.5905-2.7009-8.5918-3.4941 4.546-0.60757 8.8338-2.4664 12.385-5.3691zm125.16 37.68c2.829 1.4954 5.9798 2.279 9.1797 2.2832 2.1095-9e-3 4.2039-0.35626 6.2031-1.0293 0.0213 0.0294 0.0428 0.0587 0.0645 0.0879-7.8251 1.7981-14.02 7.7667-16.107 15.52-1.6787-1.6988-3.703-3.017-5.9356-3.8652 3.7792-3.3295 6.1395-7.9801 6.5957-12.996z" fill="#fff"/><path transform="scale(.26458)" d="m317.7 353.41a9.8214 9.8214 0 0 0-0.91601 4.1074 9.8214 9.8214 0 0 0 4.4551 8.2148 9.8214 9.8214 0 0 0 9.6524 8.0352 9.8214 9.8214 0 0 0 4.0664-0.89453 9.1964 9.1964 0 0 0 5.666 1.9668 9.1964 9.1964 0 0 0 8.4219-5.5274 8.8294 8.8294 0 0 1-7.4082 4.0293 8.8294 8.8294 0 0 1-5.4414-1.8887 9.4295 9.4295 0 0 1-3.9043 0.85937 9.4295 9.4295 0 0 1-9.2656-7.7148 9.4295 9.4295 0 0 1-4.2773-7.8867 9.4295 9.4295 0 0 1 0.0488-0.92969 6.7857 6.7857 0 0 1-1.0977-2.3711z" fill="#f3a80d"/><circle cx="128.29" cy="52.649" r="5.0113" fill="#fff"/><path transform="scale(.26458)" d="m321.45 151.48a7.8287 7.8287 0 0 0-3.2539 6.3418 7.8287 7.8287 0 0 0 2.6816 5.8906 12.879 12.879 0 0 0-3.6914 9.0098 12.879 12.879 0 0 0 7.9902 11.906 20.203 20.203 0 0 0 18.021 11.074 20.203 20.203 0 0 0 6.4785-1.0938 12.122 12.122 0 0 0 7.1582 2.3555 12.122 12.122 0 0 0 9.4726-4.5586 12.114 12.122 0 0 1-7.7285 2.791 12.114 12.122 0 0 1-7.1543-2.3555 20.191 20.203 0 0 1-6.4746 1.0938 20.191 20.203 0 0 1-18.01-11.074 12.872 12.879 0 0 1-7.9863-11.906 12.872 12.879 0 0 1 3.6894-9.0098 7.8239 7.8287 0 0 1-2.6797-5.8906 7.8239 7.8287 0 0 1 1.4863-4.5742z" fill="#ffe200"/><path transform="scale(.26458)" d="m356.56 149.39a12.374 12.374 0 0 0-5.7852 10.455 12.374 12.374 0 0 0 12.375 12.375 12.374 12.374 0 0 0 2.9805-0.38281c-0.84384-0.0822-1.6968-0.2006-2.5234-0.19922-6.2501 4.5e-4 -11.696-5.1351-11.695-14.041 0.17534-2.8712 2.0659-6.0141 4.6484-8.207zm28.137 3.082c1.8578 2.0526 3.0451 4.563 3.0762 6.5312-1.9e-4 7.9972-4.9286 12.964-10.541 12.963-0.69578-2e-3 -1.3576 0.0702-1.9941 0.12696a11.112 11.112 0 0 0 2.8106 0.3789 11.112 11.112 0 0 0 11.113-11.111 11.112 11.112 0 0 0-4.4648-8.8887z" fill="#ffe200"/><ellipse cx="115.14" cy="135.66" rx="12.906" ry="12.095"/><ellipse cx="89.58" cy="132.39" rx="12.906" ry="12.095" fill="#f3a80d"/><ellipse cx="73.705" cy="134.09" rx="12.906" ry="12.095" fill="#f3a80d"/></g><g transform="translate(49.256,31.65)" fill="#ffe200"><ellipse cx="61.61" cy="134.85" rx="12.906" ry="12.095"/><ellipse cx="46.113" cy="115.57" rx="12.906" ry="12.095"/><ellipse cx="45.735" cy="123.89" rx="12.906" ry="12.095"/></g><path d="m158.93 171.65a12.905 12.095 0 0 1-9.3206 3.7295 12.905 12.095 0 0 1-12.905-12.095 12.905 12.095 0 0 1 12.905-12.095 12.905 12.095 0 0 1 1.4636 0.078" fill="#f3a80d" stroke-width=".26458"/><g transform="translate(49.256,31.65)" fill="#ffe200"><ellipse cx="51.533" cy="106.83" rx="5.5957" ry="5.2444"/><ellipse cx="51.816" cy="102.01" rx="2.2685" ry="2.1261"/><ellipse cx="53.404" cy="103.52" rx="2.571" ry="2.4096"/></g><g transform="translate(49.256,31.65)"><path d="m51.386 100.92a2.2665 1.9814 0 0 0-2.2619 1.9037 5.5906 4.8875 0 0 0-2.3584 1.49 12.894 11.272 0 0 0-1.078-0.0472 12.894 11.272 0 0 0-12.893 11.272 12.894 11.272 0 0 0 0.61955 3.4097 12.894 11.272 0 0 0-0.99747 4.3401 12.894 11.272 0 0 0 12.894 11.272 12.894 11.272 0 0 0 12.894-11.272 12.894 11.272 0 0 0-0.62006-3.4087 12.894 11.272 0 0 0 0.99747-4.3411 12.894 11.272 0 0 0-2.2753-6.3729 5.5906 4.8875 0 0 0 0.38722-1.7728 5.5906 4.8875 0 0 0-1.1591-2.9743 2.5687 2.2456 0 0 0 0.0062-0.10787 2.5687 2.2456 0 0 0-2.0817-2.2038 2.2665 1.9814 0 0 0-2.0729-1.1866z" fill="#f3a80d"/><ellipse cx="62.366" cy="134.94" rx="12.704" ry="11.906" fill="#f3a80d"/><ellipse cx="131.26" cy="134.91" rx="11.079" ry="10.383" fill="#a90c03"/><ellipse cx="153.41" cy="120.67" rx="11.536" ry="12.095" fill="#ffe200"/><ellipse cx="154.22" cy="111.61" rx="11.97" ry="11.895" fill="#ffe200"/><ellipse cx="154.23" cy="122" rx="12.055" ry="10.718" fill="#f3a80d"/><ellipse cx="154.43" cy="122.74" rx="12.055" ry="10.718" fill="#a90c03"/></g><g transform="translate(49.256,31.65)" fill="#f3a80d"><ellipse cx="154.75" cy="111.57" rx="11.654" ry="10.718"/><circle cx="148.73" cy="103" r=".85045"/><circle cx="150.53" cy="101.87" r=".85045"/><circle cx="147.34" cy="104.82" r="1.3465"/><circle cx="146.21" cy="105.11" r=".77958"/><circle cx="144.93" cy="107.75" r="1.3465"/><circle cx="144.84" cy="110.02" r="2.0552"/><circle cx="144.84" cy="110.02" r="2.0552"/></g><g transform="translate(49.256,31.65)" fill="#a90c03"><circle cx="149.06" cy="103.25" r=".85412"/><ellipse cx="150.96" cy="102.42" rx=".88753" ry="1.1715"/><circle cx="147.66" cy="105.07" r="1.3524"/><circle cx="146.52" cy="105.36" r=".78294"/><circle cx="145.24" cy="108.01" r="1.3524"/><circle cx="145.14" cy="110.29" r="2.0641"/><ellipse cx="155.05" cy="112.83" rx="11.754" ry="11.269"/></g><g transform="translate(49.256,31.65)" fill="#f3a80d"><circle cx="147.39" cy="105.31" r=".96885"/><circle cx="144.44" cy="114.59" r="1.2361"/><circle cx="150.84" cy="104.97" r="1.0023"/></g><circle cx="196.87" cy="137.35" r="1.0354" fill="#a90c03"/><g transform="translate(49.256,31.65)" fill="#f3a80d"><circle cx="148.74" cy="105.74" r=".96885"/><circle cx="146.43" cy="107.64" r=".86863"/><circle cx="144.89" cy="108.47" r=".63477"/><circle cx="144.46" cy="111.98" r=".63477"/></g><g transform="translate(49.256,31.65)" fill="#a90c03"><circle cx="150.91" cy="105.28" r=".98556"/><circle cx="146.57" cy="107.9" r=".85415"/><circle cx="145.06" cy="108.72" r=".62419"/><circle cx="144.63" cy="112.17" r=".62419"/></g><circle cx="194.96" cy="141.73" r="1.0023" fill="#f3a80d"/><g transform="translate(49.256,31.65)" fill="#a90c03"><circle cx="145.85" cy="110.3" r=".98556"/><circle cx="144.59" cy="114.76" r="1.2155"/><circle cx="148.84" cy="106.03" r=".9527"/></g><circle cx="197.56" cy="139.62" r="1.1693" fill="#f3a80d"/><circle cx="197.67" cy="139.88" r="1.1498" fill="#a90c03"/><g transform="translate(49.256,31.65)" fill="#f3a80d"><circle cx="150.2" cy="116.23" r="2.6931"/><circle cx="151.73" cy="112.81" r="3.0474"/><circle cx="147.79" cy="119.02" r="3.4018"/></g><g transform="translate(49.256,31.65)" fill="#a90c03"><circle cx="152.11" cy="113.02" r="3.26"/><circle cx="150.55" cy="116.48" r="2.8936"/><circle cx="147.96" cy="119.48" r="3.6551"/></g><g transform="translate(49.256,31.65)"><ellipse cx="151.35" cy="124.61" rx="9.0488" ry="8.0454" fill="#f3a80d"/><ellipse cx="152.66" cy="126.44" rx="10.987" ry="9.7683" fill="#a90c03"/><ellipse cx="144.01" cy="134.47" rx="12.906" ry="12.095"/><ellipse cx="145.64" cy="135.32" rx="13.902" ry="13.029" fill="#ffe200"/><ellipse cx="146.31" cy="136.14" rx="14.637" ry="13.718" fill="#f3a80d"/><ellipse cx="133.24" cy="135.26" rx="13.118" ry="12.294"/><ellipse cx="133.86" cy="136.28" rx="13.902" ry="13.029" fill="#f3a80d"/><ellipse cx="147.33" cy="136.44" rx="14.886" ry="13.952" fill="#a90c03"/><ellipse cx="114.69" cy="136.95" rx="13.902" ry="13.029" fill="#f3a80d"/><ellipse cx="134.54" cy="139.87" rx="16.982" ry="15.916" fill="#a90c03"/><ellipse cx="114.08" cy="138.13" rx="14.989" ry="14.048" fill="#a90c03"/><circle cx="151.1" cy="107.4" r="1.3945" fill="#f3a80d"/><circle cx="151.33" cy="107.57" r="1.3713" fill="#a90c03"/><ellipse cx="147.42" cy="180.49" rx="57.935" ry="54.297" fill="#f3a80d"/><ellipse cx="149.29" cy="192.38" rx="70.34" ry="65.923" fill="#a90c03"/></g><g transform="translate(49.256,31.65)" clip-path="url(#clipPath2704)"><ellipse cx="125.3" cy="131.26" rx="12.906" ry="12.095" fill="#ffe200"/><ellipse cx="125.32" cy="131.75" rx="13.298" ry="12.463" fill="#f3a80d"/></g><g transform="translate(49.256,31.65)"><path transform="scale(.26458)" d="m136.81 407.86c-8.2701 7.8626-12.86 18.154-12.86 28.835 0.019 4.3753 0.80875 8.7219 2.3416 12.887-2.4845 5.1962-3.7659 10.772-3.77 16.404-3.4e-4 23.529 20.808 52.958 47.722 52.957 8.6815-13.258 25.829-31.792 43.303-31.791" fill="#a90c03"/><path d="m158.3 105.33a12.326 12.23 0 0 1-5.1149 9.9005 12.22 12.125 0 0 1-0.093 0.3684 10.185 10.366 0 0 1 7.8915 10.089 10.185 10.366 0 0 1-0.14748 1.6869 70.682 65.73 0 0 1 4.038 0.69867 12.114 10.687 0 0 0 1.6757-5.3885 12.114 10.687 0 0 0-1.1326-4.4822 11.811 11.236 0 0 0 1.453-5.3978 11.811 11.236 0 0 0-0.13917-1.6138 8.9972 8.9273 0 0 0-8.4311-5.8615z"/><path transform="scale(.26458)" d="m594.93 481.23a239.91 239.91 0 0 1-0.19531 1.1133 121.79 121.79 0 0 1 36.689 86.961 121.79 121.79 0 0 1-121.79 121.79 121.79 121.79 0 0 1-62.66-17.529 239.91 239.91 0 0 1-89.893 17.875 239.91 239.91 0 0 1-44.734-4.3398 265.85 249.16 0 0 0-3.873 42.365 265.85 249.16 0 0 0 179.2 235.26 265.85 249.16 0 0 0 77.084 10.775 265.85 249.16 0 0 0 265.85-249.16 265.85 249.16 0 0 0-179.22-235.27 265.85 249.16 0 0 0-56.467-9.8418z"/></g><g transform="translate(49.256 31.65)"><circle cx="51.115" cy="103.83" r="1.8041" fill="#ffe200"/><ellipse cx="51.015" cy="104.07" rx="1.8498" ry="1.8041" fill="#f3a80d"/><circle cx="48.891" cy="105.78" r="2.205" fill="#a90c03"/><circle cx="47.106" cy="105.77" r="1.6704" fill="#ffe200"/><ellipse cx="46.905" cy="106" rx="1.7128" ry="1.6704" fill="#f3a80d"/><circle cx="44.828" cy="107.62" r="2.205" fill="#a90c03"/><circle cx="43.632" cy="107.24" r="1.6036" fill="#ffe200"/><ellipse cx="43.342" cy="107.47" rx="1.6443" ry="1.6036" fill="#f3a80d"/><ellipse cx="51.49" cy="105.86" rx="2.205" ry="1.8624" fill="#a90c03"/><circle cx="53.588" cy="106.37" r="1.7373" fill="#ffe200"/><ellipse cx="53.55" cy="106.61" rx="1.7813" ry="1.7373" fill="#f3a80d"/><circle cx="50.514" cy="106.5" r="1.9377" fill="#ffe200"/><ellipse cx="50.399" cy="106.74" rx="1.9868" ry="1.9377" fill="#f3a80d"/><circle cx="50.182" cy="110.37" r="2.205" fill="#a90c03"/><circle cx="46.973" cy="108.11" r="1.8041" fill="#ffe200"/><circle cx="53.758" cy="111.66" r="2.205" fill="#a90c03"/><ellipse cx="52.668" cy="111.32" rx="1.2332" ry="1.2027" fill="#f3a80d"/><ellipse cx="46.768" cy="108.34" rx="1.8498" ry="1.8041" fill="#f3a80d"/><circle cx="48.376" cy="109.91" r="1.5368" fill="#ffe200"/><ellipse cx="48.206" cy="110.15" rx="1.5757" ry="1.5368" fill="#f3a80d"/><g fill="#ffe200"><circle cx="52.318" cy="109.98" r="1.2027"/><circle cx="56.36" cy="111.78" r="1.3363"/><circle cx="54.723" cy="111.05" r="1.3363"/></g><g fill="#f3a80d"><ellipse cx="52.248" cy="110.21" rx="1.2332" ry="1.2027"/><ellipse cx="56.352" cy="112.02" rx="1.3702" ry="1.3363"/><ellipse cx="54.715" cy="111.28" rx="1.3702" ry="1.3363"/></g><circle cx="42.529" cy="108.94" r="2.1047" fill="#a90c03"/><circle cx="40.09" cy="108.24" r="1.8041" fill="#ffe200"/><ellipse cx="39.711" cy="108.48" rx="1.8498" ry="1.8041" fill="#f3a80d"/><circle cx="44.921" cy="110" r="2.1047" fill="#a90c03"/><circle cx="43.097" cy="109.68" r="1.7373" fill="#ffe200"/><circle cx="47.474" cy="112.02" r="2.205" fill="#a90c03"/><ellipse cx="42.764" cy="110.01" rx="1.7813" ry="1.7373" fill="#f3a80d"/><circle cx="44.901" cy="112.18" r="1.3363" fill="#ffe200"/><ellipse cx="44.644" cy="112.42" rx="1.3702" ry="1.3363" fill="#f3a80d"/><circle cx="54.327" cy="113.23" r="2.205" fill="#a90c03"/><circle cx="50.582" cy="112.01" r="2.205" fill="#a90c03"/><circle cx="52.452" cy="112.45" r=".73499" fill="#ffe200"/><circle cx="50.12" cy="113.67" r="2.205" fill="#a90c03"/><circle cx="46.973" cy="113.45" r="1.0691" fill="#ffe200"/><ellipse cx="46.768" cy="113.69" rx="1.0962" ry="1.0691" fill="#f3a80d"/><circle cx="49.111" cy="113.85" r="1.3363" fill="#ffe200"/><g fill="#f3a80d"><ellipse cx="48.96" cy="114.09" rx="1.3702" ry="1.3363"/><ellipse cx="52.385" cy="112.69" rx=".75362" ry=".73499"/><ellipse cx="52.055" cy="113.75" rx=".75362" ry=".73499"/></g><circle cx="51.855" cy="114.36" r="1.7666" fill="#a90c03"/><circle cx="50.881" cy="113.29" r="1.3363" fill="#ffe200"/><ellipse cx="50.731" cy="113.52" rx="1.3702" ry="1.3363" fill="#f3a80d"/><circle cx="56.231" cy="114.9" r="2.205" fill="#a90c03"/><circle cx="53.454" cy="114.09" r="1.3363" fill="#ffe200"/><ellipse cx="53.27" cy="114.32" rx="1.3702" ry="1.3363" fill="#f3a80d"/><g fill="#a90c03"><circle cx="49.6" cy="116.55" r="2.9609"/><circle cx="46.434" cy="116.17" r="2.9609"/><circle cx="43.222" cy="114.71" r="2.9609"/><circle cx="41.473" cy="112.68" r="2.9609"/><circle cx="39.253" cy="110.88" r="2.9609"/><circle cx="37.93" cy="110.22" r="2.9609"/></g><circle cx="55.726" cy="114.25" r="1.2027" fill="#ffe200"/><ellipse cx="55.742" cy="114.49" rx="1.2332" ry="1.2027" fill="#f3a80d"/><circle cx="57.296" cy="115.19" r="1.3363" fill="#ffe200"/><ellipse cx="57.279" cy="115.53" rx="1.3702" ry="1.3363" fill="#f3a80d"/><circle cx="55.175" cy="118.3" r="2.9609" fill="#a90c03"/><circle cx="52.813" cy="117.02" r="2.9609" fill="#a90c03"/><circle cx="52.855" cy="120.14" r="4.1251" fill="#f3a80d"/><circle cx="48.365" cy="118.42" r="2.4595" fill="#f3a80d"/><circle cx="52.949" cy="121.55" r="4.7888" fill="#a90c03"/><circle cx="47.736" cy="119.55" r="2.8552" fill="#a90c03"/><circle cx="53.189" cy="122.75" r="4.1251" fill="#f3a80d"/><circle cx="54.659" cy="125.42" r="4.1251" fill="#f3a80d"/><circle cx="52.354" cy="127.19" r="6.7644" fill="#a90c03"/><circle cx="52.888" cy="123.41" r="4.3256" fill="#a90c03"/><circle cx="51.973" cy="130.48" r="8.5064" fill="#f3a80d"/><g fill="#a90c03"><circle cx="51.773" cy="132.32" r="10.077"/><circle cx="62.464" cy="133.39" r="10.077"/><circle cx="71.885" cy="132.72" r="10.077"/><circle cx="75.426" cy="132.52" r="10.077"/><circle cx="90.262" cy="135.21" r="14.754"/></g><ellipse cx="86.946" cy="133.68" rx="12.906" ry="12.095" fill="#f3a80d"/><path transform="scale(.26458)" d="m387.93 452.53a48.777 45.714 0 0 1 40.132 44.991 48.777 45.714 0 0 1-33.714 43.48" fill="none"/><path transform="scale(.26458)" d="m394.35 541a48.777 45.714 0 0 1-15.062 2.2342 48.777 45.714 0 0 1-48.777-45.714 48.777 45.714 0 0 1 48.777-45.714 48.777 45.714 0 0 1 8.6447 0.72368" fill="none"/><ellipse cx="86.478" cy="134.91" rx="13.583" ry="12.73" fill="#a90c03"/><ellipse cx="93.36" cy="135.42" rx="12.906" ry="12.095" fill="#f3a80d"/><g fill="#a90c03"><circle cx="99.617" cy="122.74" r="1.147"/><circle cx="99.617" cy="126.28" r="2.9896"/><circle cx="98.672" cy="130.15" r="2.9896"/><circle cx="100.85" cy="130.72" r="2.9896"/></g><g fill="#f3a80d"><ellipse cx="84.95" cy="133.71" rx="6.4528" ry="6.0476"/><circle cx="97.611" cy="122.91" r="1.3644"/><circle cx="95.981" cy="124.61" r="1.5297"/><circle cx="96.193" cy="127.49" r=".98638"/><circle cx="94.611" cy="128.95" r="1.7187"/><circle cx="95.461" cy="131.6" r="1.7187"/><circle cx="103.63" cy="127.82" r="1.7187"/></g><circle cx="107.73" cy="125.51" r="2.9896" fill="#a90c03"/><g fill="#f3a80d"><circle cx="105.51" cy="127.51" r="2.4747"/><circle cx="103.3" cy="124.7" r="2.4747"/><circle cx="101.15" cy="123.43" r=".84464"/><circle cx="101.06" cy="122.15" r=".84464"/><circle cx="100.63" cy="121.54" r=".84464"/><circle cx="98.839" cy="121.82" r=".84464"/></g><ellipse cx="110.04" cy="132.79" rx="6.3658" ry="5.9661" fill="#ffe200"/><ellipse cx="110.14" cy="132.98" rx="6.4528" ry="6.0476" fill="#f3a80d"/><circle cx="108.67" cy="123.19" r="1.9029" fill="#a90c03"/><ellipse cx="67.702" cy="158.6" rx="36.361" ry="34.078" fill="#f3a80d"/><circle cx="89.817" cy="131.16" r="5.9531" fill="#ffe200"/><circle cx="89.817" cy="131.49" r="6.1421" fill="#f3a80d"/><ellipse cx="67.435" cy="159.6" rx="37.288" ry="34.947" fill="#a90c03"/><ellipse cx="124.62" cy="119.62" rx="4.7447" ry="4.4468" fill="#f3a80d"/><ellipse cx="126.67" cy="118.73" rx="4.9453" ry="4.6348" fill="#f3a80d"/><ellipse cx="124.65" cy="119.49" rx="4.6379" ry="4.3467" fill="#a90c03"/><ellipse cx="126.65" cy="118.62" rx="4.834" ry="4.5305" fill="#a90c03"/><g fill="#f3a80d"><ellipse cx="124.54" cy="119.16" rx="4.6379" ry="4.3467"/><ellipse cx="125.87" cy="118.03" rx="4.6379" ry="4.3467"/><ellipse cx="127" cy="118.41" rx="4.6379" ry="4.3467"/></g><ellipse cx="125.85" cy="117.11" rx="3.6604" ry="3.4306" fill="#ffe200"/><ellipse cx="127.36" cy="116.83" rx="2.8127" ry="2.6361" fill="#f3a80d"/><ellipse cx="123.67" cy="118.64" rx="3.6604" ry="3.4306" fill="#ffe200"/><ellipse cx="127.78" cy="117.86" rx="3.6604" ry="3.4306" fill="#f3a80d"/><ellipse cx="127.76" cy="117.65" rx="3.6604" ry="3.4306" fill="#ffe200"/><path transform="scale(.26458)" d="m128.19 424.71a59.094 59.094 0 0 0-3.6895 3.4395c-0.63586 2.7544-0.98232 5.5707-0.98242 8.4199 0.0193 4.3964 0.81327 8.764 2.3535 12.949-2.4965 5.2214-3.785 10.825-3.7891 16.484-1.4e-4 12.224 5.5994 26.023 14.736 36.51a106.83 106.83 0 0 1 23.398-43.703 42.143 42.143 0 0 0-21.188 6.4316 42.143 42.143 0 0 1 21.742-7.0957 106.83 106.83 0 0 1 0.0117-0.0156 36.618 36.618 0 0 1-32.594-33.42z"/></g><ellipse cx="150.92" cy="260.83" rx="387.83" ry="99.023"/><path d="m85.615 142.76a7.2143 7.2143 0 0 0-1.0506 0.23494 7.8907 7.8907 0 0 1 0.31666-0.056 7.8907 7.8907 0 0 1 8.9104 6.7179 7.8907 7.8907 0 0 1 0.03058 0.33932 7.2143 7.2143 0 0 0-0.06054-1.0942 7.2143 7.2143 0 0 0-8.1465-6.142z" fill="#f3a80d"/><path d="m84.831 158.18v6.9923h6.6616v-0.63457a4.6302 4.6302 0 0 1-3.8742-4.5624 4.6302 4.6302 0 0 1 0.36277-1.7952z" stroke-width=".26458"/><ellipse cx="150.92" cy="117.24" rx="387.83" ry="47.797" clip-path="url(#clipPath2494)" fill="#a90c03" fill-opacity=".98291" filter="url(#filter2870)"/></svg>
