<?xml version="1.0" encoding="UTF-8" standalone="no"?>
<!-- Created with Inkscape (http://www.inkscape.org/) -->

<svg
   xmlns:dc="http://purl.org/dc/elements/1.1/"
   xmlns:cc="http://creativecommons.org/ns#"
   xmlns:rdf="http://www.w3.org/1999/02/22-rdf-syntax-ns#"
   xmlns:svg="http://www.w3.org/2000/svg"
   xmlns="http://www.w3.org/2000/svg"
   xmlns:sodipodi="http://sodipodi.sourceforge.net/DTD/sodipodi-0.dtd"
   xmlns:inkscape="http://www.inkscape.org/namespaces/inkscape"
   width="644.99mm"
   height="186.02mm"
   version="1.1"
   viewBox="0 0 644.99 186.02"
   id="svg465"
   sodipodi:docname="omegasky-navbar.svg"
   inkscape:version="0.92.3 (2405546, 2018-03-11)">
  <sodipodi:namedview
     pagecolor="#ffffff"
     bordercolor="#666666"
     borderopacity="1"
     objecttolerance="10"
     gridtolerance="10"
     guidetolerance="10"
     inkscape:pageopacity="0"
     inkscape:pageshadow="2"
     inkscape:window-width="2560"
     inkscape:window-height="1377"
     id="namedview467"
     showgrid="false"
     inkscape:zoom="0.11485966"
     inkscape:cx="1291.7364"
     inkscape:cy="2137.176"
     inkscape:window-x="-8"
     inkscape:window-y="-8"
     inkscape:window-maximized="1"
     inkscape:current-layer="g131" />
  <defs
     id="defs21">
    <filter
       id="filter1721"
       x="-.019357"
       y="-.027732"
       width="1.0387"
       height="1.0555"
       color-interpolation-filters="sRGB">
      <feGaussianBlur
         stdDeviation="2.6487796"
         id="feGaussianBlur2" />
    </filter>
    <clipPath
       id="clipPath2494">
      <ellipse
         cx="150.92"
         cy="260.83"
         rx="387.83"
         ry="99.023"
         id="ellipse5" />
    </clipPath>
    <filter
       id="filter2870"
       x="-.02224"
       y="-.18046"
       width="1.0445"
       height="1.3609"
       color-interpolation-filters="sRGB">
      <feGaussianBlur
         stdDeviation="7.1878507"
         id="feGaussianBlur8" />
    </filter>
    <radialGradient
       id="radialGradient1075"
       cx="101.25"
       cy="110.42"
       r="149.91"
       gradientTransform="matrix(.86937 0 0 .86937 62.479 46.072)"
       gradientUnits="userSpaceOnUse">
      <stop
         stop-color="#f9f9f9"
         offset="0"
         id="stop11" />
      <stop
         stop-color="#fff"
         stop-opacity=".98824"
         offset=".48772"
         id="stop13" />
      <stop
         offset="1"
         id="stop15" />
    </radialGradient>
    <mask
       id="mask1071"
       maskUnits="userSpaceOnUse">
      <circle
         cx="150.5"
         cy="142.07"
         r="130.33"
         fill="url(#radialGradient1075)"
         id="circle18" />
    </mask>
  </defs>
  <metadata
     id="metadata23">
    <rdf:RDF>
      <cc:Work
         rdf:about="">
        <dc:format>image/svg+xml</dc:format>
        <dc:type
           rdf:resource="http://purl.org/dc/dcmitype/StillImage" />
        <dc:title></dc:title>
      </cc:Work>
    </rdf:RDF>
  </metadata>
  <rect
     transform="translate(9.9753)"
     x="-135.07"
     y="-102.96"
     width="562.49"
     height="335.94"
     fill="#050505"
     fill-opacity=".98889"
     mask="url(#mask1071)"
     id="rect25" />
  <path
     d="m-1.5797-21.348v229.23h328.41v-229.23zm161 78.862v1e-3c16.918 0.05327 34.099 6.1771 43.952 20.462 12.153 17.564 7.2896 44.563-11.025 56.03-4.1653 2.9487-9.0329 4.9014-13.769 6.4962 5.9837-0.76773 13.741 2.172 18.374-2.6696 1.768-2.917-0.23257-5.7341 5.008-3.9987h8.816v26.701h-103.7v-26.366h12.789c-0.98755 4.8233 2.4684 7.0147 7.6052 6.3014 3.6925 0.17308 8.3335 0.0377 11.239-0.0155-17.595-4.3975-32.223-21.014-31.382-39.639-0.39012-21.198 18.036-38.608 38.11-41.965 4.5288-0.89108 9.2456-1.3518 13.983-1.3369z"
     id="path27"
     filter="url(#filter1721)"
     fill-opacity=".56111"
     fill="#fff" />
  <ellipse
     cx="184.54"
     cy="162.91"
     rx="12.906"
     ry="12.095"
     id="ellipse29" />
  <ellipse
     cx="184.54"
     cy="162.91"
     rx="12.906"
     ry="12.095"
     id="ellipse31" />
  <g
     transform="translate(9.9753)"
     stroke-width=".26458"
     id="g51">
    <path
       d="m158.87 131.11a2.2864 2.9577 0 0 0-2.2861 2.958 2.2864 2.9577 0 0 0 0.53432 1.8996 2.2864 2.9577 0 0 0-0.25838 1.3637 2.2864 2.9577 0 0 0 0.13798 1.001 2.0893 2.7027 0 0 0-0.57155 1.8546 2.0893 2.7027 0 0 0 0.18035 1.0945 2.3258 3.0085 0 0 0-0.33795 1.557 2.3258 3.0085 0 0 0 0.31213 1.5001 2.2469 2.9067 0 0 0-0.35192 1.5596 2.2469 2.9067 0 0 0 0.13126 0.96736 2.2075 2.8556 0 0 0-0.48575 1.7864 2.2075 2.8556 0 0 0 0.46355 1.7456 2.0499 2.6516 0 0 0-0.22686 1.2118 2.0499 2.6516 0 0 0 0.25631 1.2831 2.2469 2.9067 0 0 0-0.41444 1.6748 2.2469 2.9067 0 0 0 2.2474 2.9062 2.2469 2.9067 0 0 0 2.2469-2.9062 2.2469 2.9067 0 0 0-0.45939-1.7549 2.0499 2.6516 0 0 0 0.22272-1.203 2.0499 2.6516 0 0 0-0.29712-1.3679 2.2075 2.8556 0 0 0 0.37621-1.5895 2.2075 2.8556 0 0 0-0.10594-0.8692 2.2469 2.9067 0 0 0 0.5395-1.8846 2.2469 2.9067 0 0 0-0.24236-1.3059 2.3258 3.0085 0 0 0 0.43926-1.7539 2.3258 3.0085 0 0 0-0.43719-1.7513 2.0893 2.7027 0 0 0 0.12195-0.90018 2.0893 2.7027 0 0 0-0.0419-0.53794 2.2864 2.9577 0 0 0 0.8697-2.3177 2.2864 2.9577 0 0 0-0.53432-1.8996 2.2864 2.9577 0 0 0 0.25838-1.3637 2.2864 2.9577 0 0 0-2.2867-2.958z"
       fill="#fff"
       id="path33" />
    <path
       d="m141 129.07a3.112 2.7316 77.655 0 0-2.6327 3.0562 3.112 2.7316 77.655 0 0 0.36346 1.4315 3.112 2.7316 77.655 0 0-0.568 1.9794 3.112 2.7316 77.655 0 0 1.1346 2.4403 2.8438 2.4961 77.655 0 0-0.0289 0.56293 2.8438 2.4961 77.655 0 0 0.18128 0.94429 3.1659 2.7787 77.655 0 0-0.45745 1.8255 3.1659 2.7787 77.655 0 0 0.59646 1.8427 3.0584 2.6845 77.655 0 0-0.24037 1.3627 3.0584 2.6845 77.655 0 0 0.72143 1.9819 3.0048 2.6374 77.655 0 0-0.0934 0.9077 3.0048 2.6374 77.655 0 0 0.51343 1.67 2.7901 2.449 77.655 0 0-0.30403 1.4271 2.7901 2.449 77.655 0 0 0.31509 1.2624 3.0584 2.6845 77.655 0 0-0.48393 1.8288 3.0584 2.6845 77.655 0 0 2.813 3.0811 3.0584 2.6845 77.655 0 0 2.5874-3.0034 3.0584 2.6845 77.655 0 0-0.56238-1.7604 2.7901 2.449 77.655 0 0 0.25816-1.3376 2.7901 2.449 77.655 0 0-0.32012-1.2733 3.0048 2.6374 77.655 0 0 0.48949-1.8183 3.0048 2.6374 77.655 0 0-0.6535-1.8777 3.0584 2.6845 77.655 0 0 0.12027-1.0104 3.0584 2.6845 77.655 0 0-0.48279-1.6384 3.1659 2.7787 77.655 0 0 0.31635-1.5642 3.1659 2.7787 77.655 0 0-0.46726-1.6357 2.8438 2.4961 77.655 0 0 0.1745-1.1423 2.8438 2.4961 77.655 0 0-0.75865-1.9518 3.112 2.7316 77.655 0 0 0.12644-1.0445 3.112 2.7316 77.655 0 0-0.36345-1.4315 3.112 2.7316 77.655 0 0 0.56852-1.9794 3.112 2.7316 77.655 0 0-2.8629-3.1352z"
       fill="#fff"
       stroke-width=".26458"
       id="path35" />
    <path
       d="m142.4 129.36a3.1033 2.7239 76.831 0 0-2.5812 3.085 3.1033 2.7239 76.831 0 0 0.38293 1.4221 3.1033 2.7239 76.831 0 0-0.53795 1.9818 3.1033 2.7239 76.831 0 0 1.1663 2.4169 2.8358 2.4891 76.831 0 0-0.0207 0.56171 2.8358 2.4891 76.831 0 0 0.1943 0.93894 3.157 2.7709 76.831 0 0-0.42994 1.8267 3.157 2.7709 76.831 0 0 0.62115 1.8288 3.0498 2.677 76.831 0 0-0.22013 1.3622 3.0498 2.677 76.831 0 0 0.74775 1.9658 2.9964 2.63 76.831 0 0-0.0801 0.9064 2.9964 2.63 76.831 0 0 0.53588 1.6578 2.7823 2.4421 76.831 0 0-0.28268 1.4273 2.7823 2.4421 76.831 0 0 0.33228 1.2542 3.0498 2.677 76.831 0 0-0.45629 1.8304 3.0498 2.677 76.831 0 0 2.849 3.0318 3.0498 2.677 76.831 0 0 2.5368-3.0318 3.0498 2.677 76.831 0 0-0.58599-1.7472 2.7823 2.4421 76.831 0 0 0.23823-1.3374 2.7823 2.4421 76.831 0 0-0.33745-1.265 2.9964 2.63 76.831 0 0 0.46199-1.82 2.9964 2.63 76.831 0 0-0.67852-1.8629 3.0498 2.677 76.831 0 0 0.10542-1.0092 3.0498 2.677 76.831 0 0-0.50487-1.6267 3.157 2.7709 76.831 0 0 0.29299-1.5642 3.157 2.7709 76.831 0 0-0.48936-1.6242 2.8358 2.4891 76.831 0 0 0.15761-1.1415 2.8358 2.4891 76.831 0 0-0.78443-1.9352 3.1033 2.7239 76.831 0 0 0.1111-1.0433 3.1033 2.7239 76.831 0 0-0.38292-1.4221 3.1033 2.7239 76.831 0 0 0.53847-1.9818 3.1033 2.7239 76.831 0 0-2.8995-3.085z"
       id="path37" />
    <path
       d="m156.37 130.67a2.7408 2.6815 5.0964 0 0-2.7299 2.682 2.7408 2.6815 5.0964 0 0 0.64751 1.7224 2.7408 2.6815 5.0964 0 0-0.30488 1.2371 2.7408 2.6815 5.0964 0 0 0.16898 0.9069 2.5045 2.4504 5.0964 0 0-0.67851 1.6826 2.5045 2.4504 5.0964 0 0 0.22065 0.99271 2.7881 2.7278 5.0964 0 0-0.39996 1.4118 2.7881 2.7278 5.0964 0 0 0.3793 1.3601 2.6934 2.6353 5.0964 0 0-0.41547 1.4144 2.6934 2.6353 5.0964 0 0 0.16019 0.87746 2.6463 2.589 5.0964 0 0-0.57567 1.6195 2.6463 2.589 5.0964 0 0 0.56223 1.5828 2.4573 2.4041 5.0964 0 0-0.2682 1.0992 2.4573 2.4041 5.0964 0 0 0.31159 1.1627 2.6934 2.6353 5.0964 0 0-0.48989 1.5193 2.6934 2.6353 5.0964 0 0 2.7032 2.636 2.6934 2.6353 5.0964 0 0 2.6831-2.636 2.6934 2.6353 5.0964 0 0-0.55708-1.5911 2.4573 2.4041 5.0964 0 0 0-5.3e-4 2.4573 2.4041 5.0964 0 0 0.26252-1.0904 2.4573 2.4041 5.0964 0 0-0.36017-1.2407 2.6463 2.589 5.0964 0 0 0.44441-1.4412 2.6463 2.589 5.0964 0 0-0.13022-0.78858 2.6934 2.6353 5.0964 0 0 0.63975-1.7084 2.6934 2.6353 5.0964 0 0-0.29506-1.1844 2.7881 2.7278 5.0964 0 0 0.52038-1.5901 2.7881 2.7278 5.0964 0 0-0.53019-1.588 2.5045 2.4504 5.0964 0 0 0.14314-0.81647 2.5045 2.4504 5.0964 0 0-0.0522-0.48834 2.7408 2.6815 5.0964 0 0 1.034-2.1011 2.7408 2.6815 5.0964 0 0-0.64751-1.7229 2.7408 2.6815 5.0964 0 0 0.3049-1.2366 2.7408 2.6815 5.0964 0 0-2.7506-2.682z"
       id="path39" />
    <path
       d="m142.47 131.16a2.8593 2.6262 43.782 0 0-2.5073 2.7397 2.8593 2.6262 43.782 0 0 0.41753 1.2635 2.8593 2.6262 43.782 0 0-0.49093 1.7606 2.8593 2.6262 43.782 0 0 1.2247 2.1471 2.6129 2.3998 43.782 0 0-7e-3 0.49868 2.6129 2.3998 43.782 0 0 0.21703 0.83406 2.9088 2.6715 43.782 0 0-0.38602 1.6226 2.9088 2.6715 43.782 0 0 0.66508 1.6247 2.8101 2.5809 43.782 0 0-0.18758 1.2102 2.8101 2.5809 43.782 0 0 0.7953 1.7456 2.7609 2.5356 43.782 0 0-0.0584 0.80562 2.7609 2.5356 43.782 0 0 0.57567 1.4728 2.5636 2.3545 43.782 0 0-0.24804 1.2676 2.5636 2.3545 43.782 0 0 0.36224 1.1141 2.8101 2.5809 43.782 0 0-0.41238 1.6262 2.8101 2.5809 43.782 0 0 2.9223 2.6929 2.8101 2.5809 43.782 0 0 2.4639-2.6929 2.8101 2.5809 43.782 0 0-0.62838-1.5518 2.5636 2.3545 43.782 0 0 0.20619-1.1885 2.5636 2.3545 43.782 0 0-0.36793-1.1234 2.7609 2.5356 43.782 0 0 0.41807-1.6169 2.7609 2.5356 43.782 0 0-0.72294-1.6552 2.8101 2.5809 43.782 0 0 0.0806-0.89605 2.8101 2.5809 43.782 0 0-0.54413-1.4454 2.9088 2.6715 43.782 0 0 0.25579-1.3896 2.9088 2.6715 43.782 0 0-0.52863-1.4423 2.6129 2.3998 43.782 0 0 0.13023-1.0144 2.6129 2.3998 43.782 0 0-0.83094-1.7187 2.8593 2.6262 43.782 0 0 0.0863-0.92706 2.8593 2.6262 43.782 0 0-0.41754-1.2635 2.8593 2.6262 43.782 0 0 0.49093-1.7606 2.8593 2.6262 43.782 0 0-2.9734-2.7397z"
       fill="#fff"
       id="path41" />
    <path
       d="m155.12 131.01a2.1184 2.7403 0 0 0-2.1187 2.7402 2.1184 2.7403 0 0 0 0.49506 1.7606 2.1184 2.7403 0 0 0-0.23926 1.2635 2.1184 2.7403 0 0 0 0.12764 0.92707 1.9358 2.5041 0 0 0-0.52916 1.7187 1.9358 2.5041 0 0 0 0.16691 1.0144 2.1549 2.7876 0 0 0-0.31316 1.4423 2.1549 2.7876 0 0 0 0.28887 1.3901 2.0818 2.6932 0 0 0-0.32556 1.4448 2.0818 2.6932 0 0 0 0.12143 0.89659 2.0453 2.6458 0 0 0-0.4501 1.6546 2.0453 2.6458 0 0 0 0.42941 1.6169 1.8992 2.4568 0 0 0-0.21032 1.1234 1.8992 2.4568 0 0 0 0.23771 1.188 2.0818 2.6932 0 0 0-0.38343 1.5523 2.0818 2.6932 0 0 0 2.0815 2.6929 2.0818 2.6932 0 0 0 2.082-2.6929 2.0818 2.6932 0 0 0-0.42581-1.6262 1.8992 2.4568 0 0 0 0-5.3e-4 1.8992 2.4568 0 0 0 0.2067-1.1136 1.8992 2.4568 0 0 0-0.27493-1.2676 2.0453 2.6458 0 0 0 0.34779-1.4728 2.0453 2.6458 0 0 0-0.0982-0.80562 2.0818 2.6932 0 0 0 0.50021-1.7456 2.0818 2.6932 0 0 0-0.22479-1.2102 2.1549 2.7876 0 0 0 0.40722-1.6247 2.1549 2.7876 0 0 0-0.40513-1.6226 1.9358 2.5041 0 0 0 0.11317-0.83404 1.9358 2.5041 0 0 0-0.0387-0.49868 2.1184 2.7403 0 0 0 0.80562-2.1471 2.1184 2.7403 0 0 0-0.49506-1.7606 2.1184 2.7403 0 0 0 0.23926-1.2635 2.1184 2.7403 0 0 0-2.1182-2.7402z"
       fill="#fff"
       id="path43" />
    <path
       d="m144.79 128.7a2.7403 3.0847 0 0 0-2.7402 3.085 2.7403 3.0847 0 0 0 0.30953 1.4221 2.7403 3.0847 0 0 0-0.64026 1.9818 2.7403 3.0847 0 0 0 1.0423 2.4174 2.5041 2.8188 0 0 0-0.0501 0.5612 2.5041 2.8188 0 0 0 0.14572 0.93894 2.7876 3.1379 0 0 0-0.524 1.8267 2.7876 3.1379 0 0 0 0.5271 1.8288 2.6932 3.0316 0 0 0-0.29094 1.3622 2.6932 3.0316 0 0 0 0.64698 1.9652 2.6458 2.9784 0 0 0-0.12712 0.9069 2.6458 2.9784 0 0 0 0.45061 1.6578 2.4568 2.7657 0 0 0-0.35605 1.4273 2.4568 2.7657 0 0 0 0.26717 1.2542 2.6932 3.0316 0 0 0-0.55085 1.8304 2.6932 3.0316 0 0 0 2.6934 3.0318 2.6932 3.0316 0 0 0 2.6929-3.0318 2.6932 3.0316 0 0 0-0.49556-1.7467 2.4568 2.7657 0 0 0 0.30696-1.3379 2.4568 2.7657 0 0 0-0.27283-1.2645 2.6458 2.9784 0 0 0 0.55604-1.8206 2.6458 2.9784 0 0 0-0.58186-1.8629 2.6932 3.0316 0 0 0 0.15658-1.0092 2.6932 3.0316 0 0 0-0.42063-1.6262 2.7876 3.1379 0 0 0 0.37361-1.5648 2.7876 3.1379 0 0 0-0.40565-1.6242 2.5041 2.8188 0 0 0 0.21652-1.1415 2.5041 2.8188 0 0 0-0.68471-1.9347 2.7403 3.0847 0 0 0 0.16484-1.0438 2.7403 3.0847 0 0 0-0.30953-1.4226 2.7403 3.0847 0 0 0 0.64026-1.9813 2.7403 3.0847 0 0 0-2.7397-3.085z"
       id="path45" />
    <path
       d="m152.54 128.27a3.1033 2.7239 76.831 0 0-2.5812 3.085 3.1033 2.7239 76.831 0 0 0.74257 1.9818 3.1033 2.7239 76.831 0 0-0.23667 1.4221 3.1033 2.7239 76.831 0 0 0.2191 1.0434 2.8358 2.4891 76.831 0 0-0.58496 1.9352 2.8358 2.4891 76.831 0 0 0.27543 1.1415 3.157 2.7709 76.831 0 0-0.32194 1.6242 3.157 2.7709 76.831 0 0 0.45423 1.5642 3.0498 2.677 76.831 0 0-0.33691 1.6267 3.0498 2.677 76.831 0 0 0.20877 1.0092 2.9964 2.63 76.831 0 0-0.48628 1.8629 2.9964 2.63 76.831 0 0 0.65008 1.8206 2.7823 2.4421 76.831 0 0-0.20722 1.2645 2.7823 2.4421 76.831 0 0 0.3762 1.3379 3.0498 2.677 76.831 0 0-0.40618 1.7466 3.0498 2.677 76.831 0 0 2.849 3.0318 3.0498 2.677 76.831 0 0 2.5368-3.0318 3.0498 2.677 76.831 0 0-0.64492-1.8304 2.7823 2.4421 76.831 0 0 0.20257-1.2542 2.7823 2.4421 76.831 0 0-0.42941-1.4273 2.9964 2.63 76.831 0 0 0.36483-1.6578 2.9964 2.63 76.831 0 0-0.17363-0.9069 3.0498 2.677 76.831 0 0 0.54569-1.9652 3.0498 2.677 76.831 0 0-0.3612-1.3622 3.157 2.7709 76.831 0 0 0.43253-1.8288 3.157 2.7709 76.831 0 0-0.61753-1.8262 2.8358 2.4891 76.831 0 0 0.0971-0.93947 2.8358 2.4891 76.831 0 0-0.0791-0.5617 3.1033 2.7239 76.831 0 0 0.91778-2.4169 3.1033 2.7239 76.831 0 0-0.74257-1.9818 3.1033 2.7239 76.831 0 0 0.23615-1.4221 3.1033 2.7239 76.831 0 0-2.899-3.085z"
       id="path47" />
    <path
       d="m161.4 137.85c-0.0592 0.11208-0.12366 0.22146-0.19585 0.32607a6.1473 6.1473 0 0 0 0.14314-0.0336 2.2864 2.9577 0 0 0 0.0527-0.29249z"
       fill="#fff"
       id="path49" />
  </g>
  <circle
     cx="143.71"
     cy="95.25"
     r="19.466"
     fill="#f3a80d"
     id="circle53" />
  <path
     d="m158.02 129.69a3.2845 2.7403 0 0 0-3.2846 2.7404 3.2845 2.7403 0 0 0 0.37104 1.2635 3.2845 2.7403 0 0 0-0.7674 1.7606 3.2845 2.7403 0 0 0 1.2495 2.1472 3.0014 2.5041 0 0 0-0.0605 0.49868 3.0014 2.5041 0 0 0 0.17518 0.83405 3.3411 2.7876 0 0 0-0.62839 1.6226 3.3411 2.7876 0 0 0 0.63149 1.6247 3.2279 2.6931 0 0 0-0.3483 1.2103 3.2279 2.6931 0 0 0 0.77514 1.7456 3.1712 2.6458 0 0 0-0.15193 0.80564 3.1712 2.6458 0 0 0 0.5395 1.4723 2.9447 2.4568 0 0 0-0.42633 1.2681 2.9447 2.4568 0 0 0 0.32039 1.1136 3.2279 2.6931 0 0 0-0.66043 1.6268 3.2279 2.6931 0 0 0 3.2282 2.6929 3.2279 2.6931 0 0 0 3.2277-2.6929 3.2279 2.6931 0 0 0-0.59479-1.5524 2.9447 2.4568 0 0 0 0.36845-1.188 2.9447 2.4568 0 0 0-0.32659-1.1234 3.1712 2.6458 0 0 0 0.66611-1.617 3.1712 2.6458 0 0 0-0.69764-1.6547 3.2279 2.6931 0 0 0 0.18811-0.89659 3.2279 2.6931 0 0 0-0.50488-1.4454 3.3411 2.7876 0 0 0 0.44803-1.3896 3.3411 2.7876 0 0 0-0.48576-1.4428 3.0014 2.5041 0 0 0 0.25942-1.0139 3.0014 2.5041 0 0 0-0.82114-1.7182 3.2845 2.7403 0 0 0 0.19844-0.9276 3.2845 2.7403 0 0 0-0.37156-1.264 3.2845 2.7403 0 0 0 0.76792-1.7601 3.2845 2.7403 0 0 0-3.2846-2.7404z"
     id="path55" />
  <g
     transform="translate(59.231 31.65)"
     fill="#fff"
     id="g67">
    <path
       transform="scale(.26458)"
       d="m390.36 365.2a11.729 10.295 76.831 0 0-9.3047 7.5781 12.414 10.357 0 0 0-7.6758-2.2207 12.414 10.357 0 0 0-4.2266 0.63281 10.357 11.659 0 0 0-8.0781-4.3828 10.357 11.659 0 0 0-7.6602 3.8301 11.729 10.295 76.831 0 0-6.627-2.5801 11.729 10.295 76.831 0 0-9.7559 11.66 11.729 10.295 76.831 0 0 1.4473 5.375 11.729 10.295 76.831 0 0-2.0332 7.4902 11.729 10.295 76.831 0 0 0.11523 1.1777c5.19-1.5262 9.7805-4.9325 12.938-9.2832 3.4823-2.9662 7.941-5.3123 12.393-3.3887 3.8713-0.0922 8.8244-0.16138 11.033-3.9805 4.644 2.1418 9.9445 4.0992 15.133 3.5 3.7886-1.3479 4.9004 4.9336 7.1543 6.8555 2.5748 3.4872 6.7232 4.8252 10.707 5.3496 2.9114 0.90856 6.3382-0.49063 8.459 2.3008 2.8651 1.6568 6.1182 1.7719 9.3106 1.4531a8.6415 11.179 0 0 0-0.0391-0.20312 10.359 10.135 5.0964 0 0 0.01-0.19727 10.359 10.135 5.0964 0 0-1.332-4.9277 8.6415 11.179 0 0 0 0.61914-4.1445 8.6415 11.179 0 0 0-1.7148-6.6621 10.359 10.135 5.0964 0 0-9.2637-5.5879 10.359 10.135 5.0964 0 0-7.0703 2.7559 8.0066 10.357 0 0 0-3.6973-1.9395 11.729 10.295 76.831 0 0-10.84-10.461z"
       id="path57" />
    <path
       d="m103.26 96.625c-0.95607 0.0011-1.8147 0.55956-2.2688 1.476 0.15854 0.09649 0.31168 0.20035 0.45231 0.31767 0.72504 0.60478 1.1734 1.488 1.1734 2.3895-2.5e-4 0.68317-0.29786 1.3328-0.73931 1.8805 0.16579 0.37546 0.33973 0.7555 0.34003 1.1615v4e-3c-1e-3 0.27223-0.0916 0.53299-0.16897 0.79545 0.42569 0.47757 0.72872 1.0525 0.78454 1.6652 0.0237 0.0206 0.0479 0.0406 0.0728 0.0598-0.0486 0.1192-0.0737 0.24666-0.0738 0.37538 0 0.55131 0.4469 0.99821 0.99821 0.99821 0.5513 0 0.9982-0.4469 0.9982-0.99821-5.3e-4 -0.10899-0.0187-0.21717-0.0541-0.32025-0.14596-0.40237 0.45608-0.35571 0.9883-0.84483 0.63092-0.58759 0.97103-1.4833 0.92336-2.4316-0.0376-0.72917-0.30213-1.435-0.74709-1.9938 0.1815-0.44188 0.26299-0.93262 0.23759-1.4308-0.0882-1.714-1.394-3.1035-2.9166-3.1038zm-7.7953 0.42787c-1.5227-4.8e-5 -2.7572 1.3896-2.7569 3.1038 2.66e-4 0.49815 0.10712 0.98889 0.31142 1.4308-0.41611 0.55878-0.64415 1.2647-0.64415 1.9938 0.0011 0.94848 0.38733 1.8444 1.0487 2.4321 0.31895 0.2817 0.93459 0.44591 1.3757 0.45127 0.06793-8e-4 0.13578-5e-3 0.20328-0.0125 0.05891 0.41773 0.31937 0.77983 0.69667 0.96858 0.03692-0.0585 0.07484-0.11639 0.1149-0.17312-0.0702-0.24143-0.15212-0.48276-0.15337-0.73306v-2e-3c1.23e-4 -0.10693 0.02452-0.21195 0.03743-0.31818-0.7235-0.60957-1.2316-1.4416-1.2322-2.3442-2.66e-4 -0.68336 0.29547-1.3324 0.7367-1.8805-0.16579-0.37546-0.33971-0.7555-0.34-1.1615 3.7e-5 -0.90143 0.44837-1.7847 1.1734-2.3895 0.34088-0.28434 0.74112-0.50632 1.1713-0.66444-0.49176-0.45284-1.1074-0.70058-1.7427-0.70135z"
       stroke-width=".26458"
       id="path59" />
    <path
       transform="scale(.26458)"
       d="m403.32 376.42c8e-3 0.11018 0.0256 0.21978 0.0312 0.33007a2.039 2.039 0 0 0 2e-3 2e-3c0.0914 1.7917-0.21478 3.5625-0.75586 5.2363 1.5109 2.2564 2.5268 4.892 2.668 7.627a2.039 2.039 0 0 1 2e-3 4e-3c0.18288 3.6372-1.0801 7.2341-3.3691 9.8379 0.0725 0.47204 0.17478 0.9401 0.19922 1.416a2.039 2.039 0 0 1 0 6e-3c0.0543 1.1052-0.1324 2.1928-0.33984 3.2676 0.12881 0.21251 0.2493 0.43013 0.36914 0.64844a6.0714 6.0714 0 0 0 2.9316-1.166 5.8929 5.8929 0 0 0 1.0156 2.623 4.8214 4.8214 0 0 0-0.71485 2.5156 4.8214 4.8214 0 0 0 0.99414 2.9238 8.1446 10.536 0 0 0-0.57031-1.1992 7.3164 9.4643 0 0 0 0.42773-3.1523 7.3164 9.4643 0 0 0-0.14648-1.8848 8.0066 10.357 0 0 0 3.0449-8.1152 8.0066 10.357 0 0 0-1.8711-6.6543 8.0066 10.357 0 0 0 0.90429-4.7754 8.0066 10.357 0 0 0-4.8223-9.4902zm-54.531 0.32617a10.807 9.9258 43.782 0 0-5.9414 9.6992 10.807 9.9258 43.782 0 0 1.5781 4.7754 10.807 9.9258 43.782 0 0-1.8555 6.6543 10.807 9.9258 43.782 0 0 0.0977 0.71485 4.4643 4.4643 0 0 0 0.0117 0 4.4643 4.4643 0 0 0 2.7949-0.98633 5.1786 8.3791 0 0 0 1.4668 2.4062 4.1071 4.1071 0 0 0-0.33203 1.6152 4.1071 4.1071 0 0 0 4.1074 4.1074 4.1071 4.1071 0 0 0 0.36719-0.0195 3.0357 3.0357 0 0 0-0.36719 1.4473 3.0357 3.0357 0 0 0 0.0664 0.62305c0.26-0.66365 0.55822-1.3114 0.90039-1.9316-0.26209-1.0699-0.50283-2.1536-0.50586-3.2598a2.039 2.039 0 0 1 0-6e-3c0-0.48094 0.0795-0.95558 0.12891-1.4336-2.42-2.5759-3.8749-6.1622-3.8789-9.8223a2.039 2.039 0 0 0 0-2e-3c-1e-5 -2.7216 0.87983-5.3612 2.2734-7.6328-0.62627-1.666-1.0223-3.4333-1.0234-5.2305a2.039 2.039 0 0 0 0-2e-3c-4e-5 -0.57439 0.0447-1.147 0.11133-1.7168z"
       id="path61" />
    <path
       transform="scale(.26458)"
       d="m373.38 372.34c-2.8617-4.7e-4 -5.6939 0.99532-7.6406 2.6191-1.9467 1.6238-2.998 3.8034-2.998 5.957 9.4e-4 1.3143 0.37799 2.6285 1.1289 3.832 0.44262 0.70371 0.33881 1.6202-0.25 2.207-1.5541 1.5494-2.3701 3.4771-2.3691 5.3887 2e-3 2.4716 1.4148 4.9851 3.9199 6.6367 2.9339 1.8434 2.3379 3.5206 3.3359 4.4414 1.0067 1.024 2.3824 1.601 3.8184 1.6016 0.043-7.9e-4 0.0859-2e-3 0.1289-4e-3 -0.75889 0.60968-1.2006 1.5304-1.2012 2.5039-3.1e-4 1.7756 1.4392 3.2152 3.2148 3.2148 1.533 4e-5 2.8527-1.0825 3.1524-2.5859 2.006-0.3963 3.4526-2.1545 3.4551-4.1992-6.9e-4 -2.0244-1.4179-3.7723-3.3984-4.1914 2e-3 -0.0319 3e-3 -0.0638 4e-3 -0.0957 2.2e-4 -0.65844-0.12095-1.3113-0.35742-1.9258 1.9112-1.4502 3.0347-3.7103 3.0371-6.1094-1e-3 -1.7176-0.57809-3.3853-1.6387-4.7363 0.92132-0.22556 1.828-0.50734 2.7148-0.84374 0.0717 0.0806 0.14398 0.16066 0.2168 0.24023 1.5475-1.5465 2.3626-3.4685 2.3633-5.375-1.1e-4 -2.1536-1.0513-4.3332-2.998-5.957-1.9468-1.6238-4.7769-2.6196-7.6387-2.6191zm-6.0762 25.479c-3e-3 6e-3 -5e-3 0.013-8e-3 0.0195-5e-3 -5e-3 -0.0104-9e-3 -0.0156-0.0137 8e-3 -2e-3 0.0156-4e-3 0.0234-6e-3z"
       id="path63" />
    <path
       transform="scale(.26458)"
       d="m346.79 368.05a11.729 10.295 76.831 0 0-9.7559 11.66 11.729 10.295 76.831 0 0 1.4473 5.375 11.729 10.295 76.831 0 0-2.0332 7.4902 11.729 10.295 76.831 0 0 0.13867 1.2969 23.234 23.234 0 0 0 1.6504-0.13086 4.4643 4.4643 0 0 0-0.0176 0.38086 4.4643 4.4643 0 0 0 2.8691 4.1699c-0.0109-0.0967-0.0326-0.19211-0.041-0.28907a1.5308 1.5308 0 0 0 0-2e-3c-0.20475-2.4102 0.48147-4.771 1.707-6.7832-0.75591-1.4633-1.291-3.0336-1.4297-4.6445a1.5308 1.5308 0 0 0 0-2e-3c-0.26398-3.1077 0.75784-6.2456 2.8066-8.4844 1.3236-1.4463 3.0615-2.4896 4.9629-3.0527 0.48349-2.0481 1.3849-3.981 2.6543-5.5938a11.729 10.295 76.831 0 0-4.959-1.3906zm65.18 6.7871a10.359 10.135 5.0964 0 0-5.8691 1.7891c0.32308 0.31791 0.62996 0.65645 0.91211 1.0215 1.7192 2.2242 2.6641 5.2386 2.6641 8.2598-7.4e-4 1.6081-0.31187 3.1959-0.82227 4.6816 1.1125 2 1.7891 4.3443 1.7891 6.748a1.5308 1.5308 0 0 0 0 2e-3c-3e-3 3.1897-1.1113 6.324-3.0098 8.5762 0.0494 0.47285 0.11134 0.94532 0.11132 1.4219a1.5308 1.5308 0 0 1 0 4e-3c-3e-3 1.0047-0.18338 1.9938-0.40429 2.9629 0.45862 0.92619 0.82257 1.9187 1.0801 2.9473a4.8214 4.8214 0 0 0 1.7617 0.33594 4.8214 4.8214 0 0 0 4.8223-4.8223 4.8214 4.8214 0 0 0-0.23438-1.4629 5.8929 5.8929 0 0 0 0.35547-0.33398 7.5 7.5 0 0 0 0.23633 0.0117 7.5 7.5 0 0 0 4.5586-1.5645 9.466 9.2613 5.0964 0 0-0.16797-1.3144 10.359 10.135 5.0964 0 0 3.9082-7.9414 10.359 10.135 5.0964 0 0-2.4473-6.5117 10.359 10.135 5.0964 0 0 1.1524-4.6738 10.359 10.135 5.0964 0 0-10.396-10.137z"
       id="path65" />
  </g>
  <path
     d="m123.97 108.2c0.68077 3.7928 2.165 7.4511 3.8403 10.864-0.55226 1.5793 0.3944 3.3667 1.8632 4.0577 0.1876 1.1873 1.4587 1.8729 2.1785 2.4604-0.17906 1.0126 1.1684 1.5303 0.66149 2.4435-0.22481 1.4346 1.0603 2.851 2.5461 2.8066 0.53806 2.1148 2.8059 3.6156 5.0158 3.3173 1.1099 0.99614 2.7716 1.3438 4.2058 0.89571 2.3839 1.1622 5.5314 0.24882 6.9135-1.9676 1.1163-0.71229 2.1871-1.7924 3.5694-1.1117 0.98657-0.0937 2.3915 0.10382 2.8075-1.078 0.33058-0.28233 1.1956 0.58946 1.7737 0.52905 0.97678 0.21719 2.029 0.83485 3.0026 0.1675 0.74108 0.55949 1.2478 1.1179 1.5823 1.939 0.6474 0.73679 1.4533 1.5631 2.5654 1.3931 0.76685 0.58177 1.766-0.16615 2.374 0.66081 1.2383 0.82353 2.9081 0.52536 4.1117 0.0858 1.3278 1.0713 3.2724 0.40427 4.2524-0.61178 1.3027 0.30853 2.0793-0.92625 3.2504-1.1424 1.0282-0.39735 1.2112-1.647 2.2773-1.9298 0.99884-0.53744 1.3997-1.7435 1.7288-2.6166 1.574-0.36461 2.5632-1.7129 3.4256-2.8704 0.72636-0.4082 0.97506-1.2982 1.0809-1.99 1.4324-0.75654 2.3763-2.3013 2.3751-3.8917 1.5888-0.7422 2.0442-2.6265 1.7314-4.1598 4.8529-18.734-54.828-8.89-69.284-8.8906 0.0502 0.21328 0.1004 0.42657 0.1506 0.63986z"
     fill="#fff"
     id="path69" />
  <g
     stroke-width=".26458"
     id="g77">
    <path
       d="m159.84 66.334a35.53 35.53 0 0 0-35.53 35.53 35.53 35.53 0 0 0 4.4389 17.127 2.8397 2.8397 0 0 0-0.23099 1.1214 2.8397 2.8397 0 0 0 1.9068 2.6789 2.8397 2.8397 0 0 0 2.3208 2.3549 1.804 1.804 0 0 0-0.0853 0.5457 1.804 1.804 0 0 0 1.0237 1.6236 2.0045 2.0045 0 0 0-0.38861 1.1824 2.0045 2.0045 0 0 0 2.0045 2.0045 2.0045 2.0045 0 0 0 0.41806-0.0465 4.0592 4.0592 0 0 0 4.0084 3.4374 4.0592 4.0592 0 0 0 0.7064-0.0625 3.792 3.792 0 0 0 2.7011 1.1317 3.792 3.792 0 0 0 1.3095-0.23616 4.8775 4.8775 0 0 0 2.2484 0.55345 4.8775 4.8775 0 0 0 4.1692-2.3575 12.095 12.095 0 0 0 2.1084-1.5265 5.5459 5.5459 0 0 0 0.87177 0.0754 5.5459 5.5459 0 0 0 0.54466-0.0279 1.019 1.019 0 0 0 0.64129 0.2284 1.019 1.019 0 0 0 0.61597-0.20825 1.019 1.019 0 0 0 0.4532 0.108 1.019 1.019 0 0 0 1.0191-1.019 1.019 1.019 0 0 0-0.0129-0.15503 5.5459 5.5459 0 0 0 0.30697-0.23358 5.5459 5.5459 0 0 0 2.668 1.063 1.7706 1.7706 0 0 0 1.047 0.34467 1.7706 1.7706 0 0 0 1.1922-0.46405 13.135 13.135 0 0 0 1.6929 1.5017 1.019 1.019 0 0 0-0.0119 0.1483 1.019 1.019 0 0 0 0.55345 0.90587 1.7706 1.7706 0 0 0 1.5844 0.98183 1.7706 1.7706 0 0 0 0.3452-0.0357 1.5702 1.5702 0 0 0 0.92449 0.30282 1.5702 1.5702 0 0 0 0.75964-0.19792 3.4411 3.4411 0 0 0 2.5476 1.1332 3.4411 3.4411 0 0 0 2.0128-0.65526 13.135 13.135 0 0 0 0.0207-1e-3 2.3887 2.3887 0 0 0 1.742 0.75654 2.3887 2.3887 0 0 0 2.1378-1.3301 1.6203 1.6203 0 0 0 0.76842 0.1943 1.6203 1.6203 0 0 0 1.3689-0.75654 3.0903 3.0903 0 0 0 2.5275-1.9048 3.0903 3.0903 0 0 0 2.234-2.9678 3.0903 3.0903 0 0 0-1e-3 -0.0248 4.6257 4.6257 0 0 0 3.3858-2.7797 1.7674 1.7674 0 0 0 1.1038-1.6371 1.7674 1.7674 0 0 0-0.0465-0.39324 4.0116 4.0116 0 0 0 2.4562-3.6933 4.0116 4.0116 0 0 0-0.0119-0.29868 2.854 2.854 0 0 0 1.8071-2.6545 2.854 2.854 0 0 0-0.16382-0.9436 35.53 35.53 0 0 0 3.3149-14.894 35.53 35.53 0 0 0-35.53-35.53z"
       id="path71" />
    <path
       d="m125.2 88.823c-0.45592 0.26838-0.80829 0.53971-1.4025 0.22789-1.4676-0.12982-2.7322 1.1838-2.8086 2.5699-1.6545 0.9686-2.2906 3.2721-1.3767 4.9516-0.8057 1.0186-0.24418 2.4916 0.6935 3.1254-1.4547 0.87518-2.1212 3.1279-0.93121 4.5548-0.36573 1.2028 0.49846 2.3605 1.2211 3.0778-0.18747 1.2361 0.52286 2.3725 1.5389 2.9683 0.0852 0.5426 0.55247 0.94265 1.1017 0.9431 0.17903-1.9e-4 0.35538-0.0434 0.51418-0.12609 0.16096 0.0747 0.33621 0.11368 0.51366 0.1142 0.34168-5.3e-4 0.66768-0.14347 0.89969-0.39429 0.12562 0.10147 0.25976 0.19154 0.40307 0.26613-0.18761 0.26929-0.34268 0.55983-0.46198 0.86558-0.61258 0.21469-1.023 0.79266-1.0237 1.4418 7.9e-4 0.54014 0.28637 1.0398 0.75137 1.3146-0.24069 0.27776-0.37333 0.63293-0.37362 1.0005 0 0.84477 0.68488 1.5296 1.5296 1.5296 0.19515-2e-4 0.38845-0.0377 0.56948-0.11059 0.2195 0.34788 0.60202 0.55896 1.0134 0.55915 0.12788-2.6e-4 0.25446-0.0226 0.37569-0.0631a4.5278 4.5278 0 0 1-0.44958-1.9575 4.5278 4.5278 0 0 1 3.6788-4.4437 15.539 20.197 0 0 0 0.67955-5.8534 15.539 20.197 0 0 0-6.6559-16.562z"
       fill="#fff"
       id="path73" />
    <path
       d="m125.62 111.82c-0.55785 0.1955-0.93157 0.72183-0.93224 1.313 7.2e-4 0.49188 0.26078 0.94692 0.68424 1.1972-0.21919 0.25294-0.33998 0.57638-0.34024 0.91107 0 0.76929 0.62368 1.393 1.393 1.393 0.17771-1.8e-4 0.35374-0.0343 0.5186-0.1007 0.19988 0.31679 0.54823 0.50902 0.92283 0.50918 0.12213-2.4e-4 0.24335-0.0212 0.35859-0.0617 0.0885 0.1772 0.21044 0.32998 0.35389 0.45648 2.4325-7.8489-2.3915-7.3444-2.9586-5.6174z"
       id="path75" />
  </g>
  <g
     transform="translate(59.231 31.65)"
     fill="#fff"
     id="g87">
    <path
       d="m66.951 49.642a3.2072 3.2072 0 0 0-3.2039 3.1311 4.1427 4.1427 0 0 0-1.8076 3.4168 4.1427 4.1427 0 0 0 4.1429 4.1429 4.1427 4.1427 0 0 0 4.1424-4.1429 4.1427 4.1427 0 0 0-0.43718-1.849 3.2072 3.2072 0 0 0 0.37052-1.4919 3.2072 3.2072 0 0 0-3.207-3.207z"
       id="path79" />
    <circle
       cx="81.985"
       cy="40.288"
       r="4.4768"
       id="circle81" />
    <circle
       cx="130.63"
       cy="59.397"
       r="5.4122"
       id="circle83" />
    <circle
       cx="132.78"
       cy="72.577"
       r="3.7919"
       id="circle85" />
  </g>
  <g
     transform="translate(59.231 31.65)"
     id="g105">
    <g
       fill="#fff"
       id="g97">
      <path
         transform="scale(.26458)"
         d="m417.08 130.88c-10.168 2.9946-25.085 4.7213-40.797 4.7226-14.676-3e-3 -28.705-1.5117-38.805-4.1738-0.25342 0.81395-0.38377 1.6612-0.38672 2.5137 3e-3 1.4546 0.3767 2.8844 1.0859 4.1543-1.1102 1.3575-1.7174 3.0569-1.7188 4.8106 3e-3 1.5934 0.5068 3.1456 1.4394 4.4375-0.017 0.0644-0.0293 0.12947-0.0488 0.19336-0.93907 0.20486-1.797 0.68173-2.4668 1.3711-0.86066-2.9946-3.599-5.0583-6.7148-5.0605-0.9532 3e-3 -1.8957 0.20126-2.7695 0.58203-1.8883-2.0727-4.5613-3.2557-7.3652-3.2598-4.0157 2.9e-4 -7.6403 2.4067-9.1992 6.1074-0.25132-0.023-0.5035-0.0354-0.75586-0.0371-4.6791 4e-3 -8.5662 3.6098-8.9219 8.2754-1.8426-2.8223-4.985-4.5242-8.3555-4.5254-4.4191 2e-3 -8.3108 2.9095-9.5664 7.1465-0.0421 0.0283-0.0851 0.0553-0.12695 0.084-0.98872-0.41046-2.0486-0.62217-3.1191-0.62304-4.5024 1.1e-4 -8.1522 3.65-8.1524 8.1523 1e-3 1.5367 0.43641 3.0418 1.2559 4.3418-2.9841 0.36319-5.6389 2.0693-7.209 4.6328-1.7374 1.3484-3.2111 3.0457-4.3438 4.9492-3.2316 1.7028-5.2554 5.0542-5.2578 8.707 3e-3 2.6392 1.0659 5.1667 2.9492 7.0156-0.0467 0.0678-0.0875 0.13858-0.13282 0.20704-2.0186 1.6107-3.1945 4.0524-3.1953 6.6348 3e-3 1.2549 0.28355 2.4936 0.82227 3.627 0.0582 0.63789 0.15559 1.2708 0.27734 1.8965-0.75074 0.89321-1.1623 2.0226-1.1621 3.1894 6.9e-4 1.4414 0.62884 2.811 1.7207 3.752-1.2364 0.37832-2.2271 1.3091-2.6816 2.5195-0.23627-0.0327-0.47438-0.0503-0.71289-0.0527-2.0756 1e-3 -3.9816 1.1463-4.957 2.9785-1.2587-0.78742-2.7126-1.2069-4.1973-1.2109-4.3935-7e-5 -7.9552 3.5616-7.9551 7.9551 3e-3 0.28068 0.0204 0.56102 0.0527 0.83984-4.2724 2.044-6.9934 6.3576-6.998 11.094 3e-3 2.4113 0.71409 4.7686 2.0449 6.7793-1.2194 1.1105-1.9154 2.6827-1.918 4.332 2.5e-4 2.5849 1.6909 4.8655 4.1641 5.6172-0.0803 0.31006-0.12167 0.62893-0.12305 0.94922 3.8e-4 0.70627 0.19498 1.3988 0.5625 2.002-3.8132 1.3407-6.3664 4.9404-6.3711 8.9824 4e-3 2.3941 0.90799 4.6991 2.5332 6.457-0.29501 0.86878-0.44673 1.7798-0.44922 2.6973 4.8e-4 3.4191 2.0589 6.5018 5.2168 7.8125-0.27715 0.90581-0.41866 1.8477-0.41992 2.7949 4.1e-4 5.3002 4.2975 9.5964 9.5977 9.5957 1.7946-2e-3 3.5525-0.50778 5.0742-1.459 1.2355 2.4434 3.7405 3.9841 6.4785 3.9844 1.5873-2e-3 3.1302-0.52404 4.3926-1.4863-0.1055 0.57413-0.15975 1.1565-0.16211 1.7402 7.3e-4 5.4392 4.4104 9.848 9.8496 9.8477 0.63223-3e-3 1.2627-0.066 1.8828-0.18946 0.42813 0.30478 0.86356 0.59877 1.3086 0.87891 0.3913 4.8168 4.4135 8.5271 9.2461 8.5293 2.9049-5e-3 5.6399-1.3694 7.3906-3.6875 1.124 0.67463 2.4098 1.0323 3.7207 1.0352 1.996-3e-3 3.9026-0.82855 5.2715-2.2812 0.96914 3.6504 4.272 6.1926 8.0488 6.1953 1.6574-2e-3 3.2765-0.49866 4.6504-1.4258 0.16571 0.0558 0.32968 0.11863 0.49609 0.17188 2.4886 3.9245 6.8119 6.3032 11.459 6.3047 4.365-5e-3 8.4611-2.1093 11.008-5.6543 1.3757 0.56279 2.8476 0.85332 4.334 0.85547 5.7366-7e-3 10.589-4.2444 11.369-9.9277 6.2345-0.64873 10.973-5.8998 10.98-12.168-4e-3 -0.99457-0.12941-1.9849-0.37304-2.9492 1.9027-1.4428 3.0212-3.6922 3.0234-6.0801-2e-3 -0.47392-0.0474-0.94667-0.13671-1.4121 1.1834 1.0379 2.7033 1.6112 4.2773 1.6133 2.227-3e-3 4.2972-1.1464 5.4863-3.0293 0.51632-0.0911 1.0304-0.19542 1.541-0.31445 0.98537 0.77292 2.2008 1.1943 3.4531 1.1973 2.7227-3e-3 5.0514-1.9576 5.5254-4.6387 0.79478 0.30861 1.6396 0.46817 2.4922 0.47071 3.8342 6.3e-4 6.9429-3.1072 6.9434-6.9414-1e-3 -0.41271-0.039-0.8245-0.11329-1.2305 1.9704 0.17526 3.7314-3.4326 2.891-4.5791-0.77712-2.9368-0.6422-4.0803 1.4859-6.1377 1.8688-1.2239 2.9952-3.3071 2.9961-5.541-2e-3 -1.9156-0.83205-3.7368-2.2773-4.9941 1.0411-0.8501 1.6455-2.1227 1.6465-3.4668-3e-3 -2.222-1.6334-4.1064-3.832-4.4277-0.0403-0.0991-0.0856-0.19623-0.12695-0.29492 0.0909-0.32226 0.13758-0.6554 0.13867-0.99024-1.3e-4 -0.84633-0.29113-1.6669-0.82422-2.3242 0.1176 0.01 0.23551 0.0159 0.35352 0.0176 2.7714 5.3e-4 5.0181-2.2462 5.0176-5.0176-2e-3 -0.90257-0.24775-1.7878-0.71093-2.5625 1.5326-0.89895 2.4754-2.5416 2.4785-4.3184-2e-3 -1.7119-0.87674-3.3045-2.3203-4.2246-0.16383-0.97085-0.41536-1.9292-0.78125-2.8555 1.9503 0.0439 5.4115-2.757 6.0859-1.5664-0.0341 1.0364 0.0435 2.0561 0.21289 3.0527-0.31513 0.72958-0.47796 1.5158-0.47852 2.3106 3e-3 1.8078 0.84321 3.5121 2.2754 4.6152-0.0405 0.26965-0.062 0.5418-0.0645 0.81446-2.9e-4 3.2243 2.6136 5.8382 5.8379 5.8379 0.82849-3e-3 1.6468-0.18322 2.4004-0.52735 0.51329 1.8411 2.1902 3.1148 4.1016 3.1152 0.71063-1e-3 1.4096-0.18076 2.0332-0.52149-0.39642 0.61787-0.60786 1.3362-0.60938 2.0703 2e-3 1.3263 0.68701 2.5581 1.8125 3.2598-1.7021 1.113-2.7281 3.0093-2.7285 5.043 1e-3 2.89 2.0542 5.3721 4.8926 5.916 0.0786 0.16977 0.14743 0.34409 0.23047 0.51172-0.2939 0.67339-0.44614 1.4-0.44726 2.1348-1.6e-4 2.9589 2.3985 5.3576 5.3574 5.3574 0.41256-2e-3 0.82348-0.052 1.2246-0.14843 0.0566 0.041 0.1187 0.0749 0.17578 0.11523-1.725 0.14215-3.0526 1.5836-3.0527 3.3144 2e-3 1.1658 0.61396 2.2454 1.6133 2.8457-1e-3 5e-3 -2e-3 9e-3 -4e-3 0.0137-3.3233 0.45635-5.8008 3.294-5.8047 6.6484 3e-3 3.3605 2.4882 6.202 5.8184 6.6523 0.0305 0.0983 0.06 0.19705 0.0918 0.29492-1.4704 1.0981-2.3374 2.8249-2.3398 4.6602 3.5e-4 2.3334 1.3929 4.4415 3.5391 5.3574-1.1586 0.29182-2.2135 0.8997-3.0469 1.7559-0.4459-0.11171-0.90361-0.16941-1.3633-0.17188-2.4313 4e-3 -4.596 1.5403-5.4023 3.834-0.26396-0.0556-0.53298-0.0838-0.80274-0.084-2.1574-1e-5 -3.9063 1.7489-3.9062 3.9062 2.2e-4 0.73297 0.20665 1.4511 0.59571 2.0723-3.771 0.53636-6.5743 3.7633-6.5781 7.5723 3e-3 3.3199 2.1452 6.2596 5.3047 7.2793-1.3489 1.0882-2.1336 2.7278-2.1348 4.4609 3e-3 1.8811 0.92726 3.6413 2.4746 4.7109-1.4123 1.0805-2.2412 2.7569-2.2422 4.5352 2e-3 1.5537 0.63679 3.0395 1.7578 4.1152-0.0507-3e-3 -0.10153-6e-3 -0.15235-8e-3 -2.4652 7.7e-4 -4.4632 1.9996-4.4629 4.4648 7.7e-4 2.4645 1.9984 4.4621 4.4629 4.4629 2.4652 3.1e-4 4.4641-1.9977 4.4648-4.4629-2e-3 -0.16651-0.0129-0.33278-0.0332-0.49805 0.862 0.55528 1.8652 0.85151 2.8906 0.85352 2.9581 1.5e-4 5.3565-2.3974 5.3574-5.3555-1e-3 -0.67844-0.13095-1.3505-0.38281-1.9805 0.33834 0.0491 0.67961 0.0752 1.0215 0.0781 0.95304-8.8e-4 1.8973-0.18179 2.7832-0.53321 1.2827 1.524 3.1721 2.4051 5.1641 2.4082 2.9926-1e-3 5.6285-1.9692 6.4805-4.8379 0.31895-0.15963 0.63515-0.32732 0.94726-0.50976 2.9497-1.3991 5.2854-4.1017 7.1934-6.4531 1.4634 2.2369 3.9559 3.5852 6.6289 3.5859 3.0602-4e-3 5.8443-1.7705 7.1523-4.5371 2.9157-0.50282 5.5116-2.1451 7.2148-4.5644 1.2655 2.8694 4.1042 4.7226 7.2402 4.7266 0.91677-3e-3 1.8261-0.16474 2.6875-0.47851 1.5556 3.0079 4.6586 4.8973 8.0449 4.8984 3.6561-3.2e-4 6.9538-2.198 8.3613-5.5723 0.91534 0.25812 1.8615 0.39084 2.8125 0.39453 4.3993-5e-3 8.3301-2.7491 9.8516-6.877 2.9754-0.70252 5.0785-3.3569 5.082-6.4141-3e-3 -1.6607-0.63204-3.2592-1.7617-4.4766 1.141-1.5587 1.7579-3.4394 1.7617-5.3711 2.2e-4 -3.0148-1.4888-5.835-3.9785-7.5352-0.0746-0.2091-0.15222-0.41804-0.23242-0.625 0.768-1.2261 1.1767-2.6431 1.1797-4.0898-1.7e-4 -4.2715-3.4629-7.7342-7.7344-7.7344-0.552 4e-3 -1.102 0.0666-1.6406 0.1875 1.3457-2.0865 1.9156-4.5634 1.7734-7.0117 1.3599-0.9631 2.1692-2.525 2.1719-4.1914 1.8e-4 -2.8424-2.3041-5.1467-5.1465-5.1465-0.60878 1e-3 -1.2125 0.11022-1.7832 0.32227-0.16218-0.11707-0.3164-0.24314-0.48633-0.35156 0.65289-2.4602 4.7526-2.2125 6.9434-3.9316 0.79969 0.48344 1.7159 0.74002 2.6504 0.74219 2.465-9.3e-4 4.5832-1.7497 5.0508-4.1699 0.0208 1e-3 0.0417 3e-3 0.0625 4e-3 4.412 5.8e-4 7.9889-3.5762 7.9883-7.9883-4e-3 -3.4174-2.1822-6.4535-5.418-7.5527 0.89112-1.1916 1.374-2.639 1.377-4.127-3e-3 -2.7112-1.591-5.1702-4.0606-6.2891 0.0933-0.55053 0.14225-1.1077 0.14649-1.666-1.4e-4 -5.7709-4.6783-10.449-10.449-10.449-1.7921 5e-3 -3.553 0.47002-5.1133 1.3516-1.6742-2.8245-4.3709-4.8967-7.5312-5.7871-1e-3 -0.026-2e-3 -0.0521-4e-3 -0.0781 0.49003-0.91218 0.747-1.9313 0.74805-2.9668-2e-3 -1.8234-0.79586-3.5561-2.1758-4.748 1.2435-1.6528 1.9178-3.6641 1.9219-5.7324-4e-3 -0.38407-0.0303-0.76757-0.0801-1.1484 0.27824-0.34364 0.54561-0.69393 0.80078-1.0527 0.1696 0.0137 0.33963 0.0215 0.50977 0.0234 4.063 8.5e-4 7.3572-3.2925 7.3574-7.3555-6.7e-4 -2.432-1.2033-4.7064-3.2129-6.0762 1.1014-1.5432 1.6946-3.3912 1.6973-5.2871-4e-3 -3.7697-2.3261-7.1487-5.8438-8.5039 0.0224-0.23764 0.0341-0.47615 0.0351-0.71484-4.9e-4 -4.4113-3.577-7.9869-7.9883-7.9863-0.80238 3e-3 -1.5997 0.12668-2.3652 0.36719-1.9196-2.4617-4.8666-3.9014-7.9883-3.9023-1.7487 4e-3 -3.4665 0.46129-4.9863 1.3262 0.72291-1.418 1.1016-2.9864 1.1055-4.5781-6.7e-4 -4.8151-3.3896-8.9649-8.1074-9.9277-1.1832-3.0896-4.1486-5.13-7.457-5.1309-0.38322 3e-3 -0.76572 0.0338-1.1445 0.0918-1.5581-2.7089-4.4433-4.3805-7.5684-4.3848-2.7902 4e-3 -5.4111 1.339-7.0547 3.5938-2.0427-2.0559-4.8206-3.2129-7.7188-3.2148-4.0296 3e-3 -7.7282 2.2306-9.6152 5.791-0.61977-3.6421-2.2876-6.8543-4.6172-9.4844-0.17631-1.1162-0.54157-2.1941-1.0801-3.1875zm-0.58984 33.244c2.508 6.1403 9.1131 10.288 15.738 9.8105 1.4292 1.7418-3.5329 1.1944-4.6582 2.5215-3.6343 1.7293-6.723 4.5885-8.7129 8.0879-2.3887-6.5356-7.2108-12.141-13.316-15.479 4.1412-0.42593 7.5699-3.1416 10.949-4.9414zm-51.555 42.943 0.39063 0.81054c1.6601 3.7208 4.9478 6.9989 7.459 9.6348-3.0046 2.2884-3.6471 7.0762-5.0332 9.5273-4.4647-0.31238-9.9698 1.7525-13.266 2.8613 1.8597-4.7878 0.64435-10.763 0.41406-15.066 3.932-1.6799 7.4326-4.3726 10.035-7.7676zm79.812 5.3945c-1.2462 4.9702 1.1592 11.525 2.373 14.996-2.4839-0.89507-6.4632 0.0144-8.1543-0.34961 1.433-4.1627 1.2046-8.862-0.62695-12.865 2.2015-0.18826 4.5464-1.0094 6.4082-1.7812zm16.816 26.217 0.66797 0.18946c3.8854 1.0122 8.0299 1.013 11.912-0.0137 0.1629 3.5669-5.1818 2.4194-7.1094 4.8125-1.5919 0.51748-4.0006 4.5972-3.6387 0.86718-0.30992-2.0296-0.93598-4.0089-1.832-5.8555zm-122.08 8.2774c0.0668-9e-3 0.12355-8e-3 0.16406 8e-3 0.10803 0.0422 0.094 0.18682-0.19141 0.50586-1.3569 0.14822-0.44-0.44728 0.0274-0.51367zm132.21 35.4c1.8912 0.68348 4.7882 0.62139 1.7793 2.3828-2.3337 2.2488-4.1944 4.9854-5.4316 7.9805-3.5743-1.0622 1.1611-3.3784 1.3574-5.4434 1.134-1.2041 1.0448-4.7492 2.2949-4.9199zm-35.883 11.621c1.5835 1.3851 3.3892 2.5341 5.4043 3.3516-1.3499-0.54433-2.7253-0.8838-4.1035-1.0586-0.68813-0.78778-1.5575-1.3964-2.5332-1.7734 0.42939-0.12529 0.84292-0.29962 1.2324-0.51953z"
         id="path89" />
      <path
         transform="scale(.26458)"
         d="m377.8 123.98c-3.6834 9.8e-4 -7.1266 1.828-9.1934 4.877-3.1264-2.4981-7.0079-3.8615-11.01-3.8672-5.6191-2e-5 -10.616 2.6299-13.854 6.7168a16.92 16.92 0 0 0-11.4-4.4434 16.92 16.92 0 0 0-16.92 16.92 16.92 16.92 0 0 0 0.23242 2.7656c-6.4188 1.6873-11.661 6.6133-13.6 13.203-2.8499-2.1672-6.3298-3.3441-9.9102-3.3516-9.0734 4.6e-4 -16.428 7.3563-16.428 16.43 3e-3 0.10744 7e-3 0.21488 0.0117 0.32226-0.48865-0.05-0.9795-0.0755-1.4707-0.0762-8.0896 4e-4 -14.647 6.5588-14.646 14.648 4e-3 2.1972 0.50299 4.3654 1.459 6.3438-2.5503 2.6328-3.9788 6.1529-3.9844 9.8184 6e-3 3.0053 0.96922 5.9306 2.75 8.3516-1.7703 2.0228-2.7473 4.6186-2.75 7.3066 2e-3 0.59677 0.0512 1.1924 0.14844 1.7812-1.0517-0.1689-2.1146-0.25834-3.1797-0.26758-11.716 1.7e-4 -21.214 9.4986-21.213 21.215 3e-3 4.8448 1.6639 9.5427 4.707 13.312-3.3646 4.0699-5.207 9.1843-5.2109 14.465-4e-5 12.553 10.176 22.729 22.729 22.729 2.5138-9e-3 5.0086-0.43578 7.3828-1.2617 1.863 11.775 12.01 20.448 23.932 20.455 4.2502-0.011 8.4229-1.1392 12.1-3.2715 6.6623 5.9945 15.303 9.3177 24.266 9.332 19.63-0.0213 35.7-15.618 36.309-35.238 2.7888 0.92004 5.7059 1.392 8.6426 1.3984 3.8628 1e-5 7.5404-0.79013 10.883-2.2148l-0.0234-0.0566c-6.0609-14.521 8.9648-23.613 8.9648-23.613s-4.1662-14.647 2.6524-18.309l0.18945 0.10156c4.3864-2.3813 7.1292-6.9699 7.1328-11.971-5e-3 -2.4298-0.65904-4.814-1.8945-6.9062 4.214-0.65782 8.215-2.2947 11.682-4.7793-0.46086 1.4944-0.69523 3.0494-0.69531 4.6133-4.6e-4 8.648 7.0102 15.659 15.658 15.658 2.1974-7e-3 4.3689-0.47584 6.373-1.377-2.8113 3.3609-4.3522 7.6027-4.3535 11.984 9e-3 7.278 4.2427 13.889 10.85 16.941-3.0856 3.5734-4.7851 8.1362-4.7891 12.857 0.0104 8.8903 5.9745 16.672 14.557 18.992-0.97509 1.0466-1.8114 2.2144-2.4883 3.4746-2.341-1.1502-4.9132-1.752-7.5215-1.7598-9.4851-6.8e-4 -17.174 7.6887-17.174 17.174 3.9e-4 9.4844 7.6895 17.173 17.174 17.172 6.5274-9e-3 12.485-3.7174 15.375-9.5703 2.1512 0.97641 4.4853 1.4844 6.8477 1.4902 6.6235-4e-3 12.616-3.9296 15.266-10 4.0774 5.6362 10.608 8.9781 17.564 8.9883 11.994 2.6e-4 21.718-9.7225 21.719-21.717-5e-3 -8.0344-4.445-15.41-11.543-19.174 2.1947-1.9146 3.4562-4.6833 3.4609-7.5957-4e-3 -3.7902-2.129-7.2593-5.5039-8.9844 0.2752-1.2784 0.42241-2.5811 0.43945-3.8887 9.5943-1.4867 16.674-9.7424 16.682-19.451 6.8e-4 -10.879-8.8182-19.699-19.697-19.699-2.4933 3e-3 -4.9635 0.47841-7.2793 1.4023 1.1363-2.6802 1.7221-5.5615 1.7227-8.4727-9e-3 -4.4351-1.3756-8.7611-3.916-12.396 5.9189-4.0409 9.4632-10.742 9.4727-17.908 2.6e-4 -11.995-9.7237-21.719-21.719-21.719-2.1433 7e-3 -4.2738 0.33041-6.3223 0.96093 0.16676-0.9849 0.25428-1.9816 0.26172-2.9805-1.8e-4 -10.321-8.3668-18.687-18.688-18.688-2.3026 2e-3 -4.5714 0.43715-6.7012 1.2578a8.0812 8.0812 0 0 0 1.3965-4.541 8.0812 8.0812 0 0 0-8.0801-8.082 8.0812 8.0812 0 0 0-4.4062 1.3086 13.637 13.637 0 0 0-11-5.6016 13.637 13.637 0 0 0-9.0293 3.4414c-2.7881-1.5449-5.9914-2.4313-9.4043-2.4316-0.86633 1e-3 -1.7224 0.0802-2.5723 0.19531a22.223 22.223 0 0 0-11.066-2.9727 22.223 22.223 0 0 0-3.8555 0.33985c-1.8359-1.3287-4.086-2.1047-6.498-2.1074zm39.529 35.643c0.90575 7.0493 6.9026 12.331 14.01 12.34 0.62682-6e-3 1.2525-0.0536 1.873-0.14258 1.1551 1.8237 2.6175 3.4334 4.3223 4.7578-0.46505-0.0416-0.93156-0.0651-1.3984-0.0703-8.7317 0.0101-16.186 6.3086-17.654 14.916-1.1581-9.5972-7.3098-17.864-16.17-21.73 0.49209-0.77716 0.92692-1.5718 1.3027-2.3809 5.4502-0.51817 10.43-3.3099 13.715-7.6895zm35.441 20.523c-0.4717 1.7796-0.71519 3.612-0.72461 5.4531 4e-3 0.20712 0.0114 0.41417 0.0215 0.62109-1.1541-2.2279-2.763-4.1888-4.7226-5.7559 0.55576 0.053 1.1136 0.081 1.6719 0.084 1.2617-7e-3 2.5194-0.14185 3.7539-0.40234zm1.2852 14.516c0.53582 1.1648 1.1737 2.2798 1.9062 3.332-1.0422 0.7054-2.0212 1.5001-2.9258 2.375 0.64717-1.8344 0.99152-3.762 1.0195-5.707zm-35.529 3.0801c0.5555 2.9605 1.8479 5.7333 3.7578 8.0625-0.0124-6.6e-4 -0.0247-9.5e-4 -0.0371-2e-3 -2.3009 6e-3 -4.5722 0.5186-6.6523 1.502 1.5583-2.9795 2.5522-6.2215 2.9316-9.5625zm-53.127 4.9727c1.8256 5.9427 5.6267 11.083 10.773 14.57-3.7174 2.5373-5.9435 6.7454-5.9492 11.246 3e-3 0.21044 0.0108 0.42078 0.0234 0.63086-0.84722-0.0813-1.6977-0.12371-2.5488-0.12696-6.6083 0.0122-12.996 2.3798-18.016 6.6777 2.5202-3.9577 3.8634-8.5502 3.873-13.242-5e-3 -2.9663-0.54248-5.9076-1.5879-8.6836 5.7429-1.8107 10.558-5.7804 13.432-11.072zm82.684 5.0644c-1.0467 2.5812-1.5871 5.3396-1.5918 8.125-2.6e-4 11.994 9.7225 21.718 21.717 21.719 3.0624-9e-3 6.0883-0.66634 8.8789-1.9277-0.81829 2.1472-1.2546 4.4211-1.2891 6.7188-8.9372 1.3897-15.78 8.6872-16.592 17.695-0.53213-0.28265-1.077-0.54074-1.6328-0.77344 2.6286-3.3 4.0631-7.3924 4.0703-11.611 9e-4 -10.322-8.3672-18.69-18.689-18.689-2.885 3e-3 -5.7302 0.67441-8.3125 1.9609 2.1088-2.7326 3.2554-6.0854 3.2617-9.5371-7e-3 -3.287-1.0485-6.4883-2.9766-9.1504 0.4022 0.0338 0.80542 0.0539 1.209 0.0606 4.4114-8e-3 8.6651-1.6423 11.947-4.5898zm-103.6 33.822c-1.7712 2.7108-3.0549 5.7104-3.793 8.8633-2.703-1.5267-5.5905-2.7009-8.5918-3.4941 4.546-0.60757 8.8338-2.4664 12.385-5.3691zm125.16 37.68c2.829 1.4954 5.9798 2.279 9.1797 2.2832 2.1095-9e-3 4.2039-0.35626 6.2031-1.0293 0.0213 0.0294 0.0428 0.0587 0.0645 0.0879-7.8251 1.7981-14.02 7.7667-16.107 15.52-1.6787-1.6988-3.703-3.017-5.9356-3.8652 3.7792-3.3295 6.1395-7.9801 6.5957-12.996z"
         id="path91" />
      <path
         transform="scale(.26458)"
         d="m317.7 353.41a9.8214 9.8214 0 0 0-0.91601 4.1074 9.8214 9.8214 0 0 0 4.4551 8.2148 9.8214 9.8214 0 0 0 9.6524 8.0352 9.8214 9.8214 0 0 0 4.0664-0.89453 9.1964 9.1964 0 0 0 5.666 1.9668 9.1964 9.1964 0 0 0 8.4219-5.5274 8.8294 8.8294 0 0 1-7.4082 4.0293 8.8294 8.8294 0 0 1-5.4414-1.8887 9.4295 9.4295 0 0 1-3.9043 0.85937 9.4295 9.4295 0 0 1-9.2656-7.7148 9.4295 9.4295 0 0 1-4.2773-7.8867 9.4295 9.4295 0 0 1 0.0488-0.92969 6.7857 6.7857 0 0 1-1.0977-2.3711z"
         id="path93" />
      <circle
         cx="128.29"
         cy="52.649"
         r="5.0113"
         id="circle95" />
    </g>
    <ellipse
       cx="115.14"
       cy="135.66"
       rx="12.906"
       ry="12.095"
       id="ellipse99" />
    <ellipse
       cx="89.58"
       cy="132.39"
       rx="12.906"
       ry="12.095"
       fill="#fff"
       id="ellipse101" />
    <ellipse
       cx="73.705"
       cy="134.09"
       rx="12.906"
       ry="12.095"
       fill="#fff"
       id="ellipse103" />
  </g>
  <g
     transform="translate(59.965 31.732)"
     fill="#fff"
     id="g113">
    <ellipse
       cx="61.61"
       cy="134.85"
       rx="12.906"
       ry="12.095"
       id="ellipse107" />
    <ellipse
       cx="46.113"
       cy="115.57"
       rx="12.906"
       ry="12.095"
       id="ellipse109" />
    <ellipse
       cx="45.735"
       cy="123.89"
       rx="12.906"
       ry="12.095"
       id="ellipse111" />
  </g>
  <path
     d="m168.91 171.65a12.905 12.095 0 0 1-9.3206 3.7295 12.905 12.095 0 0 1-12.905-12.095 12.905 12.095 0 0 1 12.905-12.095 12.905 12.095 0 0 1 1.4636 0.078"
     stroke-width=".26458"
     id="path115" />
  <g
     transform="translate(59.884 32.099)"
     fill="#fff"
     id="g123">
    <ellipse
       cx="51.533"
       cy="106.83"
       rx="5.5957"
       ry="5.2444"
       id="ellipse117" />
    <ellipse
       cx="51.816"
       cy="102.01"
       rx="2.2685"
       ry="2.1261"
       id="ellipse119" />
    <ellipse
       cx="53.404"
       cy="103.52"
       rx="2.571"
       ry="2.4096"
       id="ellipse121" />
  </g>
  <g
     transform="translate(59.231 31.65)"
     id="g141">
    <g
       id="g131">
      <path
         d="m 44.13576,102.36559 c -0.92279,0.30597 -1.736485,0.82005 -2.3584,1.49 -0.358422,-0.0289 -0.718071,-0.0446 -1.078,-0.0472 -7.120769,4.8e-4 -12.893,5.04699 -12.893,11.272 0.005,1.15764 0.213974,2.30769 0.61955,3.4097 -0.657374,1.37484 -0.996401,2.84998 -0.99747,4.3401 0,6.22535 5.77284,11.272 12.894,11.272 7.12116,0 12.894,-5.04665 12.894,-11.272 -0.0053,-1.15732 -0.214427,-2.30703 -0.62006,-3.4087 0.657522,-1.37515 0.996552,-2.85065 0.99747,-4.3411 -0.0049,-2.27642 -0.798152,-4.49819 -2.2753,-6.3729 0.253841,-0.56479 0.385153,-1.16598 0.38722,-1.7728 -0.0014,-1.07594 -0.408785,-2.12143 -1.1591,-2.9743 0.0031,-0.0359 0.0051,-0.0719 0.0062,-0.10787 -5.88e-4,-1.07565 -0.8736,-1.99987 -2.0817,-2.2038 -1.813081,-0.40614 -1.905225,0.18675 -4.33541,0.71687 z"
         id="path125"
         inkscape:connector-curvature="0"
         sodipodi:nodetypes="ccccccsccccccccc" />
      <ellipse
         cx="61.958"
         cy="135.59"
         rx="12.704"
         ry="11.906"
         id="ellipse127" />
      <ellipse
         cx="131.26"
         cy="134.91"
         rx="11.079"
         ry="10.383"
         id="ellipse129" />
    </g>
    <ellipse
       cx="153.41"
       cy="120.67"
       rx="11.536"
       ry="12.095"
       fill="#fff"
       id="ellipse133" />
    <ellipse
       cx="154.22"
       cy="111.61"
       rx="11.97"
       ry="11.895"
       fill="#fff"
       id="ellipse135" />
    <ellipse
       cx="157.67947"
       cy="119.96239"
       rx="12.055"
       ry="10.718"
       id="ellipse137" />
    <ellipse
       cx="156.44559"
       cy="122.90196"
       rx="12.055"
       ry="10.718"
       id="ellipse139" />
  </g>
  <g
     transform="translate(63.203396,32.53562)"
     id="g159">
    <ellipse
       cx="154.75"
       cy="111.57"
       rx="11.654"
       ry="10.718"
       id="ellipse143" />
    <circle
       cx="148.73"
       cy="103"
       r="0.85044998"
       id="circle145" />
    <circle
       cx="150.53"
       cy="101.87"
       r="0.85044998"
       id="circle147" />
    <circle
       cx="147.34"
       cy="104.82"
       r="1.3465"
       id="circle149" />
    <circle
       cx="146.21001"
       cy="105.11"
       r="0.77958"
       id="circle151" />
    <circle
       cx="144.92999"
       cy="107.75"
       r="1.3465"
       id="circle153" />
    <circle
       cx="144.84"
       cy="110.02"
       r="2.0552001"
       id="circle155" />
    <circle
       cx="144.84"
       cy="110.02"
       r="2.0552001"
       id="circle157" />
  </g>
  <g
     transform="translate(59.231 31.65)"
     id="g211">
    <ellipse
       cx="151.35"
       cy="124.61"
       rx="9.0488"
       ry="8.0454"
       fill="#fff"
       id="ellipse185" />
    <ellipse
       cx="152.66"
       cy="126.44"
       rx="10.987"
       ry="9.7683"
       id="ellipse187" />
    <ellipse
       cx="144.01"
       cy="134.47"
       rx="12.906"
       ry="12.095"
       id="ellipse189" />
    <ellipse
       cx="145.64"
       cy="135.32"
       rx="13.902"
       ry="13.029"
       fill="#fff"
       id="ellipse191" />
    <ellipse
       cx="147.13"
       cy="137.36"
       rx="14.637"
       ry="13.718"
       id="ellipse193" />
    <ellipse
       cx="133.24"
       cy="135.26"
       rx="13.118"
       ry="12.294"
       id="ellipse195" />
    <ellipse
       cx="133.86"
       cy="136.28"
       rx="13.902"
       ry="13.029"
       fill="#fff"
       id="ellipse197" />
    <ellipse
       cx="147.09"
       cy="137.66"
       rx="14.886"
       ry="13.952"
       id="ellipse199" />
    <ellipse
       cx="114.69"
       cy="136.95"
       rx="13.902"
       ry="13.029"
       fill="#fff"
       id="ellipse201" />
    <ellipse
       cx="134.54"
       cy="141.01"
       rx="16.982"
       ry="15.916"
       id="ellipse203" />
    <ellipse
       cx="113.18"
       cy="138.95"
       rx="14.989"
       ry="14.048"
       id="ellipse205" />
    <ellipse
       cx="147.42"
       cy="180.49"
       rx="57.935"
       ry="54.297"
       fill="#fff"
       id="ellipse207" />
    <ellipse
       cx="149.29"
       cy="192.38"
       rx="70.34"
       ry="65.923"
       id="ellipse209" />
  </g>
  <g
     transform="translate(59.231 31.65)"
     id="g219">
    <path
       transform="scale(.26458)"
       d="m136.81 407.86c-8.2701 7.8626-12.86 18.154-12.86 28.835 0.019 4.3753 0.80875 8.7219 2.3416 12.887-2.4845 5.1962-3.7659 10.772-3.77 16.404-3.4e-4 23.529 20.808 52.958 47.722 52.957 8.6815-13.258 25.829-31.792 43.303-31.791"
       id="path213" />
    <path
       d="m158.3 105.33a12.326 12.23 0 0 1-5.1149 9.9005 12.22 12.125 0 0 1-0.093 0.3684 10.185 10.366 0 0 1 7.8915 10.089 10.185 10.366 0 0 1-0.14748 1.6869 70.682 65.73 0 0 1 4.038 0.69867 12.114 10.687 0 0 0 1.6757-5.3885 12.114 10.687 0 0 0-1.1326-4.4822 11.811 11.236 0 0 0 1.453-5.3978 11.811 11.236 0 0 0-0.13917-1.6138 8.9972 8.9273 0 0 0-8.4311-5.8615z"
       id="path215" />
    <path
       transform="scale(.26458)"
       d="m594.93 481.23a239.91 239.91 0 0 1-0.19531 1.1133 121.79 121.79 0 0 1 36.689 86.961 121.79 121.79 0 0 1-121.79 121.79 121.79 121.79 0 0 1-62.66-17.529 239.91 239.91 0 0 1-89.893 17.875 239.91 239.91 0 0 1-44.734-4.3398 265.85 249.16 0 0 0-3.873 42.365 265.85 249.16 0 0 0 179.2 235.26 265.85 249.16 0 0 0 77.084 10.775 265.85 249.16 0 0 0 265.85-249.16 265.85 249.16 0 0 0-179.22-235.27 265.85 249.16 0 0 0-56.467-9.8418z"
       id="path217" />
  </g>
  <g
     transform="translate(59.231 31.65)"
     id="g443">
    <circle
       cx="51.973"
       cy="130.48"
       r="8.5064"
       fill="#fff"
       id="circle363" />
    <g
       transform="translate(-.89739 .73423)"
       id="g375">
      <circle
         cx="51.773"
         cy="132.32"
         r="10.077"
         id="circle365" />
      <circle
         cx="62.464"
         cy="133.39"
         r="10.077"
         id="circle367" />
      <circle
         cx="71.885"
         cy="132.72"
         r="10.077"
         id="circle369" />
      <circle
         cx="75.426"
         cy="132.52"
         r="10.077"
         id="circle371" />
      <circle
         cx="90.262"
         cy="135.21"
         r="14.754"
         id="circle373" />
    </g>
    <ellipse
       cx="86.946"
       cy="133.68"
       rx="12.906"
       ry="12.095"
       fill="#fff"
       id="ellipse377" />
    <path
       transform="scale(.26458)"
       d="m387.93 452.53a48.777 45.714 0 0 1 40.132 44.991 48.777 45.714 0 0 1-33.714 43.48"
       fill="none"
       id="path379" />
    <path
       transform="scale(.26458)"
       d="m394.35 541a48.777 45.714 0 0 1-15.062 2.2342 48.777 45.714 0 0 1-48.777-45.714 48.777 45.714 0 0 1 48.777-45.714 48.777 45.714 0 0 1 8.6447 0.72368"
       fill="none"
       id="path381" />
    <ellipse
       cx="86.315"
       cy="136.46"
       rx="13.583"
       ry="12.73"
       id="ellipse383" />
    <ellipse
       cx="93.36"
       cy="135.42"
       rx="12.906"
       ry="12.095"
       id="ellipse385" />
    <g
       id="g395">
      <circle
         cx="99.617"
         cy="122.74"
         r="1.147"
         id="circle387" />
      <circle
         cx="99.617"
         cy="126.28"
         r="2.9896"
         id="circle389" />
      <circle
         cx="98.672"
         cy="130.15"
         r="2.9896"
         id="circle391" />
      <circle
         cx="100.85"
         cy="130.72"
         r="2.9896"
         id="circle393" />
    </g>
    <g
       id="g425">
      <ellipse
         cx="84.95"
         cy="133.71"
         rx="6.4528"
         ry="6.0476"
         id="ellipse397" />
      <circle
         cx="97.611"
         cy="122.91"
         r="1.3644"
         id="circle399" />
      <circle
         cx="95.981"
         cy="124.61"
         r="1.5297"
         id="circle401" />
      <circle
         cx="96.193"
         cy="127.49"
         r=".98638"
         id="circle403" />
      <circle
         cx="94.611"
         cy="128.95"
         r="1.7187"
         id="circle405" />
      <circle
         cx="95.461"
         cy="131.6"
         r="1.7187"
         id="circle407" />
      <circle
         cx="103.63"
         cy="127.82"
         r="1.7187"
         id="circle409" />
      <circle
         cx="106.75"
         cy="125.51"
         r="2.9896"
         id="circle411" />
      <circle
         cx="105.51"
         cy="127.51"
         r="2.4747"
         id="circle413" />
      <circle
         cx="103.3"
         cy="124.7"
         r="2.4747"
         id="circle415" />
      <circle
         cx="101.15"
         cy="123.43"
         r=".84464"
         id="circle417" />
      <circle
         cx="101.06"
         cy="122.15"
         r=".84464"
         id="circle419" />
      <circle
         cx="100.63"
         cy="121.54"
         r=".84464"
         id="circle421" />
      <circle
         cx="98.839"
         cy="121.82"
         r=".84464"
         id="circle423" />
    </g>
    <ellipse
       cx="110.04"
       cy="132.79"
       rx="6.3658"
       ry="5.9661"
       fill="#fff"
       id="ellipse427" />
    <ellipse
       cx="110.14"
       cy="132.98"
       rx="6.4528"
       ry="6.0476"
       id="ellipse429" />
    <ellipse
       cx="67.702"
       cy="158.6"
       rx="36.361"
       ry="34.078"
       fill="#fff"
       id="ellipse431" />
    <circle
       cx="89.817"
       cy="131.16"
       r="5.9531"
       fill="#fff"
       id="circle433" />
    <g
       id="g441">
      <circle
         cx="89.817"
         cy="131.49"
         r="6.1421"
         id="circle435" />
      <ellipse
         cx="67.435"
         cy="159.6"
         rx="37.288"
         ry="34.947"
         id="ellipse437" />
      <ellipse
         cx="127.36"
         cy="116.83"
         rx="2.8127"
         ry="2.6361"
         id="ellipse439" />
    </g>
  </g>
  <ellipse
     cx="160.9"
     cy="260.83"
     rx="387.83"
     ry="99.023"
     fill="#fff"
     id="ellipse445" />
  <path
     d="m95.59 142.76a7.2143 7.2143 0 0 0-1.0506 0.23494 7.8907 7.8907 0 0 1 0.31666-0.056 7.8907 7.8907 0 0 1 8.9104 6.7179 7.8907 7.8907 0 0 1 0.0306 0.33932 7.2143 7.2143 0 0 0-0.0605-1.0942 7.2143 7.2143 0 0 0-8.1465-6.142z"
     fill="#fff"
     id="path447" />
  <ellipse
     transform="translate(9.9753 -.32632)"
     cx="150.92"
     cy="117.24"
     rx="387.83"
     ry="47.797"
     clip-path="url(#clipPath2494)"
     fill-opacity=".98291"
     filter="url(#filter2870)"
     id="ellipse449" />
  <path
     d="m193 89.224c1.5515 4.0343-0.81881 7.9716-0.80495 12.294-0.0133 5.1462 2.0283 10.574-0.14228 15.24 0.10737 0.30306 0.16275 0.62209 0.16382 0.94361-1e-3 0.31767-0.0553 0.63292-0.1602 0.93276 0.15268-0.11071 0.27842-0.25686 0.35347-0.4346 0.01 7.9e-4 0.0193 1e-3 0.0289 2e-3 0.17457-2.6e-4 0.34259-0.0723 0.47025-0.20153 0.15226 0.0545 0.31268 0.0826 0.47439 0.0832 0.66549-2.6e-4 1.242-0.46179 1.388-1.111 0.20021-0.14289 0.31915-0.37365 0.31936-0.6196-2.7e-4 -0.063-9e-3 -0.12561-0.0243-0.18655 0.22701-0.0266 0.39908-0.21741 0.40204-0.44597 0.86385-0.6924 1.1382-2.0519 0.49558-2.9926 0.78519-1.226 0.14232-2.8127-0.61082-3.7305 0.22762-0.51162 0.22768-1.0446 0.0801-1.5384 0.40954-1.2583 0.61932-2.573 0.62167-3.8964-5e-3 -1.0047-0.12886-2.0052-0.37-2.9807 0.61472-0.54652 1.6171-0.58627 2.0324-1.4707 0.88846-1.2325 0.19059-2.9441-0.79168-3.7336 0.46878-1.0823-0.29355-2.1812-0.90796-2.8944 0.0545-1.6956-1.4144-3.0976-3.0179-3.2592z"
     fill="#fff"
     stroke-width=".26458"
     id="path451" />
  <g
     stroke-width=".26458"
     aria-label="Omega"
     id="g463">
    <path
       d="m359 131.76c0-2.9345-0.50305-9.6418-4.779-16.433-8.8872-14.085-25.153-14.84-30.015-14.84-13.666-0.0838-27.165 5.9528-32.698 19.2-2.2637 5.282-2.4314 9.9772-2.4314 12.157 0 2.7668 0.25152 8.8034 3.8567 15.259 8.468 15.175 26.075 16.014 30.854 16.014 4.6113 0 18.864-0.67074 28.422-12.157 6.1205-7.3781 6.7912-15.846 6.7912-19.2zm-6.4558-0.33537c0 3.689-0.50305 14.002-9.7257 20.96-7.2942 5.4497-15.762 5.7012-18.697 5.7012-4.1921 0-20.96-0.83841-26.913-15.846-1.7607-4.3598-1.9284-8.5519-1.9284-10.145 0-11.822 6.7912-18.529 10.229-21.044 6.4558-4.779 14.421-5.3659 16.852-5.4497 8.6357-0.33537 15.008 2.3476 17.858 3.8567 8.3842 4.5275 10.899 12.325 11.654 15.595 0.75458 3.0183 0.67073 5.0305 0.67073 6.372z"
       id="path453" />
    <path
       d="m454.15 161.52v-24.482c0-2.3476-0.0838-4.1921-0.92226-6.372-1.6768-4.4436-5.1144-6.875-6.4558-7.7134-5.7012-3.689-13.079-3.8567-14.84-3.8567-8.6357 0-13.75 2.6829-16.685 4.779-2.1799 1.593-2.8506 2.4314-3.689 3.6052-0.41921-0.67073-1.5092-2.1799-3.2698-3.6052-5.8689-4.6952-14.085-4.9467-16.014-4.9467-1.9284 0-9.558 0.0838-15.343 4.1921-1.0061 0.67074-1.9284 1.5092-2.8506 2.2637v-5.282h-5.6174v41.418h5.6174v-24.23c0-3.3537 0.33537-4.3598 1.2576-5.9528 3.1022-5.3659 10.899-7.0427 16.433-7.0427 5.8689 0 13.163 1.4253 15.762 7.7135 0.67074 1.7607 1.09 3.1022 1.09 6.6235v22.889h5.5336v-24.65c0-2.096 0.25153-3.8567 1.4253-5.7851 3.9406-6.7912 14.84-6.7912 15.846-6.7912 1.2576 0 12.409-0.0838 16.014 7.6296 1.2576 2.6829 1.2576 5.5336 1.2576 6.4558v23.14z"
       id="path455" />
    <path
       d="m513.01 150.2-4.3598-3.1022c-0.83842 1.3415-1.1738 1.8445-1.6768 2.5153-5.7851 7.4619-13.666 8.1327-17.104 8.1327-10.061 0-18.948-5.6174-19.703-16.349h42.843c-0.41921-4.6113-0.92227-6.6235-1.9284-8.8872-1.4253-3.2698-3.4375-5.4497-4.4436-6.4558-6.6235-6.7912-15.511-7.2942-18.613-7.2942-8.7196 0-14.588 3.689-17.02 5.8689-4.3598 3.7729-6.6235 9.558-6.6235 15.259 0 7.5458 3.689 14.337 9.8095 18.361 6.0366 4.0244 12.576 4.3598 15.092 4.3598 7.6296 0 12.996-2.6829 15.427-4.1921 4.5275-2.9345 7.1266-6.6235 8.3004-8.2165zm-6.7074-13.499h-35.968c0.41921-2.1799 0.83841-3.0183 1.3415-4.1082 0.50305-0.92226 1.593-2.8506 3.689-4.779 3.5214-3.2698 7.5458-4.3598 12.241-4.3598 6.0366 0 9.4741 1.7607 11.654 3.1022 3.7729 2.4314 6.1205 5.7012 7.0427 10.145z"
       id="path457" />
    <path
       d="m568.17 157.25v-37.142h-5.3659l0.16768 6.0366c-0.33537-0.33537-1.2576-1.3415-2.5153-2.3476-5.8689-4.6113-13.582-4.9467-15.846-4.9467-2.5153 0-4.6952 0.25153-5.5336 0.41921-2.6829 0.41921-9.3064 1.7607-14.421 7.7135-4.6952 5.4497-4.8628 10.899-4.8628 13.582 0 12.996 8.468 18.194 12.996 20.122 3.5214 1.4253 6.9589 2.0122 10.732 2.0122 8.3004 0.0838 13.834-2.7668 16.433-4.779 1.3415-1.0061 2.5153-2.5153 2.8506-2.9345 0.16768 6.6235-0.0838 10.061-1.9284 12.912-1.6768 2.5153-4.2759 3.6052-7.2104 4.3598-4.0244 1.0061-7.8811 1.0899-9.3065 1.0899-5.1144 0-9.2226-1.1738-10.899-1.9284-4.3598-2.0122-4.6951-4.8628-4.9467-6.875h-5.7851c0.0838 0.75458 0.16768 1.5092 0.33536 2.2637 0.83842 3.3537 2.8506 6.2882 5.7851 8.1327 5.5336 3.4375 15.092 3.3537 15.93 3.3537 3.7729 0 6.372-0.41921 7.8811-0.67074 2.3476-0.41921 11.654-1.9284 14.421-10.732 1.2576-3.9406 1.0899-8.5519 1.0899-9.6418zm-5.1982-16.685c0 6.372-2.1799 10.145-4.1082 12.073-3.5214 3.6052-9.4741 5.1144-14.337 5.1144-2.7668 0-12.828-0.41921-17.104-9.6418-0.58689-1.3415-1.593-3.7729-1.593-7.4619-0.0838-10.648 8.2165-16.852 18.278-17.188 6.875-0.25153 11.654 2.2637 13.834 4.0244 2.6829 2.096 4.9467 5.7012 5.0305 13.079z"
       id="path459" />
    <path
       d="m629.92 161.52v-4.2759c-2.0122 0.0838-5.1144 0.25152-6.2043-2.0122-0.58689-1.1738-0.58689-2.7668-0.58689-3.9406v-17.858c0-3.3537-0.33537-6.372-2.7668-9.1388-3.0183-3.3537-9.558-5.3659-19.703-5.3659-1.2576 0-9.4741-0.0838-15.092 2.9345-5.7012 3.0183-6.9589 8.1327-7.5458 10.313l5.8689 0.33537c0.58689-1.7607 1.0899-3.2698 2.3476-4.6113 0.75458-0.83842 1.6768-1.593 2.5153-2.0122 2.3476-1.2576 6.1205-1.9284 12.157-1.9284 7.7135 0 13.582 1.2576 15.678 4.1082 1.3415 1.9284 1.4253 4.1083 1.4253 6.2882-16.768 0.16768-29.345 0.41921-35.297 4.5275-3.2698 2.3476-5.1982 6.2043-5.1982 10.229 0 1.4253 0.16769 4.9467 2.7668 8.0488 3.8567 4.779 9.9772 5.4497 15.762 5.4497 8.6357 0 14.505-2.5153 17.439-4.1083 1.5092-0.83842 3.186-2.0122 4.5275-3.0183 0.16769 0.67074 0.41921 4.2759 3.3537 5.7013 0.67074 0.33536 1.7607 0.67073 3.5214 0.67073s3.3537-0.16768 5.0305-0.33537zm-11.906-22.47c0.0838 3.186 0.16769 7.4619-1.5092 10.396-1.4253 2.5991-3.8567 3.9406-4.779 4.4436-6.1205 3.4375-12.66 3.7729-15.008 3.7729-0.50305 0-7.5458 0-11.067-3.186-1.9284-1.8445-2.1799-4.3598-2.1799-5.1982 0-2.096 0.83842-3.5214 1.2576-4.1921 1.8445-2.5991 4.779-4.0244 10.899-4.9467 5.1982-0.75458 11.235-1.0061 22.386-1.0899z"
       id="path461" />
  </g>
</svg>
